<svg width="311" height="236" viewBox="0 0 311 236" fill="none" xmlns="http://www.w3.org/2000/svg">
<path d="M279.371 213.744H258.846V213.899H279.371V213.744Z" fill="#EBEBEB"/>
<path d="M205.829 215.425H200.442V215.58H205.829V215.425Z" fill="#EBEBEB"/>
<path d="M258.226 207.989H246.333V208.144H258.226V207.989Z" fill="#EBEBEB"/>
<path d="M59.857 209.031H33.092V209.186H59.857V209.031Z" fill="#EBEBEB"/>
<path d="M69.2986 209.031H65.3743V209.186H69.2986V209.031Z" fill="#EBEBEB"/>
<path d="M140.099 211.647H82.052V211.802H140.099V211.647Z" fill="#EBEBEB"/>
<path d="M148.313 176.134H28.6571C26.7071 176.134 25.1201 174.547 25.1201 172.597V4.40176C25.1201 2.45169 26.7071 0.864746 28.6571 0.864746H148.313C150.262 0.864746 151.849 2.45169 151.849 4.40176V172.597C151.849 174.547 150.262 176.134 148.313 176.134ZM28.6571 1.02028C26.792 1.02028 25.275 2.53721 25.275 4.40238V172.598C25.275 174.463 26.792 175.98 28.6571 175.98H148.313C150.177 175.98 151.694 174.463 151.694 172.598V4.40176C151.694 2.53721 150.177 1.01966 148.313 1.01966L28.6571 1.02028Z" fill="#EBEBEB"/>
<path d="M282.343 176.134H162.688C160.738 176.134 159.151 174.547 159.151 172.597V4.40176C159.151 2.45169 160.738 0.864746 162.688 0.864746H282.343C284.294 0.864746 285.88 2.45169 285.88 4.40176V172.597C285.88 174.547 284.293 176.134 282.343 176.134ZM162.688 1.02028C160.823 1.02028 159.306 2.53721 159.306 4.40238V172.598C159.306 174.463 160.823 175.98 162.688 175.98H282.343C284.208 175.98 285.725 174.463 285.725 172.598V4.40176C285.725 2.53721 284.208 1.01966 282.343 1.01966L162.688 1.02028Z" fill="#EBEBEB"/>
<path d="M310.415 203.542H0.585205V203.697H310.415V203.542Z" fill="#EBEBEB"/>
<path d="M189.261 80.4532L191.331 81.5853L189.261 82.7181L188.128 84.7884L186.996 82.7181L184.925 81.5853L186.996 80.4532L188.128 78.3823L189.261 80.4532Z" fill="#F0F0F0"/>
<path d="M197.1 77.6073L198.133 78.1725L197.1 78.7376L196.535 79.7712L195.969 78.7376L194.937 78.1725L195.969 77.6073L196.535 76.5737L197.1 77.6073Z" fill="#EBEBEB"/>
<path d="M198.98 10.036L197.83 12.097L200.185 11.9538L202.246 13.1039L202.103 10.7486L203.253 8.68761L200.898 8.83075L198.837 7.68066L198.98 10.036Z" fill="#F0F0F0"/>
<path d="M190.828 11.7981L190.255 12.8267L191.43 12.7554L192.459 13.3292L192.388 12.1537L192.961 11.1251L191.786 11.197L190.757 10.6226L190.828 11.7981Z" fill="#EBEBEB"/>
<path d="M235.684 65.1759L237.754 66.308L235.684 67.4407L234.551 69.511L233.419 67.4407L231.348 66.308L233.419 65.1759L234.551 63.105L235.684 65.1759Z" fill="#F0F0F0"/>
<path d="M243.523 62.3305L244.556 62.8956L243.523 63.4607L242.958 64.4943L242.393 63.4607L241.36 62.8956L242.393 62.3305L242.958 61.2969L243.523 62.3305Z" fill="#EBEBEB"/>
<path d="M135.244 48.7179L137.315 49.85L135.244 50.9827L134.112 53.053L132.979 50.9827L130.909 49.85L132.979 48.7179L134.112 46.647L135.244 48.7179Z" fill="#F0F0F0"/>
<path d="M143.083 45.872L144.116 46.4371L143.083 47.0022L142.517 48.0358L141.952 47.0022L140.919 46.4371L141.952 45.872L142.517 44.8384L143.083 45.872Z" fill="#EBEBEB"/>
<path d="M51.1837 36.901L53.2546 38.0331L51.1837 39.1658L50.0509 41.2361L48.9188 39.1658L46.8479 38.0331L48.9188 36.901L50.0509 34.8301L51.1837 36.901Z" fill="#F0F0F0"/>
<path d="M59.023 34.0546L60.0566 34.6197L59.023 35.1848L58.4578 36.2184L57.8927 35.1848L56.8591 34.6197L57.8927 34.0546L58.4578 33.021L59.023 34.0546Z" fill="#EBEBEB"/>
<path d="M245.087 16.6146L244.653 18.9346L242.935 17.3179L240.615 16.8842L242.231 15.1652L242.665 12.8452L244.384 14.4619L246.704 14.8957L245.087 16.6146Z" fill="#F0F0F0"/>
<path d="M250.226 23.1826L250.01 24.3407L249.152 23.5339L247.994 23.317L248.801 22.4588L249.017 21.3013L249.875 22.1081L251.034 22.3249L250.226 23.1826Z" fill="#EBEBEB"/>
<path d="M135.867 12.1858L135.393 14.4983L133.702 12.8525L131.39 12.3791L133.035 10.6874L133.508 8.37549L135.2 10.0213L137.512 10.4947L135.867 12.1858Z" fill="#F0F0F0"/>
<path d="M140.893 18.8402L140.657 19.994L139.813 19.173L138.658 18.9369L139.48 18.0923L139.716 16.9385L140.56 17.7595L141.715 17.9962L140.893 18.8402Z" fill="#EBEBEB"/>
<path d="M88.6283 30.402L89.9141 31.1053L88.6283 31.8086L87.9256 33.0944L87.2223 31.8086L85.9365 31.1053L87.2223 30.402L87.9256 29.1162L88.6283 30.402Z" fill="#F0F0F0"/>
<path d="M115.757 28.4127L117.043 29.1161L115.757 29.8188L115.054 31.1045L114.351 29.8188L113.065 29.1161L114.351 28.4127L115.054 27.127L115.757 28.4127Z" fill="#F0F0F0"/>
<path d="M99.6809 23.4512L100.966 24.1545L99.6809 24.8578L98.9776 26.1436L98.2743 24.8578L96.9885 24.1545L98.2743 23.4512L98.9776 22.166L99.6809 23.4512Z" fill="#F0F0F0"/>
<path d="M272.457 42.6745L273.743 43.3778L272.457 44.0805L271.755 45.3663L271.051 44.0805L269.766 43.3778L271.051 42.6745L271.755 41.3887L272.457 42.6745Z" fill="#F0F0F0"/>
<path d="M80.0844 19.7184L81.3702 20.4211L80.0844 21.1244L79.3811 22.4102L78.6784 21.1244L77.3926 20.4211L78.6784 19.7184L79.3811 18.4326L80.0844 19.7184Z" fill="#F0F0F0"/>
<path d="M84.7449 15.1872L86.0307 15.8899L84.7449 16.5932L84.0416 17.879L83.3383 16.5932L82.0525 15.8899L83.3383 15.1872L84.0416 13.9014L84.7449 15.1872Z" fill="#F0F0F0"/>
<path d="M272.877 75.4191L274.163 76.1224L272.877 76.8257L272.174 78.1115L271.471 76.8257L270.185 76.1224L271.471 75.4191L272.174 74.1333L272.877 75.4191Z" fill="#F0F0F0"/>
<path d="M181.741 204.184C181.741 204.184 205.707 185.015 214.743 184.689C223.779 184.363 289.156 203.216 289.156 203.216L181.741 204.184Z" fill="#F0F0F0"/>
<path d="M132.008 203.458C132.008 203.458 103.685 189.523 99.2278 189.197C94.7706 188.871 79.6392 203.588 79.6392 203.588L132.008 203.458Z" fill="#E6E6E6"/>
<path d="M107.725 203.688C107.725 203.688 60.1006 189.522 52.7664 189.196C45.4321 188.87 20.5342 203.463 20.5342 203.463L107.725 203.688Z" fill="#EBEBEB"/>
<path d="M240.508 169.831C242.513 167.817 245.191 167.546 246.489 169.226C247.787 170.906 247.214 173.9 245.209 175.914C243.204 177.928 240.527 178.199 239.228 176.519C237.93 174.839 238.503 171.845 240.508 169.831Z" fill="#E6E6E6"/>
<path d="M230.773 158.996C235.978 154.076 242.93 153.414 246.299 157.518C249.669 161.622 248.181 168.937 242.976 173.858C237.771 178.778 230.82 179.439 227.45 175.335C224.08 171.231 225.568 163.916 230.773 158.996Z" fill="#EBEBEB"/>
<path d="M253.839 159.514C257.536 156.019 262.474 155.549 264.867 158.465C267.261 161.38 266.205 166.577 262.507 170.071C258.81 173.566 253.872 174.036 251.478 171.12C249.085 168.205 250.141 163.008 253.839 159.514Z" fill="#E6E6E6"/>
<path d="M257.875 166.35C261.572 162.855 266.51 162.385 268.904 165.301C271.298 168.216 270.241 173.413 266.544 176.907C262.846 180.401 257.909 180.871 255.515 177.956C253.121 175.041 254.178 169.845 257.875 166.35Z" fill="#EBEBEB"/>
<path d="M245.721 155.635C250.82 150.815 257.63 150.166 260.93 154.187C264.231 158.207 262.774 165.373 257.675 170.193C252.575 175.013 245.766 175.662 242.465 171.641C239.165 167.621 240.623 160.455 245.721 155.635Z" fill="#F0F0F0"/>
<path d="M235.9 163.661C238.674 160.875 242.379 160.5 244.175 162.824C245.971 165.149 245.178 169.291 242.404 172.077C239.63 174.863 235.925 175.238 234.13 172.914C232.333 170.59 233.126 166.447 235.9 163.661Z" fill="#F0F0F0"/>
<path d="M258.796 172.936C260.801 170.922 263.479 170.651 264.777 172.331C266.075 174.011 265.502 177.006 263.497 179.02C261.492 181.034 258.815 181.304 257.516 179.625C256.218 177.945 256.791 174.95 258.796 172.936Z" fill="#F0F0F0"/>
<path d="M258.588 180.491L255.067 183.431C255.349 187.578 255.579 197.128 255.579 197.128L256.832 203.806L245.795 203.898C245.795 203.898 246.296 198.259 246.296 197.953C246.296 197.646 248.428 186.843 248.428 186.843L249.181 180.792L243.491 179.233L242.452 176.535L238.27 174.408L236.225 171.587L237.015 171.415L239.273 174.021L241.907 174.534L240.779 172.135H242.034L245.17 177.695L249.209 178.439L248.681 170.632C252.569 171.728 252.946 169.729 252.946 169.729C252.946 169.729 254.28 180.237 254.749 181.433L256.833 180.49L259.092 177.286H260.095L258.588 180.491Z" fill="#F5F5F5"/>
<path d="M79.7927 180.061C78.4158 178.678 76.5766 178.492 75.6849 179.646C74.7932 180.8 75.1867 182.857 76.5642 184.24C77.9411 185.623 79.7803 185.809 80.672 184.655C81.5636 183.501 81.1695 181.444 79.7927 180.061Z" fill="#E6E6E6"/>
<path d="M86.4789 172.619C82.9041 169.24 78.1296 168.785 75.8152 171.604C73.5008 174.423 74.5226 179.447 78.0974 182.826C81.6722 186.205 86.4467 186.66 88.7611 183.841C91.0756 181.023 90.0537 175.999 86.4789 172.619Z" fill="#EBEBEB"/>
<path d="M70.637 172.975C68.0976 170.575 64.7069 170.252 63.0623 172.254C61.4183 174.257 62.1439 177.826 64.6833 180.226C67.2227 182.626 70.6134 182.949 72.258 180.946C73.902 178.944 73.1764 175.375 70.637 172.975Z" fill="#E6E6E6"/>
<path d="M67.865 177.671C65.3257 175.272 61.9349 174.949 60.2903 176.951C58.6463 178.953 59.372 182.522 61.9113 184.922C64.4507 187.323 67.8415 187.645 69.486 185.643C71.13 183.641 70.4044 180.071 67.865 177.671Z" fill="#EBEBEB"/>
<path d="M76.212 170.312C72.7103 167.002 68.0332 166.556 65.7664 169.317C63.4991 172.079 64.5005 177 68.0028 180.311C71.5051 183.621 76.1817 184.066 78.4484 181.305C80.7151 178.544 79.7143 173.622 76.212 170.312Z" fill="#F0F0F0"/>
<path d="M82.9579 175.824C81.0524 173.91 78.5081 173.653 77.275 175.25C76.0413 176.846 76.5859 179.691 78.4914 181.605C80.3962 183.518 82.9412 183.775 84.1743 182.179C85.4074 180.583 84.8627 177.737 82.9579 175.824Z" fill="#F0F0F0"/>
<path d="M67.2324 182.193C65.8555 180.81 64.0163 180.624 63.1246 181.778C62.2329 182.931 62.6264 184.988 64.0039 186.371C65.3808 187.754 67.22 187.94 68.1116 186.786C69.0027 185.633 68.6092 183.576 67.2324 182.193Z" fill="#F0F0F0"/>
<path d="M67.3753 187.383L69.7932 189.403C69.5999 192.251 69.4412 198.81 69.4412 198.81L68.5812 203.396L76.1614 203.46C76.1614 203.46 75.8169 199.587 75.8169 199.376C75.8169 199.166 74.352 191.746 74.352 191.746L73.8346 187.59L77.7428 186.519L78.4573 184.667L81.3294 183.205L82.7335 181.268L82.1907 181.15L80.6403 182.94L78.8309 183.292L79.6055 181.644H78.7442L76.5909 185.462L73.816 185.973L74.1785 180.611C71.5078 181.364 71.2494 179.991 71.2494 179.991C71.2494 179.991 70.3335 187.208 70.0107 188.029L68.5799 187.382L67.0283 185.181H66.3398L67.3753 187.383Z" fill="#F5F5F5"/>
<path d="M98.5049 203.698L109.652 183.522L142.801 162.776L154.101 139.149C154.101 139.149 180.665 152.591 181.426 152.935C182.185 153.28 192.048 188.486 192.886 189.027C193.724 189.567 201.594 195.744 201.594 195.744L202.255 203.589L98.5049 203.698Z" fill="#F5F5F5"/>
<path d="M98.5049 203.697L114.391 188.39L136.901 177.754L141.115 191.217L146.784 175.903L153.222 181.124L151.825 163.121L152.943 157.362L156.719 161.185L154.101 139.148L181.425 152.935L192.885 189.026L201.593 195.743L202.254 203.589L98.5049 203.697Z" fill="#EBEBEB"/>
<path d="M157.354 140.561L165.55 155.704L172.31 158.366C172.31 158.366 175.876 165.763 175.835 165.29C175.794 164.817 175.425 156.531 175.425 156.531L181.426 152.935L157.354 140.561Z" fill="#FAFAFA"/>
<path d="M192.885 189.026L195.533 195.144L201.594 195.744L192.885 189.026Z" fill="#FAFAFA"/>
<path d="M183.847 147.834L207.348 146.465C208.18 146.417 209.008 146.613 209.731 147.029C217.495 153.757 225.872 149.267 229.56 146.614C230.966 145.603 232.619 144.993 234.348 144.892L260.53 143.367C270.354 142.794 271.923 128.903 262.456 126.215C262.336 126.181 262.214 126.148 262.091 126.115C271.856 116.967 248.287 100.25 225.283 126.637C226.704 118.203 205.14 122.476 199.149 134.221C196.353 126.902 176.375 141.063 183.847 147.834Z" fill="#F0F0F0"/>
<path d="M44.2223 139.375L52.3584 139.219L53.0344 139.506C56.7604 141.089 61.0032 140.897 64.5712 138.984L71.3763 138.854C71.3763 138.854 77.6981 136.333 76.7525 129.997C75.8069 123.661 66.2951 129.138 66.2951 129.138C66.2951 129.138 69.039 120.22 59.7776 122.913C50.5161 125.606 49.7775 134.41 49.7775 134.41C49.7775 134.41 37.5082 132.51 44.2223 139.375Z" fill="#F0F0F0"/>
<path d="M80.5405 163.683H115.337C119.795 163.683 120.871 157.442 116.66 155.977C116.606 155.958 116.553 155.94 116.498 155.922C121.155 152.042 110.937 143.861 99.8379 155.188C100.703 151.411 90.838 152.776 87.8196 157.929C86.7476 154.546 77.3399 160.424 80.5405 163.683Z" fill="#F0F0F0"/>
<path d="M155.5 235.135C221.854 235.135 275.645 231.994 275.645 228.119C275.645 224.244 221.854 221.103 155.5 221.103C89.1458 221.103 35.355 224.244 35.355 228.119C35.355 231.994 89.1458 235.135 155.5 235.135Z" fill="#F5F5F5"/>
<path d="M64.7228 211.219L75.4677 212.052C75.4677 212.052 73.6558 198.631 75.9126 197.137C78.6843 195.302 79.8474 197.669 80.1684 201.854C80.49 206.039 80.226 217.253 77.4339 216.94C74.6417 216.627 64.7222 217.774 64.7222 217.774C64.7222 217.774 64.7228 212.838 64.7228 211.219Z" fill="#6E53F1"/>
<path opacity="0.1" d="M64.7228 211.219L75.4677 212.052C75.4677 212.052 73.6558 198.631 75.9126 197.137C78.6843 195.302 79.8474 197.669 80.1684 201.854C80.49 206.039 80.226 217.253 77.4339 216.94C74.6417 216.627 64.7222 217.774 64.7222 217.774C64.7222 217.774 64.7228 212.838 64.7228 211.219Z" fill="black"/>
<path d="M60.3881 179.76L47.946 180.725C47.946 180.725 50.0442 165.185 47.4304 163.455C44.2206 161.33 42.8747 164.071 42.5023 168.916C42.1299 173.762 42.436 186.747 45.6687 186.385C48.9021 186.022 60.3881 187.35 60.3881 187.35C60.3881 187.35 60.3881 181.636 60.3881 179.76Z" fill="#6E53F1"/>
<path opacity="0.1" d="M60.3881 179.76L47.946 180.725C47.946 180.725 50.0442 165.185 47.4304 163.455C44.2206 161.33 42.8747 164.071 42.5023 168.916C42.1299 173.762 42.436 186.747 45.6687 186.385C48.9021 186.022 60.3881 187.35 60.3881 187.35C60.3881 187.35 60.3881 181.636 60.3881 179.76Z" fill="black"/>
<path d="M58.9813 229.453C59.4324 228.537 56.9922 148.141 56.9922 148.141C56.9922 148.141 57.517 137.14 65.5788 136.309C69.6097 135.894 72.0493 138.999 73.4807 142.208C74.8619 145.303 75.3366 148.727 75.0119 152.1L69.5558 229.453H58.9813Z" fill="#6E53F1"/>
<g opacity="0.2">
<path d="M60.5054 228.643C60.2259 206.884 59.9471 185.125 59.6676 163.365C59.5555 154.608 59.5722 145.341 64.0486 137.813C62.7201 141.936 61.772 146.184 61.2248 150.481C60.7167 154.469 60.9243 158.356 60.8375 162.356C60.6399 171.493 61.3797 218.431 61.2979 224.351C61.2762 225.925 61.2484 227.533 60.7148 229.013L60.5054 228.643Z" fill="black"/>
</g>
<g opacity="0.2">
<path d="M68.6821 228.531C69.57 206.788 71.1818 185.606 72.0697 163.863C72.4273 155.112 72.6696 145.849 68.4057 138.198C69.6184 142.357 70.4469 146.629 70.8738 150.94C71.2704 154.941 70.9537 158.82 70.9283 162.821C70.8701 171.96 68.0934 218.297 68.0097 224.217C67.9874 225.791 67.9701 227.399 68.4621 228.895L68.6821 228.531Z" fill="black"/>
</g>
<path d="M59.4124 135.696C59.4124 135.696 62.6984 141.975 62.0676 140.77" stroke="white" stroke-width="0.5" stroke-miterlimit="10"/>
<path d="M68.8113 138.099C69.1422 137.188 69.3653 136.237 69.4743 135.273" stroke="white" stroke-width="0.5" stroke-miterlimit="10"/>
<path d="M74.3533 151.406C75.1006 151.715 75.97 151.714 76.7167 151.403" stroke="white" stroke-width="0.5" stroke-miterlimit="10"/>
<path d="M55.0408 153.377C55.8755 153.725 56.8223 153.795 57.6991 153.576" stroke="white" stroke-width="0.5" stroke-miterlimit="10"/>
<path d="M73.4539 144.121C74.0909 143.636 74.6783 143.086 75.205 142.483" stroke="white" stroke-width="0.5" stroke-miterlimit="10"/>
<path d="M56.6594 143.085C57.2022 142.967 57.8058 143.214 58.11 143.679" stroke="white" stroke-width="0.5" stroke-miterlimit="10"/>
<path d="M71.6799 172.668C72.6274 173.39 73.6659 173.99 74.764 174.451" stroke="white" stroke-width="0.5" stroke-miterlimit="10"/>
<path d="M59.156 176.497C58.6869 176.976 58.0585 177.297 57.3955 177.395" stroke="white" stroke-width="0.5" stroke-miterlimit="10"/>
<path d="M61.652 203.875C60.7714 204.566 59.8915 205.257 59.011 205.948" stroke="white" stroke-width="0.5" stroke-miterlimit="10"/>
<path d="M70.6331 208.975C71.3636 208.838 72.158 209.122 72.6358 209.691" stroke="white" stroke-width="0.5" stroke-miterlimit="10"/>
<path d="M65.782 194.003C66.3651 193.875 66.9246 193.642 67.4272 193.32" stroke="white" stroke-width="0.5" stroke-miterlimit="10"/>
<path d="M71.8267 190.757C72.7574 190.868 73.6887 190.98 74.6195 191.091" stroke="white" stroke-width="0.5" stroke-miterlimit="10"/>
<path d="M63.136 185.336C62.7927 185.336 62.4488 185.336 62.1055 185.336" stroke="white" stroke-width="0.5" stroke-miterlimit="10"/>
<path d="M69.4675 184.904C69.7836 184.899 70.0977 184.789 70.3481 184.596" stroke="white" stroke-width="0.5" stroke-miterlimit="10"/>
<path d="M61.3806 199.144C61.5275 199.193 61.675 199.243 61.8224 199.292" stroke="white" stroke-width="0.5" stroke-miterlimit="10"/>
<path d="M70.3406 201.136C70.9776 201.286 71.6152 201.438 72.2522 201.588" stroke="white" stroke-width="0.5" stroke-miterlimit="10"/>
<path d="M60.8098 163.731C60.5576 163.918 60.3054 164.105 60.0532 164.293" stroke="white" stroke-width="0.5" stroke-miterlimit="10"/>
<path d="M72.5608 162.06C73.0993 162.122 73.6378 162.183 74.1762 162.245" stroke="white" stroke-width="0.5" stroke-miterlimit="10"/>
<path d="M61.6692 148.513C61.8656 148.612 62.0621 148.71 62.2579 148.808" stroke="white" stroke-width="0.5" stroke-miterlimit="10"/>
<path d="M65.146 141.62C65.3833 142.376 65.5066 143.167 65.5091 143.96" stroke="white" stroke-width="0.5" stroke-miterlimit="10"/>
<path d="M69.4712 143.817C69.8393 143.485 70.1479 143.088 70.3784 142.649" stroke="white" stroke-width="0.5" stroke-miterlimit="10"/>
<path d="M70.947 148.953C71.0976 149.027 71.3002 148.966 71.3851 148.821" stroke="white" stroke-width="0.5" stroke-miterlimit="10"/>
<path d="M66.6667 155.597C67.0045 155.851 67.3416 156.105 67.6787 156.358" stroke="white" stroke-width="0.5" stroke-miterlimit="10"/>
<path d="M73.5977 157.189C74.1671 157.371 74.7595 157.484 75.3562 157.524" stroke="white" stroke-width="0.5" stroke-miterlimit="10"/>
<path d="M61.0591 157.937C60.818 158.235 60.577 158.533 60.3359 158.831" stroke="white" stroke-width="0.5" stroke-miterlimit="10"/>
<path d="M64.7326 162.374C64.8745 162.776 64.776 163.253 64.4854 163.566" stroke="white" stroke-width="0.5" stroke-miterlimit="10"/>
<path d="M70.2236 159.405C70.3761 159.597 70.5285 159.789 70.6816 159.982" stroke="white" stroke-width="0.5" stroke-miterlimit="10"/>
<path d="M73.4514 168.094C73.9769 168.382 74.4608 168.746 74.8841 169.171" stroke="white" stroke-width="0.5" stroke-miterlimit="10"/>
<path d="M58.7179 170.02C58.0307 170.265 57.3435 170.511 56.6562 170.757" stroke="white" stroke-width="0.5" stroke-miterlimit="10"/>
<path d="M61.9661 172.819C61.9995 173.2 61.7331 173.586 61.365 173.689" stroke="white" stroke-width="0.5" stroke-miterlimit="10"/>
<path d="M70.793 170.609C71.2156 170.704 71.5942 170.981 71.8117 171.355" stroke="white" stroke-width="0.5" stroke-miterlimit="10"/>
<path d="M66.3991 177.656C66.5764 177.83 66.4661 178.19 66.2219 178.235" stroke="white" stroke-width="0.5" stroke-miterlimit="10"/>
<path d="M66.0813 171.643C66.1303 171.79 66.1792 171.937 66.2288 172.084" stroke="white" stroke-width="0.5" stroke-miterlimit="10"/>
<path d="M72.866 177.925C73.327 178.031 73.7391 178.334 73.9789 178.742" stroke="white" stroke-width="0.5" stroke-miterlimit="10"/>
<path d="M43.4028 167.229C42.6153 166.775 41.9175 166.165 41.3623 165.444" stroke="white" stroke-width="0.5" stroke-miterlimit="10"/>
<path d="M45.4663 161.629C45.4663 162.169 45.4663 162.709 45.4663 163.249" stroke="white" stroke-width="0.5" stroke-miterlimit="10"/>
<path d="M47.4294 165.412C48.1984 165.041 48.8745 164.48 49.3808 163.793" stroke="white" stroke-width="0.5" stroke-miterlimit="10"/>
<path d="M46.9316 169.742C47.0295 169.792 47.1281 169.841 47.226 169.89" stroke="white" stroke-width="0.5" stroke-miterlimit="10"/>
<path d="M48.5586 169.139C49.0004 169.139 49.4422 169.139 49.884 169.139" stroke="white" stroke-width="0.5" stroke-miterlimit="10"/>
<path d="M43.4011 171.92C42.9246 172.025 42.4716 172.236 42.085 172.534" stroke="white" stroke-width="0.5" stroke-miterlimit="10"/>
<path d="M43.9991 178.3C43.6477 178.357 43.3497 178.658 43.2976 179.011" stroke="white" stroke-width="0.5" stroke-miterlimit="10"/>
<path d="M46.3589 175.757C46.5435 175.982 46.8007 176.147 47.082 176.221" stroke="white" stroke-width="0.5" stroke-miterlimit="10"/>
<path d="M48.7058 173.262C49.0491 173.262 49.393 173.262 49.7363 173.262" stroke="white" stroke-width="0.5" stroke-miterlimit="10"/>
<path d="M47.6904 179.185C48.0399 179.026 48.4892 179.127 48.7364 179.421" stroke="white" stroke-width="0.5" stroke-miterlimit="10"/>
<path d="M44.7612 184.031C44.5523 184.363 44.2171 184.614 43.8391 184.721" stroke="white" stroke-width="0.5" stroke-miterlimit="10"/>
<path d="M49.2804 185.633C49.4062 186.229 49.3077 186.871 49.009 187.402" stroke="white" stroke-width="0.5" stroke-miterlimit="10"/>
<path d="M54.8633 185.932C54.9866 186.416 55.1105 186.9 55.2338 187.385" stroke="white" stroke-width="0.5" stroke-miterlimit="10"/>
<path d="M53.7113 181.066C53.7404 180.51 53.658 179.95 53.4702 179.427" stroke="white" stroke-width="0.5" stroke-miterlimit="10"/>
<path d="M49.1453 183.137C49.3405 183.189 49.5363 183.241 49.7321 183.294" stroke="white" stroke-width="0.5" stroke-miterlimit="10"/>
<path d="M56.6611 183.15C56.9549 183.098 57.2492 183.046 57.5429 182.994" stroke="white" stroke-width="0.5" stroke-miterlimit="10"/>
<path d="M52.385 185.042C52.4247 185.155 52.3528 185.295 52.2375 185.327" stroke="white" stroke-width="0.5" stroke-miterlimit="10"/>
<path d="M57.1001 191.36C57.8864 191.442 58.6846 191.411 59.4622 191.267" stroke="white" stroke-width="0.5" stroke-miterlimit="10"/>
<path d="M71.6494 196.101C71.8 196.364 72.1086 196.528 72.411 196.506" stroke="white" stroke-width="0.5" stroke-miterlimit="10"/>
<path d="M59.1621 197.588C58.3324 197.634 57.5219 197.982 56.9165 198.551" stroke="white" stroke-width="0.5" stroke-miterlimit="10"/>
<path d="M66.2183 205.521C66.4636 205.718 66.709 205.914 66.9544 206.11" stroke="white" stroke-width="0.5" stroke-miterlimit="10"/>
<path d="M60.4454 214.708C59.4106 215.244 58.4885 215.995 57.7561 216.901" stroke="white" stroke-width="0.5" stroke-miterlimit="10"/>
<path d="M61.3271 221.534C61.0928 221.933 60.8592 222.333 60.625 222.732" stroke="white" stroke-width="0.5" stroke-miterlimit="10"/>
<path d="M65.7739 221.861C66.1699 222.448 66.5659 223.034 66.9624 223.621" stroke="white" stroke-width="0.5" stroke-miterlimit="10"/>
<path d="M67.2739 215.189C67.6631 215.345 68.0516 215.502 68.4407 215.658" stroke="white" stroke-width="0.5" stroke-miterlimit="10"/>
<path d="M74.6597 215.929C75.1213 216.452 75.6548 216.91 76.241 217.289" stroke="white" stroke-width="0.5" stroke-miterlimit="10"/>
<path d="M79.4756 202.393C79.9676 202.303 80.4602 202.213 80.9522 202.123" stroke="white" stroke-width="0.5" stroke-miterlimit="10"/>
<path d="M78.3143 197.261C78.2251 196.712 78.4445 196.123 78.8702 195.765" stroke="white" stroke-width="0.5" stroke-miterlimit="10"/>
<path d="M74.2932 199.33C74.3843 199.908 74.8181 200.418 75.3739 200.601" stroke="white" stroke-width="0.5" stroke-miterlimit="10"/>
<path d="M79.7764 211.391C80.3006 211.491 80.8075 211.682 81.2673 211.954" stroke="white" stroke-width="0.5" stroke-miterlimit="10"/>
<path d="M73.363 212.285C73.3518 211.931 73.4429 211.575 73.622 211.27" stroke="white" stroke-width="0.5" stroke-miterlimit="10"/>
<path d="M75.5059 207.124C75.0356 206.957 74.6136 206.655 74.3013 206.266" stroke="white" stroke-width="0.5" stroke-miterlimit="10"/>
<path d="M80.2051 208.313C80.2925 208.459 80.5 208.517 80.6506 208.439" stroke="white" stroke-width="0.5" stroke-miterlimit="10"/>
<path d="M77.4189 204.773C77.4189 204.871 77.4189 204.969 77.4189 205.067" stroke="white" stroke-width="0.5" stroke-miterlimit="10"/>
<path d="M76.6792 210.052C76.2888 210.115 75.8984 210.179 75.5081 210.242" stroke="white" stroke-width="0.5" stroke-miterlimit="10"/>
<path d="M78.8708 215.098C79.1243 215.386 79.3784 215.673 79.6318 215.96" stroke="white" stroke-width="0.5" stroke-miterlimit="10"/>
<path d="M72.1046 214.708C72.0554 214.708 72.0055 214.708 71.9563 214.708" stroke="white" stroke-width="0.5" stroke-miterlimit="10"/>
<path d="M69.4675 221.558C70.0952 221.601 70.7124 221.793 71.2546 222.113" stroke="white" stroke-width="0.5" stroke-miterlimit="10"/>
<path d="M72.7095 183.271C73.1513 183.516 73.5931 183.761 74.0349 184.007" stroke="white" stroke-width="0.5" stroke-miterlimit="10"/>
<path d="M64.8425 135.287C64.9206 135.623 64.9993 135.96 65.0774 136.297" stroke="white" stroke-width="0.5" stroke-miterlimit="10"/>
<path d="M72.6863 139.979C72.7594 139.696 72.9267 139.438 73.1554 139.256" stroke="white" stroke-width="0.5" stroke-miterlimit="10"/>
<path d="M63.1359 211.546C62.6451 211.546 62.1543 211.546 61.6636 211.546" stroke="white" stroke-width="0.5" stroke-miterlimit="10"/>
<path d="M86.833 229.733C86.6111 229.768 86.3565 229.804 86.0745 229.84H44.2079C44.1366 229.38 44.2519 228.848 44.4049 228.424C45.2074 226.222 45.2644 223.815 44.5611 221.614C45.6238 223.44 45.9931 225.159 46.0148 227.246C46.2063 225.27 45.7409 219.415 45.938 217.441C48.3887 220.261 46.9592 226.216 48.3887 228.106C50.0866 227.648 48.6353 217.835 48.802 218.533C49.7142 218.561 50.5656 223.862 50.8172 225.649C50.7354 222.84 52.0441 217.405 56.3947 213.897C52.1699 219.499 53.3497 224.168 53.4811 228.242C54.8034 224.776 55.3624 223.478 54.4583 219.937C57.9085 223.168 54.6336 228.861 56.4077 229.093C56.4077 229.093 58.0864 222.659 60.9721 218.899C60.0166 223.176 61.1803 226.744 61.5936 227.801C62.5901 228.574 61.6321 219.653 63.5511 217.334C63.7841 219.001 64.5042 226.868 65.4324 225.822C65.3451 223.018 64.5538 216.83 62.9191 214.582C64.5265 215.767 65.8352 217.366 66.6922 219.193C66.7659 218.987 66.8403 218.782 66.9116 218.574C67.4265 217.068 67.8342 215.534 68.1354 214.007C68.2091 215.62 68.0697 218.229 67.7822 220.912C68.2066 222.21 68.5103 223.458 68.7241 224.598C69.2086 223.193 69.6932 221.564 70.4219 219.576C69.6883 221.66 69.9783 223.7 70.4219 225.833C73.5518 226.265 73.1026 219.103 72.5523 216.857C75.0849 217.739 75.4765 223.598 75.5285 226.663C75.5285 226.663 77.9849 224.798 79.6251 216.819C81.0268 219.455 79.0885 226.588 81.0268 228.163C81.5745 228.609 81.7251 219.294 85.6048 217.197C84.0904 218.015 83.866 222.473 84.5204 225.655C85.0527 228.241 86.833 229.733 86.833 229.733Z" fill="#6E53F1"/>
<path opacity="0.7" d="M86.833 229.733C86.6111 229.768 86.3565 229.804 86.0745 229.84H44.2079C44.1366 229.38 44.2519 228.848 44.4049 228.424C45.2074 226.222 45.2644 223.815 44.5611 221.614C45.6238 223.44 45.9931 225.159 46.0148 227.246C46.2063 225.27 45.7409 219.415 45.938 217.441C48.3887 220.261 46.9592 226.216 48.3887 228.106C50.0866 227.648 48.6353 217.835 48.802 218.533C49.7142 218.561 50.5656 223.862 50.8172 225.649C50.7354 222.84 52.0441 217.405 56.3947 213.897C52.1699 219.499 53.3497 224.168 53.4811 228.242C54.8034 224.776 55.3624 223.478 54.4583 219.937C57.9085 223.168 54.6336 228.861 56.4077 229.093C56.4077 229.093 58.0864 222.659 60.9721 218.899C60.0166 223.176 61.1803 226.744 61.5936 227.801C62.5901 228.574 61.6321 219.653 63.5511 217.334C63.7841 219.001 64.5042 226.868 65.4324 225.822C65.3451 223.018 64.5538 216.83 62.9191 214.582C64.5265 215.767 65.8352 217.366 66.6922 219.193C66.7659 218.987 66.8403 218.782 66.9116 218.574C67.4265 217.068 67.8342 215.534 68.1354 214.007C68.2091 215.62 68.0697 218.229 67.7822 220.912C68.2066 222.21 68.5103 223.458 68.7241 224.598C69.2086 223.193 69.6932 221.564 70.4219 219.576C69.6883 221.66 69.9783 223.7 70.4219 225.833C73.5518 226.265 73.1026 219.103 72.5523 216.857C75.0849 217.739 75.4765 223.598 75.5285 226.663C75.5285 226.663 77.9849 224.798 79.6251 216.819C81.0268 219.455 79.0885 226.588 81.0268 228.163C81.5745 228.609 81.7251 219.294 85.6048 217.197C84.0904 218.015 83.866 222.473 84.5204 225.655C85.0527 228.241 86.833 229.733 86.833 229.733Z" fill="white"/>
<path d="M106.08 229.475C108.889 226.757 110.928 222.99 111.54 218.936C110.034 221.815 108.861 222.432 106.472 224.833C106.274 222.647 109.677 215.99 105.916 203.431C106.888 208.899 106.609 214.527 105.099 219.905C105.196 212.427 102.811 208.305 100.331 204.79C105.491 218.369 102.929 222.561 101.764 229.445C102.929 229.558 106.08 229.475 106.08 229.475Z" fill="#6E53F1"/>
<path opacity="0.7" d="M106.08 229.475C108.889 226.757 110.928 222.99 111.54 218.936C110.034 221.815 108.861 222.432 106.472 224.833C106.274 222.647 109.677 215.99 105.916 203.431C106.888 208.899 106.609 214.527 105.099 219.905C105.196 212.427 102.811 208.305 100.331 204.79C105.491 218.369 102.929 222.561 101.764 229.445C102.929 229.558 106.08 229.475 106.08 229.475Z" fill="white"/>
<path d="M119.583 229.434C120.996 226.844 120.996 222.399 120.996 214.604C121.636 216.871 122.201 222.136 122.454 224.477C123.354 215.663 123.511 212.548 124.412 203.735C125.62 211.587 125.873 215.492 125.141 223.403C126.905 213.465 128.397 214.283 130.842 210.443C128.605 214.811 127.549 219.778 127.816 224.679C129.409 222.124 130.718 220.117 132.311 217.563C131.071 221.502 130.181 225.507 128.941 229.446C126.201 229.446 122.324 229.435 119.583 229.434Z" fill="#6E53F1"/>
<path opacity="0.7" d="M119.583 229.434C120.996 226.844 120.996 222.399 120.996 214.604C121.636 216.871 122.201 222.136 122.454 224.477C123.354 215.663 123.511 212.548 124.412 203.735C125.62 211.587 125.873 215.492 125.141 223.403C126.905 213.465 128.397 214.283 130.842 210.443C128.605 214.811 127.549 219.778 127.816 224.679C129.409 222.124 130.718 220.117 132.311 217.563C131.071 221.502 130.181 225.507 128.941 229.446C126.201 229.446 122.324 229.435 119.583 229.434Z" fill="white"/>
<path d="M150.085 219.427C149.018 222.812 149.674 229.794 149.674 229.794C147.319 229.794 129.834 229.582 127.876 229.582C127.876 229.582 132.741 227.105 133.966 219.412C134.513 221.361 134.9 223.357 135.116 225.369C135.892 217.795 138.544 216.085 137.915 222.884C139.414 219.715 140.825 216.477 142.327 213.306C142.191 216.287 141.58 219.245 140.983 221.508C140.364 223.849 139.764 225.444 139.729 225.536C140.277 224.657 140.787 223.852 141.289 223.065C141.421 223.829 141.528 224.103 141.612 224.873C141.739 223.645 141.929 222.913 142.162 221.685C143.365 215.336 145.04 216.085 144.411 222.884C145.91 219.715 147.32 216.478 148.823 213.306C148.549 219.375 146.294 225.352 146.225 225.536C147.591 223.343 148.715 221.618 150.085 219.427Z" fill="#6E53F1"/>
<path opacity="0.7" d="M150.085 219.427C149.018 222.812 149.674 229.794 149.674 229.794C147.319 229.794 129.834 229.582 127.876 229.582C127.876 229.582 132.741 227.105 133.966 219.412C134.513 221.361 134.9 223.357 135.116 225.369C135.892 217.795 138.544 216.085 137.915 222.884C139.414 219.715 140.825 216.477 142.327 213.306C142.191 216.287 141.58 219.245 140.983 221.508C140.364 223.849 139.764 225.444 139.729 225.536C140.277 224.657 140.787 223.852 141.289 223.065C141.421 223.829 141.528 224.103 141.612 224.873C141.739 223.645 141.929 222.913 142.162 221.685C143.365 215.336 145.04 216.085 144.411 222.884C145.91 219.715 147.32 216.478 148.823 213.306C148.549 219.375 146.294 225.352 146.225 225.536C147.591 223.343 148.715 221.618 150.085 219.427Z" fill="white"/>
<path d="M213.686 229.562C214.198 226.111 214.709 222.66 215.221 219.209C215.733 221.167 216.081 223.168 216.259 225.185C217.179 217.627 220.539 210.114 221.46 202.556C222.368 209.323 219.874 215.475 219.114 222.26C220.675 219.12 222.138 216.406 223.699 213.266C223.302 219.421 220.863 225.448 220.863 225.448C222.274 223.279 223.432 221.576 224.843 219.408C223.713 222.772 222.582 226.136 221.452 229.5C219.097 229.454 216.04 229.608 213.686 229.562Z" fill="#6E53F1"/>
<path opacity="0.7" d="M213.686 229.562C214.198 226.111 214.709 222.66 215.221 219.209C215.733 221.167 216.081 223.168 216.259 225.185C217.179 217.627 220.539 210.114 221.46 202.556C222.368 209.323 219.874 215.475 219.114 222.26C220.675 219.12 222.138 216.406 223.699 213.266C223.302 219.421 220.863 225.448 220.863 225.448C222.274 223.279 223.432 221.576 224.843 219.408C223.713 222.772 222.582 226.136 221.452 229.5C219.097 229.454 216.04 229.608 213.686 229.562Z" fill="white"/>
<path d="M213.036 229.409C215.104 227.074 216.604 223.837 217.055 220.354C215.946 222.827 215.083 223.358 213.325 225.42C213.179 223.543 215.684 217.823 212.916 207.033C213.631 211.731 213.426 216.567 212.315 221.187C211.658 217.72 210.377 214.372 208.553 211.353C210.245 217.084 210.718 223.469 209.861 229.383C210.718 229.48 213.036 229.409 213.036 229.409Z" fill="#6E53F1"/>
<path d="M210.61 229.486C210.663 226.627 211.591 222.399 209.971 220.268C210.009 221.86 209.633 225.245 207.03 227.118C208.229 223.226 207.901 217.534 207.733 213.464C205.051 228.077 200.62 229.078 199.082 229.523C202.096 229.584 210.61 229.486 210.61 229.486Z" fill="#6E53F1"/>
<g opacity="0.7">
<path d="M213.036 229.409C215.104 227.074 216.604 223.837 217.055 220.354C215.946 222.827 215.083 223.358 213.325 225.42C213.179 223.543 215.684 217.823 212.916 207.033C213.631 211.731 213.426 216.567 212.315 221.187C211.658 217.72 210.377 214.372 208.553 211.353C210.245 217.084 210.718 223.469 209.861 229.383C210.718 229.48 213.036 229.409 213.036 229.409Z" fill="white"/>
<path d="M210.61 229.486C210.663 226.627 211.591 222.399 209.971 220.268C210.009 221.86 209.633 225.245 207.03 227.118C208.229 223.226 207.901 217.534 207.733 213.464C205.051 228.077 200.62 229.078 199.082 229.523C202.096 229.584 210.61 229.486 210.61 229.486Z" fill="white"/>
</g>
<path d="M230.857 229.472C230.9 226.614 230.025 224.42 230.068 221.561C229.03 226.708 226.571 227.256 226.571 227.256C228.462 222.4 228.545 217.535 228.408 213.465C227.46 218.478 226.426 223.705 223.696 227.602C223.04 228.539 222.076 229.797 221.12 229.417C221.12 229.417 228.408 229.413 230.857 229.472Z" fill="#6E53F1"/>
<path opacity="0.7" d="M230.857 229.472C230.9 226.614 230.025 224.42 230.068 221.561C229.03 226.708 226.571 227.256 226.571 227.256C228.462 222.4 228.545 217.535 228.408 213.465C227.46 218.478 226.426 223.705 223.696 227.602C223.04 228.539 222.076 229.797 221.12 229.417C221.12 229.417 228.408 229.413 230.857 229.472Z" fill="white"/>
<path d="M179.745 229.472C179.788 226.614 178.913 224.42 178.956 221.561C177.919 226.708 175.459 227.256 175.459 227.256C177.35 222.4 177.433 217.535 177.296 213.465C176.348 218.478 175.314 223.705 172.584 227.602C171.928 228.539 170.964 229.797 170.008 229.417C170.008 229.417 177.296 229.413 179.745 229.472Z" fill="#6E53F1"/>
<path opacity="0.7" d="M179.745 229.472C179.788 226.614 178.913 224.42 178.956 221.561C177.919 226.708 175.459 227.256 175.459 227.256C177.35 222.4 177.433 217.535 177.296 213.465C176.348 218.478 175.314 223.705 172.584 227.602C171.928 228.539 170.964 229.797 170.008 229.417C170.008 229.417 177.296 229.413 179.745 229.472Z" fill="white"/>
<path d="M173.424 96.8603L144.948 82.1528L136.577 98.361L165.053 113.068L173.424 96.8603Z" fill="#6E53F1"/>
<path d="M199.875 111.316L171.399 96.6084L163.721 111.473L192.197 126.181L199.875 111.316Z" fill="#6E53F1"/>
<path d="M167.057 113.424L165.137 112.971L173.397 96.979L174.877 98.2821L167.057 113.424Z" fill="#263238"/>
<path opacity="0.2" d="M167.057 113.424L165.137 112.971L173.397 96.979L174.877 98.2821L167.057 113.424Z" fill="black"/>
<path d="M173.459 96.8712L171.729 95.978L163.358 112.186L165.088 113.079L173.459 96.8712Z" fill="#263238"/>
<path d="M198.544 125.974L194.052 126.957L201.585 112.373L203.384 116.604L198.544 125.974Z" fill="#263238"/>
<path d="M215.304 123.824L210.111 121.142L206.457 128.216L211.651 130.898L215.304 123.824Z" fill="#263238"/>
<path opacity="0.2" d="M215.304 123.824L210.111 121.142L206.457 128.216L211.651 130.898L215.304 123.824Z" fill="black"/>
<path d="M212.147 120.717L201.178 115.051L196.229 124.633L207.198 130.298L212.147 120.717Z" fill="#263238"/>
<path opacity="0.2" d="M198.544 125.974L194.052 126.957L201.585 112.373L203.384 116.604L198.544 125.974Z" fill="black"/>
<path d="M201.605 112.208L199.875 111.315L192.198 126.18L193.927 127.073L201.605 112.208Z" fill="#263238"/>
<path d="M145.808 82.6002L144.079 81.707L135.708 97.9152L137.437 98.8084L145.808 82.6002Z" fill="#263238"/>
<path d="M204.743 130.217C203.99 131.676 202.196 132.248 200.737 131.494C199.279 130.741 198.707 128.947 199.46 127.488C200.214 126.029 202.007 125.458 203.466 126.211C204.925 126.965 205.497 128.758 204.743 130.217Z" fill="#263238"/>
<path d="M204.743 130.217C203.99 131.676 202.196 132.248 200.737 131.494C199.279 130.741 198.707 128.947 199.46 127.488C200.214 126.029 202.007 125.458 203.466 126.211C204.925 126.965 205.497 128.758 204.743 130.217Z" fill="#6E53F1"/>
<path d="M227.441 117.954L222.202 115.248L217.111 125.104L222.35 127.81L227.441 117.954Z" fill="#263238"/>
<path opacity="0.2" d="M227.441 117.954L222.202 115.248L217.111 125.104L222.35 127.81L227.441 117.954Z" fill="black"/>
<path d="M215.909 122.656L210.96 132.237L213.311 133.451L223.772 129.722L225.042 127.373L215.909 122.656Z" fill="#263238"/>
<path d="M227.274 118.921L221.51 115.943L221.507 113.357L229.385 117.426L227.274 118.921Z" fill="#6E53F1"/>
<path d="M144.846 80.2284L139.935 77.6919L130.153 96.6308L135.064 99.1674L144.846 80.2284Z" fill="#6E53F1"/>
<g opacity="0.4">
<path d="M148.516 85.5934L146.404 84.5103L145.475 86.3135L147.619 87.4134C147.965 86.8346 148.245 86.2125 148.516 85.5934Z" fill="white"/>
<path d="M149.79 86.3018C149.518 86.9214 149.235 87.5405 148.894 88.1217L169.245 98.5053L170.18 96.7083L149.79 86.3018Z" fill="white"/>
</g>
<g opacity="0.4">
<path d="M198.601 112.221L197.665 114.018L174.1 101.774L175.03 99.9707L198.601 112.221Z" fill="white"/>
</g>
<g opacity="0.4">
<path d="M144.1 80.6211L143.165 82.4181L139.323 80.4116L140.253 78.6084L144.1 80.6211Z" fill="white"/>
</g>
<path d="M193.899 101.688L188.549 98.9248L187.523 100.911L192.873 103.675L193.899 101.688Z" fill="#263238"/>
<path d="M205.984 99.4865L180.938 86.5503L178.646 90.9862L203.693 103.922L205.984 99.4865Z" fill="#6E53F1"/>
<g opacity="0.4">
<path d="M183.041 88.1637L181.361 87.3018L180.929 88.1724L182.675 89.0678C182.837 88.7858 182.968 88.489 183.041 88.1637Z" fill="white"/>
<path d="M183.88 88.6182C183.794 88.936 183.664 89.2335 183.502 89.5161L204.699 100.364L205.076 99.4684L183.88 88.6182Z" fill="white"/>
</g>
<path d="M192.959 92.2022L191.481 91.439L185.145 103.707L186.623 104.47L192.959 92.2022Z" fill="#263238"/>
<path opacity="0.2" d="M192.959 92.2022L191.481 91.439L185.145 103.707L186.623 104.47L192.959 92.2022Z" fill="black"/>
<path d="M177.758 89.9419L178.648 90.9823L180.939 86.5462L179.575 86.4229L177.758 89.9419Z" fill="#263238"/>
<path d="M208.763 100.366L200.927 96.3193L198.16 101.677L205.996 105.724L208.763 100.366Z" fill="#263238"/>
<path opacity="0.3" d="M179.933 89.1431C179.661 89.7627 179.378 90.3818 179.037 90.963L203.402 103.756L204.338 101.959L179.933 89.1431Z" fill="black"/>
<path opacity="0.3" d="M131.804 94.4917C131.533 95.1114 131.249 95.7304 130.908 96.3116L134.863 98.4079L135.799 96.6109L131.804 94.4917Z" fill="black"/>
<path opacity="0.3" d="M139.772 96.6885C139.5 97.3081 139.217 97.9272 138.876 98.5084L163.241 111.301L164.177 109.504L139.772 96.6885Z" fill="black"/>
<path opacity="0.3" d="M169.671 111.611C169.399 112.231 169.115 112.85 168.775 113.431L191.561 125.295L192.496 123.498L169.671 111.611Z" fill="black"/>
<path d="M187.214 122.442L173.813 115.521L171.385 120.222L184.786 127.143L187.214 122.442Z" fill="#263238"/>
<path d="M180.107 129.997H174.071V136.033H180.107V129.997Z" fill="#263238"/>
<path opacity="0.2" d="M180.107 129.997H174.071V136.033H180.107V129.997Z" fill="black"/>
<path d="M180.107 120.395H177.096V131.441H180.107V120.395Z" fill="#263238"/>
<path d="M180.107 128.554H168.035V131.441H180.107V128.554Z" fill="#263238"/>
<path d="M183.118 135.024H168.035V139.332H183.118V135.024Z" fill="#263238"/>
<path d="M176.725 229.334H174.574L173.277 139.333H178.021L176.725 229.334Z" fill="#263238"/>
<path opacity="0.1" d="M176.725 229.334H174.574L173.277 139.333H178.021L176.725 229.334Z" fill="white"/>
<path d="M152.827 227.392L150.714 226.99L166.27 138.333L170.931 139.22L152.827 227.392Z" fill="#263238"/>
<path opacity="0.1" d="M152.827 227.392L150.714 226.99L166.27 138.333L170.931 139.22L152.827 227.392Z" fill="white"/>
<path d="M156.627 214.063L151.939 213.165L151.042 217.853L155.729 218.75L156.627 214.063Z" fill="#263238"/>
<path d="M155.655 219.135L150.967 218.237L150.07 222.925L154.757 223.823L155.655 219.135Z" fill="#263238"/>
<path d="M153.905 224.313L150.792 223.717L150.123 229.334H152.541L153.905 224.313Z" fill="#263238"/>
<path d="M198.211 227.392L200.324 226.99L184.767 138.333L180.107 139.22L198.211 227.392Z" fill="#263238"/>
<path opacity="0.1" d="M198.211 227.392L200.324 226.99L184.767 138.333L180.107 139.22L198.211 227.392Z" fill="white"/>
<path d="M195.304 218.727L199.992 217.829L199.094 213.141L194.406 214.039L195.304 218.727Z" fill="#263238"/>
<path d="M196.275 223.798L200.963 222.9L200.065 218.213L195.378 219.11L196.275 223.798Z" fill="#263238"/>
<path d="M197.133 224.313L200.246 223.717L200.915 229.334H198.497L197.133 224.313Z" fill="#263238"/>
<path d="M175.453 209.849L154.427 211.473L154.619 213.949L175.644 212.326L175.453 209.849Z" fill="#263238"/>
<path d="M175.657 212.34L196.682 213.963L196.873 211.487L175.848 209.863L175.657 212.34Z" fill="#263238"/>
<path d="M227.268 123.541C227.867 122.906 228.765 122.228 229.363 121.592C229.702 120.143 229.908 118.326 229.908 117.996C229.65 117.322 229.107 117.138 228.849 117.062C228.685 117.013 227.441 118.137 227.275 118.176C226.678 117.653 225.833 120.075 225.844 120.036C225.599 120.902 225.042 121.777 225.205 122.662C225.34 123.405 226.751 124.091 227.268 123.541Z" fill="#878787"/>
<path d="M225.551 123.364L227.669 122.623L230.6 128.249C231.491 129.961 233.43 130.908 235.305 130.45C237.728 129.859 241.093 127.97 244.425 122.601C244.425 122.601 248.145 124.155 248.283 125.99C248.283 125.99 236.875 139.298 229.909 132.87C227.604 130.744 225.551 123.364 225.551 123.364Z" fill="#878787"/>
<path d="M247.722 149.562C247.722 149.562 256.496 160.795 251.703 171.755C249.08 177.752 246.539 195.251 246.539 195.251C246.539 195.251 251.388 198.356 254.66 203.644C259.857 212.041 262.396 214.252 262.396 214.252L258.691 217.084C258.691 217.084 243.36 205.447 239.489 199.776C235.618 194.104 236.321 189.066 241.362 167.386L229.625 192.895C234.673 199.733 234.105 217.17 234.105 217.17L228.275 218.098C228.275 218.098 222.066 200.607 220.461 195.892C218.856 191.177 217.47 189.95 222.33 174.489C224.192 168.562 229.927 150.178 229.927 150.178L247.722 149.562Z" fill="#6E53F1"/>
<path opacity="0.6" d="M247.722 149.562C247.722 149.562 256.496 160.795 251.703 171.755C249.08 177.752 246.539 195.251 246.539 195.251C246.539 195.251 251.388 198.356 254.66 203.644C259.857 212.041 262.396 214.252 262.396 214.252L258.691 217.084C258.691 217.084 243.36 205.447 239.489 199.776C235.618 194.104 236.321 189.066 241.362 167.386L229.625 192.895C234.673 199.733 234.105 217.17 234.105 217.17L228.275 218.098C228.275 218.098 222.066 200.607 220.461 195.892C218.856 191.177 217.47 189.95 222.33 174.489C224.192 168.562 229.927 150.178 229.927 150.178L247.722 149.562Z" fill="black"/>
<path opacity="0.2" d="M241.361 167.386C241.361 167.386 245.305 165.655 245.782 161.679C245.782 161.679 245.782 167.62 241.98 171.103C239.616 173.269 239.919 173.56 239.919 173.56L241.361 167.386Z" fill="black"/>
<path d="M258.505 216.383L263.544 221.552L266.735 221.26L261.696 214.126L258.505 216.383Z" fill="#878787"/>
<path d="M228.895 218.099L231.082 225.844L234.17 225.72L233.69 217.838L228.895 218.099Z" fill="#878787"/>
<path d="M268.315 222.1C268.315 222.1 268.747 221.522 268.258 221.108C267.952 220.849 267.017 220.209 266.36 219.766C265.946 219.487 265.418 219.044 264.998 219.318L263.123 220.971C262.641 221.285 262.594 221.734 262.62 222.309C262.669 223.386 262.321 225.371 261.179 227.183C260.508 228.249 260.118 229.038 260.573 229.432C260.686 229.531 260.848 229.583 261.026 229.605C261.679 229.687 262.32 229.379 262.738 228.87L268.315 222.1Z" fill="#263238"/>
<path d="M233.989 224.117C234.564 224.117 235.032 224.575 235.041 225.149C235.066 226.627 235.091 229.204 234.965 229.503C234.788 229.926 222.347 229.438 222.347 229.438C221.949 229.153 221.721 228.685 221.741 228.196C221.833 227.432 226.033 227.02 227.535 226.24C228.632 225.669 229.689 224.8 230.179 224.373C230.37 224.206 230.613 224.118 230.866 224.118H233.989V224.117Z" fill="#263238"/>
<path d="M256.496 216.441L261.946 212.384L263.3 214.155L258.32 218.02L256.496 216.441Z" fill="#6E53F1"/>
<path opacity="0.4" d="M256.496 216.441L261.946 212.384L263.3 214.155L258.32 218.02L256.496 216.441Z" fill="white"/>
<path d="M227.259 217.546C227.386 217.455 234.926 216.133 234.926 216.133L235.101 218.648L227.969 220.291L227.259 217.546Z" fill="#6E53F1"/>
<path opacity="0.4" d="M227.259 217.546C227.386 217.455 234.926 216.133 234.926 216.133L235.101 218.648L227.969 220.291L227.259 217.546Z" fill="white"/>
<path d="M237.803 109.357C238.288 112.188 240.011 118.829 242.534 119.891C242.534 119.891 242.822 122.844 237.919 124.707C232.527 126.756 233.929 121.399 233.929 121.399C236.603 119.574 235.697 117.421 234.401 115.567L237.803 109.357Z" fill="#878787"/>
<path d="M243.639 119.521C243.653 118.938 243.201 118.449 242.618 118.417C240.461 118.317 235.558 118.168 233.173 118.788C231.399 119.253 231.05 120.357 231.074 121.227C231.094 121.813 231.584 122.271 232.169 122.255L232.337 122.235L242.752 120.531C243.248 120.443 243.617 120.024 243.639 119.521Z" fill="#6E53F1"/>
<path opacity="0.4" d="M243.639 119.521C243.653 118.938 243.201 118.449 242.618 118.417C240.461 118.317 235.558 118.168 233.173 118.788C231.399 119.253 231.05 120.357 231.074 121.227C231.094 121.813 231.584 122.271 232.169 122.255L232.337 122.235L242.752 120.531C243.248 120.443 243.617 120.024 243.639 119.521Z" fill="white"/>
<path d="M249.438 124.604C247.021 137.697 247.207 142.363 247.74 149.539L229.916 150.177C229.916 150.177 227.793 139.519 227.577 135.64C227.446 133.397 227.341 131.463 227.254 129.796C226.87 122.831 226.802 120.607 226.802 120.607C226.802 120.607 234.17 118.921 241.977 119.783C243.322 119.82 244.667 119.9 246.005 120.024C248.266 120.241 249.853 122.367 249.438 124.604Z" fill="#6E53F1"/>
<path d="M207.5 133.128C207.159 132.324 206.899 131.23 206.557 130.426C205.367 129.533 204.068 128.785 202.699 128.202C202.681 128.105 201.588 129.419 201 130.174C200.895 130.308 200.974 130.584 200.944 130.753C201.746 131.721 203.463 132.707 203.463 132.707C204.157 133.279 204.991 134.459 205.867 134.665C206.601 134.838 207.796 133.823 207.5 133.128Z" fill="#878787"/>
<path d="M205.866 134.666L207.5 133.129L217.302 135.919C217.302 135.919 221.964 129.542 222.801 126.298C222.801 126.298 226.831 126.206 227.703 127.827C227.703 127.827 222.341 138.946 219.498 140.735C216.656 142.523 205.866 134.666 205.866 134.666Z" fill="#878787"/>
<path d="M206.828 134.409L206.276 135.289L207.547 136.077L207.905 135.138C207.905 135.138 207.38 135.17 206.828 134.409Z" fill="#6E53F1"/>
<path d="M208.981 134.062C208.981 134.657 208.499 135.139 207.904 135.139C207.309 135.139 206.827 134.657 206.827 134.062C206.827 133.467 207.309 132.985 207.904 132.985C208.499 132.985 208.981 133.467 208.981 134.062Z" fill="#263238" stroke="#6E53F1" stroke-miterlimit="10"/>
<path opacity="0.2" d="M227.706 135.688C227.662 135.676 227.619 135.663 227.576 135.639C227.446 133.395 227.34 131.462 227.253 129.795C228.369 127.106 229.751 124.255 230.085 125.637C230.562 127.608 227.706 135.688 227.706 135.688Z" fill="black"/>
<path d="M219.814 130.187L226.534 134.14C226.534 134.14 231.41 127.31 230.363 123.549C230.305 120.984 227.993 120.15 226.802 120.607C222.811 121.47 219.814 130.187 219.814 130.187Z" fill="#6E53F1"/>
<path d="M225.964 109.107C226.286 108.746 226.763 108.562 227.245 108.614C227.265 108.621 227.286 108.625 227.307 108.626C227.413 108.63 227.502 108.547 227.506 108.441C227.509 108.335 227.426 108.246 227.32 108.242C226.719 108.16 226.116 108.374 225.701 108.816C225.67 108.849 225.651 108.893 225.648 108.938C225.643 109.044 225.724 109.135 225.83 109.14C225.878 109.147 225.925 109.135 225.964 109.107Z" fill="#263238"/>
<path d="M227.506 110.44C227.663 111.297 227.73 112.169 227.705 113.04C228.042 113.184 228.431 113.127 228.711 112.891L227.506 110.44Z" fill="#263238"/>
<path d="M226.808 109.157C226.582 109.268 226.539 109.64 226.707 109.984C226.876 110.327 227.198 110.52 227.424 110.409C227.65 110.298 227.696 109.93 227.525 109.582C227.354 109.234 227.035 109.046 226.808 109.157Z" fill="#263238"/>
<path d="M238.412 102.44C240.231 106.797 241.094 108.607 240.027 111.825C238.418 116.674 232.67 117.957 229.598 114.255C226.817 110.895 224.167 105.409 227.495 101.684C229.847 99.0168 234.047 97.7013 236.715 100.054C237.457 100.708 238.037 101.525 238.412 102.44Z" fill="#878787"/>
<path d="M225.55 103.403C225.473 104.812 226.075 106.242 227.135 107.172C228.082 108.001 229.468 108.612 229.64 109.858C229.702 110.31 229.594 110.819 229.866 111.184C230.251 111.703 231.054 111.531 231.66 111.308C231.852 111.369 231.911 111.615 231.976 111.806C232.253 112.618 231.675 113.441 231.388 114.25C231.037 115.237 231.248 117.386 231.762 118.298C232.263 117.213 235.863 115.652 239.171 114.637C241.379 113.959 242.537 110.316 242.537 110.316C244.772 102.192 237.946 98.417 236.916 98.1586C229.257 96.2352 225.627 101.995 225.55 103.403Z" fill="#263238"/>
<path d="M231.283 108.801C231.678 109.605 231.835 110.505 231.733 111.396C231.587 112.548 230.744 112.557 230.115 111.706C229.559 110.96 228.963 109.451 229.417 108.52C229.872 107.589 230.796 107.832 231.283 108.801Z" fill="#878787"/>
<path d="M223.116 105.261C223.028 106.13 223.632 107.075 224.5 107.174C224.919 108.759 226.961 109.667 228.419 108.919C227.622 108.815 227.261 107.803 227.428 107.017C227.735 105.57 229.501 103.601 227.422 102.725C225.835 102.056 223.284 103.593 223.116 105.261Z" fill="#263238"/>
<path d="M217.609 43.9097C217.609 33.3322 209.034 24.7573 198.456 24.7573C187.876 24.7573 179.302 33.3322 179.302 43.9097C179.302 54.4898 187.876 63.0646 198.456 63.0646C209.034 63.0646 217.609 54.4898 217.609 43.9097ZM214.858 45.4546C215.686 45.7297 216.04 46.9169 215.645 48.1073C215.277 49.2202 214.385 49.9403 213.593 49.8064C213.935 50.6857 213.486 52.1097 212.884 52.9964C211.766 54.6367 210.545 55.2842 209.681 55.076C208.25 54.729 208.606 52.9196 209.486 51.3128C210.164 50.0741 211.349 48.7604 212.683 49.0585C212.439 48.5417 212.406 47.8272 212.642 47.1128C213.038 45.9224 214.028 45.1794 214.858 45.4546ZM209.733 38.6433C210.514 39.89 210.139 41.5352 208.893 42.3191C207.646 43.1029 206.001 42.725 205.219 41.4788C204.435 40.2321 204.811 38.5869 206.057 37.8055C207.304 37.021 208.949 37.399 209.733 38.6433ZM182.167 44.7221C182.167 43.5912 183.083 42.6785 184.211 42.6785C185.339 42.6785 186.255 43.5912 186.255 44.7221C186.255 45.8505 185.339 46.7657 184.211 46.7657C183.083 46.7657 182.167 45.8505 182.167 44.7221ZM188.889 44.9613C188.889 44.2239 189.232 43.5658 189.763 43.1364C189.01 42.5428 188.347 41.8128 187.807 40.954C187.064 39.7692 186.643 38.471 186.519 37.1679C186.334 37.2348 186.131 37.2707 185.923 37.2707C184.944 37.2707 184.15 36.4788 184.15 35.4997C184.15 34.5207 184.944 33.7287 185.923 33.7287C186.25 33.7287 186.555 33.8161 186.818 33.9704C187.384 31.9937 188.653 30.2097 190.532 29.0299C193.2 27.3537 196.434 27.3153 199.053 28.6444C199.662 27.6524 200.76 26.9893 202.012 26.9893C203.932 26.9893 205.487 28.5447 205.487 30.4619C205.487 31.9063 204.608 33.1425 203.356 33.6699C204.561 37.3531 203.163 41.5228 199.732 43.6792C197.824 44.877 195.629 45.2395 193.575 44.8615C193.575 44.895 193.578 44.9285 193.578 44.9619C193.578 46.2576 192.526 47.3061 191.234 47.3061C189.938 47.3055 188.889 46.2564 188.889 44.9613ZM203.289 50.5544C203.353 49.8089 203.875 49.2128 204.551 49.0176C203.973 48.4779 203.638 47.6859 203.713 46.8376C203.839 45.3697 205.13 44.2853 206.597 44.411C208.062 44.5368 209.149 45.8301 209.023 47.2949C208.908 48.6421 207.808 49.6701 206.494 49.729C206.707 50.0475 206.818 50.441 206.785 50.8549C206.7 51.8216 205.849 52.536 204.885 52.4511C203.919 52.3693 203.204 51.5185 203.289 50.5544ZM187.473 53.657C187.473 52.9245 188.069 52.3278 188.802 52.3278C189.537 52.3278 190.131 52.9239 190.131 53.657C190.131 54.3919 189.538 54.9861 188.802 54.9861C188.069 54.9861 187.473 54.3919 187.473 53.657ZM202.184 55.6721C202.269 54.7054 203.117 53.991 204.083 54.0759C205.047 54.1583 205.762 55.0091 205.679 55.9757C205.594 56.9393 204.746 57.6544 203.779 57.572C202.816 57.4871 202.101 56.6363 202.184 55.6721Z" fill="#6E53F1"/>
<path opacity="0.5" d="M217.609 43.911C217.609 48.3787 216.078 52.4871 213.519 55.7403C210.012 60.2018 204.565 63.0646 198.455 63.0646C191.44 63.0646 185.306 59.2909 181.966 53.6644C180.274 50.8078 179.301 47.474 179.301 43.911C179.301 33.3334 187.877 24.7573 198.455 24.7573C209.033 24.7573 217.609 33.3334 217.609 43.911Z" fill="white"/>
<path opacity="0.4" d="M213.519 55.7404C210.011 60.2019 204.565 63.0648 198.455 63.0648C191.44 63.0648 185.306 59.291 181.966 53.6645C181.916 53.4848 180.916 51.9103 180.716 51.1475C180.187 49.1323 180.075 47.6582 180.131 47.0961C181.819 47.9637 183.844 47.8459 185.426 46.7987C185.582 46.6952 185.738 46.5924 185.894 46.4889C186.47 46.1047 187.065 45.7019 187.443 45.1194C187.815 44.537 187.914 43.719 187.487 43.1737C187.945 42.8019 188.614 42.1761 189.073 41.8043C189.817 43.5641 191.707 44.6919 193.621 44.8158C195.53 44.9335 197.42 44.159 198.919 42.9692C200.425 41.7857 201.981 40.2179 202.972 38.582C203.604 38.7865 204.242 38.9848 204.881 39.1893C204.885 40.2842 205.205 41.4988 206.846 42.6544C208.158 43.579 208.822 45.1603 208.627 46.7535C208.625 46.7752 208.622 46.7975 208.619 46.8192C208.445 48.2989 209.116 49.7607 210.345 50.604C210.665 50.824 210.998 51.0328 211.381 51.1921C211.48 51.4895 211.976 51.9295 212.081 52.2207C211.486 52.89 211.48 53.2122 211.895 53.9991C212.273 54.6994 212.887 55.2385 213.519 55.7404Z" fill="white"/>
<path d="M184.211 46.766C183.083 46.766 182.168 45.8507 182.168 44.7223C182.168 43.5915 183.083 42.6787 184.211 42.6787C185.34 42.6787 186.255 43.5915 186.255 44.7223C186.255 45.8507 185.34 46.766 184.211 46.766Z" fill="#6E53F1"/>
<g opacity="0.2">
<path d="M184.211 46.766C183.083 46.766 182.168 45.8507 182.168 44.7223C182.168 43.5915 183.083 42.6787 184.211 42.6787C185.34 42.6787 186.255 43.5915 186.255 44.7223C186.255 45.8507 185.34 46.766 184.211 46.766Z" fill="white"/>
</g>
<path d="M205.22 41.4781C204.436 40.2314 204.811 38.5862 206.057 37.8048C207.304 37.0209 208.949 37.3989 209.733 38.6426C210.515 39.8893 210.139 41.5345 208.893 42.3184C207.646 43.1029 206.001 42.7249 205.22 41.4781Z" fill="#6E53F1"/>
<g opacity="0.2">
<path d="M205.22 41.4781C204.436 40.2314 204.811 38.5862 206.057 37.8048C207.304 37.0209 208.949 37.3989 209.733 38.6426C210.515 39.8893 210.139 41.5345 208.893 42.3184C207.646 43.1029 206.001 42.7249 205.22 41.4781Z" fill="white"/>
</g>
<path d="M204.886 52.4523C203.919 52.3699 203.204 51.5191 203.289 50.5556C203.354 49.8101 203.876 49.214 204.552 49.0188C203.973 48.4791 203.639 47.6872 203.714 46.8389C203.84 45.3709 205.13 44.2865 206.598 44.4123C208.063 44.5381 209.15 45.8313 209.024 47.2962C208.908 48.6433 207.808 49.6713 206.495 49.7302C206.708 50.0487 206.819 50.4422 206.785 50.8561C206.7 51.8222 205.849 52.5366 204.886 52.4523Z" fill="#6E53F1"/>
<g opacity="0.2">
<path d="M204.886 52.4523C203.919 52.3699 203.204 51.5191 203.289 50.5556C203.354 49.8101 203.876 49.214 204.552 49.0188C203.973 48.4791 203.639 47.6872 203.714 46.8389C203.84 45.3709 205.13 44.2865 206.598 44.4123C208.063 44.5381 209.15 45.8313 209.024 47.2962C208.908 48.6433 207.808 49.6713 206.495 49.7302C206.708 50.0487 206.819 50.4422 206.785 50.8561C206.7 51.8222 205.849 52.5366 204.886 52.4523Z" fill="white"/>
</g>
<path d="M203.78 57.5718C202.816 57.4869 202.101 56.6361 202.184 55.6719C202.269 54.7053 203.117 53.9908 204.083 54.0757C205.047 54.1581 205.762 55.0089 205.679 55.9756C205.594 56.9391 204.747 57.6542 203.78 57.5718Z" fill="#6E53F1"/>
<g opacity="0.2">
<path d="M203.78 57.5718C202.816 57.4869 202.101 56.6361 202.184 55.6719C202.269 54.7053 203.117 53.9908 204.083 54.0757C205.047 54.1581 205.762 55.0089 205.679 55.9756C205.594 56.9391 204.747 57.6542 203.78 57.5718Z" fill="white"/>
</g>
<path d="M191.552 54.2227C191.552 54.2023 191.555 54.1812 191.563 54.1608C191.597 54.0598 191.706 54.0065 191.807 54.0406C194.939 55.107 201.224 54.2723 201.287 54.2636C201.392 54.2494 201.489 54.3231 201.504 54.4291C201.518 54.5338 201.444 54.6317 201.338 54.646C201.077 54.6813 194.901 55.5017 191.682 54.4055C191.602 54.3777 191.552 54.3027 191.552 54.2227Z" fill="white"/>
<path d="M189.814 56.3858C189.814 56.3281 189.84 56.2717 189.889 56.2333C189.972 56.1683 190.094 56.1831 190.159 56.2674C191.262 57.6871 192.768 58.6785 194.763 59.2982C194.864 59.3298 194.921 59.4376 194.889 59.5398C194.858 59.6415 194.75 59.6985 194.648 59.6669C192.576 59.023 191.008 57.9888 189.854 56.5047C189.827 56.4688 189.814 56.4273 189.814 56.3858Z" fill="white"/>
<path d="M187.115 48.1645C187.115 48.061 187.197 47.9755 187.301 47.9718C187.408 47.9681 187.497 48.0517 187.5 48.1583C187.536 49.2824 187.769 50.2689 187.957 50.8991C187.988 51.0007 187.93 51.1085 187.828 51.1389C187.726 51.1692 187.618 51.1116 187.588 51.0094C187.393 50.3575 187.152 49.3357 187.115 48.1707C187.115 48.1689 187.115 48.1664 187.115 48.1645Z" fill="white"/>
<path d="M183.78 55.057C183.78 54.9721 183.836 54.8946 183.921 54.8711L186.326 54.2167C186.429 54.1889 186.535 54.2496 186.562 54.3518C186.59 54.4541 186.53 54.5606 186.427 54.5885L184.023 55.2429C183.92 55.2708 183.814 55.21 183.786 55.1072C183.782 55.0905 183.78 55.0737 183.78 55.057Z" fill="white"/>
<path d="M187.092 59.1677C187.092 59.1627 187.092 59.1578 187.093 59.1522C187.201 57.7957 187.56 56.8669 187.843 56.3272C187.892 56.233 188.008 56.1964 188.103 56.2454C188.197 56.2949 188.234 56.4114 188.184 56.5056C187.918 57.0137 187.579 57.8906 187.477 59.1825C187.468 59.2885 187.375 59.3678 187.27 59.3598C187.169 59.3517 187.092 59.2674 187.092 59.1677Z" fill="white"/>
<path d="M190.757 51.8448C190.757 51.7723 190.798 51.7023 190.868 51.6701C192.492 50.9159 198.016 48.1157 198.072 48.0878C198.167 48.0395 198.283 48.0779 198.331 48.1727C198.379 48.2675 198.341 48.3834 198.246 48.4317C198.19 48.4602 192.66 51.2629 191.031 52.0202C190.934 52.0648 190.819 52.0233 190.775 51.9266C190.763 51.8999 190.757 51.8721 190.757 51.8448Z" fill="white"/>
<path d="M182.026 48.2058C182.026 48.1383 182.062 48.0726 182.125 48.0372C182.218 47.9852 182.336 48.0187 182.388 48.1116C183.689 50.4428 185.785 51.8166 186.626 52.2993C186.718 52.3526 186.75 52.4703 186.697 52.5626C186.645 52.655 186.526 52.6865 186.434 52.6339C185.565 52.1351 183.399 50.7154 182.051 48.3C182.034 48.2696 182.026 48.2374 182.026 48.2058Z" fill="white"/>
<path d="M193.578 44.9614C193.578 44.9279 193.576 44.8944 193.576 44.861C195.629 45.239 197.825 44.8765 199.732 43.6787C203.164 41.5222 204.562 37.3526 203.356 33.6693C204.608 33.1426 205.487 31.9058 205.487 30.4613C205.487 28.5435 203.932 26.9888 202.012 26.9888C200.761 26.9888 199.663 27.6518 199.054 28.6439C196.434 27.3147 193.201 27.3531 190.533 29.0293C188.654 30.2091 187.384 31.9931 186.818 33.9698C186.556 33.8156 186.25 33.7282 185.924 33.7282C184.945 33.7282 184.15 34.5201 184.15 35.4992C184.15 36.4782 184.945 37.2702 185.924 37.2702C186.132 37.2702 186.335 37.2342 186.52 37.1673C186.643 38.4704 187.064 39.7686 187.807 40.9534C188.347 41.8123 189.01 42.5422 189.764 43.1358C189.231 43.5653 188.89 44.2233 188.89 44.9607C188.89 46.2564 189.938 47.3049 191.234 47.3049C192.527 47.3055 193.578 46.2564 193.578 44.9614Z" fill="#6E53F1"/>
<path opacity="0.2" d="M193.578 44.9614C193.578 44.9279 193.576 44.8944 193.576 44.861C195.629 45.239 197.825 44.8765 199.732 43.6787C203.164 41.5222 204.562 37.3526 203.356 33.6693C204.608 33.1426 205.487 31.9058 205.487 30.4613C205.487 28.5435 203.932 26.9888 202.012 26.9888C200.761 26.9888 199.663 27.6518 199.054 28.6439C196.434 27.3147 193.201 27.3531 190.533 29.0293C188.654 30.2091 187.384 31.9931 186.818 33.9698C186.556 33.8156 186.25 33.7282 185.924 33.7282C184.945 33.7282 184.15 34.5201 184.15 35.4992C184.15 36.4782 184.945 37.2702 185.924 37.2702C186.132 37.2702 186.335 37.2342 186.52 37.1673C186.643 38.4704 187.064 39.7686 187.807 40.9534C188.347 41.8123 189.01 42.5422 189.764 43.1358C189.231 43.5653 188.89 44.2233 188.89 44.9607C188.89 46.2564 189.938 47.3049 191.234 47.3049C192.527 47.3055 193.578 46.2564 193.578 44.9614Z" fill="white"/>
<path d="M209.681 55.0761C208.25 54.7291 208.607 52.9197 209.486 51.3129C210.165 50.0742 211.35 48.7605 212.684 49.0586C212.44 48.5418 212.406 47.8273 212.643 47.1128C213.039 45.9225 214.028 45.1801 214.859 45.4552C215.687 45.7304 216.041 46.9176 215.645 48.108C215.278 49.2209 214.385 49.9409 213.594 49.8071C213.936 50.6864 213.486 52.1104 212.884 52.9971C211.766 54.6367 210.545 55.2843 209.681 55.0761Z" fill="#6E53F1"/>
<g opacity="0.2">
<path d="M209.681 55.0761C208.25 54.7291 208.607 52.9197 209.486 51.3129C210.165 50.0742 211.35 48.7605 212.684 49.0586C212.44 48.5418 212.406 47.8273 212.643 47.1128C213.039 45.9225 214.028 45.1801 214.859 45.4552C215.687 45.7304 216.041 46.9176 215.645 48.108C215.278 49.2209 214.385 49.9409 213.594 49.8071C213.936 50.6864 213.486 52.1104 212.884 52.9971C211.766 54.6367 210.545 55.2843 209.681 55.0761Z" fill="white"/>
</g>
<path d="M209.333 32.1481C209.198 32.1481 209.074 32.0601 209.035 31.925C208.666 30.6591 206.367 28.4661 203.843 27.4269C200.913 26.2204 195.837 26.5253 194.664 27.3817C194.526 27.4833 194.331 27.4517 194.231 27.3141C194.13 27.176 194.16 26.982 194.298 26.881C195.733 25.8338 201.132 25.6392 204.079 26.8531C206.575 27.8811 209.169 30.1695 209.63 31.7509C209.678 31.9151 209.584 32.0874 209.42 32.1351C209.391 32.1444 209.361 32.1481 209.333 32.1481Z" fill="#6E53F1"/>
<g opacity="0.2">
<path d="M209.333 32.1481C209.198 32.1481 209.074 32.0601 209.035 31.925C208.666 30.6591 206.367 28.4661 203.843 27.4269C200.913 26.2204 195.837 26.5253 194.664 27.3817C194.526 27.4833 194.331 27.4517 194.231 27.3141C194.13 27.176 194.16 26.982 194.298 26.881C195.733 25.8338 201.132 25.6392 204.079 26.8531C206.575 27.8811 209.169 30.1695 209.63 31.7509C209.678 31.9151 209.584 32.0874 209.42 32.1351C209.391 32.1444 209.361 32.1481 209.333 32.1481Z" fill="white"/>
</g>
<path d="M194.726 36.9964C194.89 37.2461 195.141 37.4171 195.434 37.4772C196.037 37.6037 196.631 37.2139 196.759 36.6072C196.818 36.3148 196.762 36.0155 196.597 35.7657C196.433 35.5154 196.182 35.3444 195.89 35.2849C195.597 35.2235 195.299 35.2799 195.048 35.4441C194.797 35.609 194.626 35.8612 194.566 36.1537C194.55 36.2311 194.542 36.3092 194.542 36.3866C194.543 36.601 194.605 36.8117 194.726 36.9964Z" fill="#6E53F1"/>
<path opacity="0.4" d="M194.726 36.9964C194.89 37.2461 195.141 37.4171 195.434 37.4772C196.037 37.6037 196.631 37.2139 196.759 36.6072C196.818 36.3148 196.762 36.0155 196.597 35.7657C196.433 35.5154 196.182 35.3444 195.89 35.2849C195.597 35.2235 195.299 35.2799 195.048 35.4441C194.797 35.609 194.626 35.8612 194.566 36.1537C194.55 36.2311 194.542 36.3092 194.542 36.3866C194.543 36.601 194.605 36.8117 194.726 36.9964Z" fill="white"/>
<path d="M95.6637 49.2244C96.2511 53.2671 93.4503 57.0204 89.4082 57.6078C85.3656 58.1952 81.6123 55.3944 81.0249 51.3523C80.4374 47.3097 83.2383 43.5564 87.2803 42.969C91.323 42.3815 95.0762 45.1818 95.6637 49.2244Z" fill="#6E53F1"/>
<path opacity="0.2" d="M91.5885 43.9898C90.9961 43.6868 90.3591 43.4681 89.6923 43.3423C87.7199 45.7986 84.7369 47.2393 81.7898 47.7214C81.537 48.3677 81.3777 49.0549 81.3257 49.7669C85.2859 49.4311 89.3992 47.4382 91.5885 43.9898Z" fill="black"/>
<path opacity="0.5" d="M87.3606 43.287C84.7506 43.6662 82.6859 45.4279 81.7905 47.7213C84.7376 47.2392 87.7207 45.7985 89.693 43.3421C88.9426 43.2002 88.1588 43.1711 87.3606 43.287Z" fill="white"/>
<path opacity="0.2" d="M89.3955 57.2869C92.3438 56.8587 94.5963 54.6676 95.2525 51.938C93.176 54.3125 90.1285 56.257 86.5295 57.1134C87.4367 57.36 88.4065 57.4306 89.3955 57.2869Z" fill="black"/>
<path opacity="0.1" d="M94.3911 46.5643C94.0404 45.9992 93.6165 45.4879 93.1301 45.0474C90.9037 49.0057 86.1503 51.4887 81.4607 51.7236C81.6032 52.412 81.8418 53.0577 82.1621 53.6501C87.2836 53.3762 92.1461 50.5654 94.3911 46.5643Z" fill="white"/>
<path opacity="0.3" d="M93.1295 45.0469C92.6659 44.6274 92.1461 44.2748 91.5884 43.9897C89.3991 47.4375 85.2858 49.431 81.3262 49.7668C81.2896 50.2706 81.302 50.7849 81.3776 51.3048C81.3981 51.4467 81.4315 51.5843 81.46 51.7231C86.1502 51.4882 90.903 49.0053 93.1295 45.0469Z" fill="white"/>
<path opacity="0.4" d="M95.2693 48.7173C92.997 52.263 88.6129 55.0124 83.6333 55.5342C84.455 56.2765 85.447 56.8212 86.5296 57.1149C90.1292 56.2585 93.176 54.3134 95.2525 51.9395C95.457 51.0893 95.5115 50.1884 95.3783 49.2706C95.351 49.0823 95.3108 48.8995 95.2693 48.7173Z" fill="white"/>
<path opacity="0.5" d="M95.2693 48.7178C95.0927 47.9382 94.7934 47.2139 94.3912 46.5645C92.1468 50.5656 87.2843 53.3764 82.1616 53.6503C82.547 54.3629 83.0434 55.0011 83.6333 55.5346C88.6129 55.0129 92.997 52.2635 95.2693 48.7178Z" fill="black"/>
<path d="M106.437 40.3605C105.262 38.2803 98.7206 39.6708 90.9389 43.4191C91.048 43.4551 91.1502 43.5121 91.2537 43.566C91.496 43.6385 91.7271 43.737 91.9192 43.8808C96.2345 42.0701 99.6451 41.5236 100.334 42.74C101.017 43.9465 98.8687 46.5298 95.1842 49.2452C93.7689 50.2862 92.1274 51.3545 90.3317 52.3682C88.1616 53.5964 86.0405 54.5934 84.1518 55.3153C80.4066 56.7418 77.5419 57.0777 76.9142 55.9709C76.3156 54.9027 77.9534 52.7419 80.9104 50.368C80.8986 49.9497 80.9463 49.529 81.061 49.1318C74.5911 53.5803 70.6284 58.0121 71.7363 59.9646C72.9044 62.0355 79.3761 60.6859 87.0933 56.9959C88.5638 56.2907 90.0789 55.4975 91.61 54.6331C92.7998 53.9614 93.9455 53.273 95.0361 52.5789C102.719 47.6917 107.66 42.52 106.437 40.3605Z" fill="#6E53F1"/>
<path opacity="0.5" d="M106.437 40.3605C105.262 38.2803 98.7206 39.6708 90.9389 43.4191C91.048 43.4551 91.1502 43.5121 91.2537 43.566C91.496 43.6385 91.7271 43.737 91.9192 43.8808C96.2345 42.0701 99.6451 41.5236 100.334 42.74C101.017 43.9465 98.8687 46.5298 95.1842 49.2452C93.7689 50.2862 92.1274 51.3545 90.3317 52.3682C88.1616 53.5964 86.0405 54.5934 84.1518 55.3153C80.4066 56.7418 77.5419 57.0777 76.9142 55.9709C76.3156 54.9027 77.9534 52.7419 80.9104 50.368C80.8986 49.9497 80.9463 49.529 81.061 49.1318C74.5911 53.5803 70.6284 58.0121 71.7363 59.9646C72.9044 62.0355 79.3761 60.6859 87.0933 56.9959C88.5638 56.2907 90.0789 55.4975 91.61 54.6331C92.7998 53.9614 93.9455 53.273 95.0361 52.5789C102.719 47.6917 107.66 42.52 106.437 40.3605Z" fill="white"/>
<path d="M91.5886 43.553C94.1422 42.3991 96.8365 41.3538 99.5698 40.8909C102.977 40.314 104.349 41.8346 102.325 44.7576C98.8578 49.7626 92.4921 53.1998 87.1593 55.746C84.5555 56.989 81.8209 58.136 78.9804 58.7092C77.8749 58.9323 75.7848 59.4255 74.7481 58.677C71.7676 56.5249 78.9042 51.1884 80.8127 49.832" stroke="#6E53F1" stroke-width="0.5" stroke-miterlimit="10"/>
<path d="M89.8502 71.2281L91.9204 72.3602L89.8502 73.493L88.7174 75.5633L87.5853 73.493L85.5144 72.3602L87.5853 71.2281L88.7174 69.1572L89.8502 71.2281Z" fill="#6E53F1"/>
<path d="M97.6895 68.3822L98.7225 68.9474L97.6895 69.5125L97.1244 70.5461L96.5586 69.5125L95.5256 68.9474L96.5586 68.3822L97.1244 67.3486L97.6895 68.3822Z" fill="#6E53F1"/>
<g opacity="0.8">
<path d="M89.8502 71.2281L91.9204 72.3602L89.8502 73.493L88.7174 75.5633L87.5853 73.493L85.5144 72.3602L87.5853 71.2281L88.7174 69.1572L89.8502 71.2281Z" fill="white"/>
<path d="M97.6895 68.3822L98.7225 68.9474L97.6895 69.5125L97.1244 70.5461L96.5586 69.5125L95.5256 68.9474L96.5586 68.3822L97.1244 67.3486L97.6895 68.3822Z" fill="white"/>
</g>
<path d="M57.8053 68.2443L59.0911 68.9476L57.8053 69.6509L57.102 70.9361L56.3987 69.6509L55.1135 68.9476L56.3987 68.2443L57.102 66.9585L57.8053 68.2443Z" fill="#6E53F1"/>
<g opacity="0.8">
<path d="M57.8053 68.2443L59.0911 68.9476L57.8053 69.6509L57.102 70.9361L56.3987 69.6509L55.1135 68.9476L56.3987 68.2443L57.102 66.9585L57.8053 68.2443Z" fill="white"/>
</g>
<path d="M67.9364 42.2687L69.2222 42.9714L67.9364 43.6747L67.2337 44.9605L66.5304 43.6747L65.2446 42.9714L66.5304 42.2687L67.2337 40.9829L67.9364 42.2687Z" fill="#6E53F1"/>
<g opacity="0.8">
<path d="M67.9364 42.2687L69.2222 42.9714L67.9364 43.6747L67.2337 44.9605L66.5304 43.6747L65.2446 42.9714L66.5304 42.2687L67.2337 40.9829L67.9364 42.2687Z" fill="white"/>
</g>
<path d="M114.104 52.3844L115.39 53.0877L114.104 53.7911L113.401 55.0768L112.698 53.7911L111.412 53.0877L112.698 52.3844L113.401 51.0986L114.104 52.3844Z" fill="#6E53F1"/>
<g opacity="0.8">
<path d="M114.104 52.3844L115.39 53.0877L114.104 53.7911L113.401 55.0768L112.698 53.7911L111.412 53.0877L112.698 52.3844L113.401 51.0986L114.104 52.3844Z" fill="white"/>
</g>
</svg>
