<svg width="307" height="229" viewBox="0 0 307 229" fill="none" xmlns="http://www.w3.org/2000/svg">
<path d="M306.768 200.9H0V201.054H306.768V200.9Z" fill="#EBEBEB"/>
<path d="M276.03 210.775H255.708V210.929H276.03V210.775Z" fill="#EBEBEB"/>
<path d="M203.215 212.44H197.882V212.594H203.215V212.44Z" fill="#EBEBEB"/>
<path d="M255.094 205.078H243.319V205.232H255.094V205.078Z" fill="#EBEBEB"/>
<path d="M58.686 206.109H32.1855V206.263H58.686V206.109Z" fill="#EBEBEB"/>
<path d="M68.0344 206.109H64.1489V206.263H68.0344V206.109Z" fill="#EBEBEB"/>
<path d="M138.136 208.7H80.6621V208.854H138.136V208.7Z" fill="#EBEBEB"/>
<path d="M145.417 173.537H26.9435C25.0127 173.537 23.4414 171.966 23.4414 170.035V3.50206C23.4414 1.57127 25.0127 0 26.9435 0H145.417C147.347 0 148.918 1.57127 148.918 3.50206V170.035C148.918 171.966 147.347 173.537 145.417 173.537ZM26.9435 0.153997C25.0967 0.153997 23.5948 1.65593 23.5948 3.50268V170.036C23.5948 171.883 25.0967 173.385 26.9435 173.385H145.417C147.263 173.385 148.765 171.883 148.765 170.036V3.50206C148.765 1.65593 147.263 0.153384 145.417 0.153384L26.9435 0.153997Z" fill="#EBEBEB"/>
<path d="M278.121 173.537H159.649C157.718 173.537 156.147 171.966 156.147 170.035V3.50206C156.147 1.57127 157.719 0 159.649 0H278.121C280.053 0 281.623 1.57127 281.623 3.50206V170.035C281.624 171.966 280.053 173.537 278.121 173.537ZM159.649 0.153997C157.803 0.153997 156.301 1.65593 156.301 3.50268V170.036C156.301 171.883 157.803 173.385 159.649 173.385H278.121C279.968 173.385 281.47 171.883 281.47 170.036V3.50206C281.47 1.65593 279.968 0.153384 278.121 0.153384L159.649 0.153997Z" fill="#EBEBEB"/>
<path d="M40.9821 200.9H124.238L124.238 24.9457H40.9821L40.9821 200.9Z" fill="#E6E6E6"/>
<path d="M39.132 200.9H122.388L122.388 24.9457H39.132L39.132 200.9Z" fill="#F5F5F5"/>
<path d="M119.067 197.169L119.067 28.6758L42.4528 28.6758L42.4528 197.169H119.067Z" fill="#FAFAFA"/>
<path d="M101.422 197.169L82.0131 28.6758H60.0977L79.5056 197.169H101.422Z" fill="white"/>
<path d="M43.8516 197.169L43.8516 28.6758H42.4527L42.4527 197.169H43.8516Z" fill="#E6E6E6"/>
<path d="M40.5054 48.2783L121.014 48.2783V43.27L40.5054 43.27V48.2783Z" fill="#F5F5F5"/>
<path d="M168.248 200.9L168.248 98.8076H134.633L134.633 200.9H168.248Z" fill="#F0F0F0"/>
<path d="M166.402 131.716V101.791H136.478V131.716H166.402Z" fill="#F5F5F5"/>
<path d="M166.402 164.327V134.402H136.478V164.327H166.402Z" fill="#F5F5F5"/>
<path d="M166.402 196.938V167.014H136.477V196.938H166.402Z" fill="#F5F5F5"/>
<path d="M158.063 101.396H144.816C144.816 103.109 146.205 104.498 147.919 104.498H154.96C156.674 104.499 158.063 103.109 158.063 101.396Z" fill="#E6E6E6"/>
<path d="M158.063 134.007H144.816C144.816 135.72 146.205 137.109 147.919 137.109H154.96C156.674 137.109 158.063 135.72 158.063 134.007Z" fill="#E6E6E6"/>
<path d="M158.063 166.617H144.816C144.816 168.331 146.205 169.72 147.919 169.72H154.96C156.674 169.72 158.063 168.331 158.063 166.617Z" fill="#E6E6E6"/>
<path d="M185.037 200.9L185.037 98.8076H168.248L168.248 200.9H185.037Z" fill="#F5F5F5"/>
<path d="M257.984 198.392H267.305V121.531H257.984V198.392Z" fill="#F0F0F0"/>
<path d="M176.523 200.9H266.013V198.392H176.523V200.9Z" fill="#F0F0F0"/>
<path d="M257.984 121.531H175.232V198.392H257.984V121.531Z" fill="#FAFAFA"/>
<path d="M191.433 166.444H241.783C246.725 166.444 250.746 162.423 250.746 157.48C250.746 152.538 246.725 148.517 241.783 148.517H191.433C186.491 148.517 182.47 152.538 182.47 157.48C182.47 162.423 186.491 166.444 191.433 166.444ZM241.783 149.119C246.394 149.119 250.145 152.87 250.145 157.48C250.145 162.091 246.394 165.842 241.783 165.842H191.434C186.823 165.842 183.072 162.09 183.072 157.48C183.072 152.87 186.823 149.119 191.434 149.119H241.783Z" fill="#F0F0F0"/>
<path d="M191.433 188.745H241.783C246.725 188.745 250.746 184.724 250.746 179.781C250.746 174.839 246.725 170.817 241.783 170.817H191.433C186.491 170.817 182.47 174.839 182.47 179.781C182.47 184.724 186.491 188.745 191.433 188.745ZM241.783 171.42C246.394 171.42 250.145 175.171 250.145 179.781C250.145 184.392 246.394 188.142 241.783 188.142H191.434C186.823 188.142 183.072 184.391 183.072 179.781C183.072 175.17 186.823 171.42 191.434 171.42H241.783Z" fill="#F0F0F0"/>
<path d="M209.01 155.548H224.205C225.233 155.548 226.075 154.706 226.075 153.678C226.075 152.649 225.233 151.808 224.205 151.808H209.01C207.982 151.808 207.14 152.649 207.14 153.678C207.14 154.706 207.982 155.548 209.01 155.548Z" fill="#EBEBEB"/>
<path d="M191.433 144.145H241.783C246.725 144.145 250.746 140.124 250.746 135.182C250.746 130.239 246.725 126.218 241.783 126.218H191.433C186.491 126.218 182.47 130.239 182.47 135.182C182.47 140.124 186.491 144.145 191.433 144.145ZM241.783 126.82C246.394 126.82 250.145 130.571 250.145 135.181C250.145 139.792 246.394 143.542 241.783 143.542H191.434C186.823 143.542 183.072 139.791 183.072 135.181C183.072 130.57 186.823 126.82 191.434 126.82H241.783Z" fill="#F0F0F0"/>
<path d="M209.01 133.248H224.205C225.233 133.248 226.075 132.406 226.075 131.378C226.075 130.35 225.233 129.508 224.205 129.508H209.01C207.982 129.508 207.14 130.35 207.14 131.378C207.14 132.406 207.982 133.248 209.01 133.248Z" fill="#EBEBEB"/>
<path d="M209.01 177.848H224.205C225.233 177.848 226.075 177.006 226.075 175.977C226.075 174.949 225.233 174.107 224.205 174.107H209.01C207.982 174.107 207.14 174.949 207.14 175.977C207.14 177.006 207.982 177.848 209.01 177.848Z" fill="#EBEBEB"/>
<path d="M173.53 121.531L257.985 121.531V117.624L173.53 117.624V121.531Z" fill="#F0F0F0"/>
<path d="M269.13 117.625H257.984V121.532H269.13V117.625Z" fill="#E6E6E6"/>
<path d="M197.574 56.0994C199.455 57.0436 204.56 56.0295 202.859 59.4837C202.059 61.1071 200.757 62.8409 199.37 64.5515C197.469 66.8958 197.828 69.4389 200.073 70.3623C200.617 70.5862 201.062 70.8648 201.314 71.2249C202.348 72.7066 199.906 74.6945 198.707 76.1786C197.548 77.6124 197.024 79.1236 197.91 80.2286C198.888 81.4476 200.927 80.9998 202.545 81.3679C206.439 82.2532 202.435 87.6223 202.848 90.3813C203.131 92.2698 204.662 92.7962 206.744 93.0631C208.441 93.2809 210.706 93.4331 210.801 95.1731C210.882 96.6787 208.922 98.3855 208.407 99.9685C207.907 101.507 208.078 103.001 208.785 104.139C209.416 105.157 210.459 105.845 211.84 106.138C213.768 106.548 216.685 106.123 216.823 108.298C216.885 109.27 216.209 110.13 216.679 111.024C217.076 111.78 217.979 112.161 218.942 112.355C220.49 112.665 222.724 112.581 224.5 112.256C226.763 111.841 230.105 109.846 228.877 107.923C228.533 107.384 227.87 107.07 227.127 106.918C226.584 106.807 225.003 106.979 224.799 106.612C224.596 106.244 225.141 104.83 225.164 104.315C225.231 102.837 224.966 101.447 224.505 100.165C223.878 98.423 222.888 96.8584 221.583 95.5363C221.048 94.9939 220.19 94.5951 220.081 93.8043C219.976 93.0496 220.469 92.1391 221.019 91.3667C221.886 90.1482 223.227 88.9837 223.713 87.6787C224.477 85.6289 222.627 84.9785 220.916 84.5129C219.368 84.092 217.332 83.5502 217.857 81.6716C218.237 80.3144 219.947 79.2039 220.459 77.8812C221.146 76.1056 219.471 76.0363 218.269 75.4019C216.71 74.5791 216.315 73.1103 216.882 71.2482C217.815 68.1781 223.442 63.8459 220.561 61.8501C219.83 61.3433 219.152 61.1727 218.711 60.4113C218.241 59.5972 218.172 58.583 217.561 57.8437C216.591 56.6712 214.586 56.4743 213.538 55.3853C211.39 53.1526 216.032 49.1922 211.795 48.2498C210.827 48.0345 209.968 47.8308 209.32 47.2259C208.932 46.8645 208.618 45.1134 208.18 44.9914C206.237 44.4496 202.73 48.2222 201.628 49.3867C200.288 50.8022 195.326 54.9717 197.574 56.0994Z" fill="#E0E0E0"/>
<path d="M230.927 108.138C229.772 106.002 224.725 103.869 228.075 101.389C229.65 100.224 231.727 99.2574 233.866 98.3671C236.799 97.1468 237.843 94.3202 236.357 91.9802C235.996 91.4121 235.752 90.8513 235.724 90.3255C235.605 88.1659 238.823 87.6474 240.675 86.8719C242.465 86.1228 243.736 84.9012 243.545 83.2195C243.335 81.3636 241.296 80.5556 240.065 79.1739C237.103 75.8479 243.51 72.8373 244.622 69.7555C245.383 67.6462 244.314 66.1559 242.62 64.5901C241.239 63.3128 239.322 61.7495 240.17 59.9089C240.904 58.3167 243.547 57.7866 244.849 56.4853C246.113 55.2208 246.763 53.5845 246.748 51.9795C246.735 50.5457 246.184 49.1928 245.122 48.0345C243.641 46.4166 240.839 45.0404 241.882 42.7268C242.347 41.6936 243.405 41.2328 243.468 40.0248C243.522 39.0051 242.93 38.0529 242.184 37.2571C240.983 35.9773 238.967 34.676 237.227 33.9054C235.008 32.9237 230.991 32.8906 231.045 35.6227C231.061 36.3884 231.478 37.1221 232.052 37.7394C232.472 38.1903 233.959 38.9965 233.942 39.499C233.925 40.0021 232.687 41.1107 232.39 41.6237C231.54 43.0968 231.03 44.6834 230.75 46.2841C230.371 48.4566 230.407 50.6739 230.851 52.8385C231.033 53.7263 231.576 54.6674 231.249 55.5454C230.937 56.3835 230.015 57.0087 229.116 57.459C227.7 58.1683 225.892 58.5278 224.765 59.5622C222.995 61.1869 224.278 63.0017 225.539 64.5417C226.68 65.9344 228.186 67.7542 226.717 69.3518C225.656 70.5059 223.552 70.5807 222.392 71.617C220.835 73.0085 222.276 74.1202 222.998 75.5166C223.933 77.3278 223.495 79.0763 221.998 80.6317C219.532 83.1956 212.248 84.1362 213.721 87.9695C214.095 88.9426 214.602 89.539 214.583 90.5924C214.562 91.7189 214.08 92.7999 214.224 93.9368C214.452 95.7406 216.116 97.1873 216.457 98.9531C217.158 102.574 210.942 103.746 214.177 107.344C214.916 108.165 215.564 108.908 215.813 109.93C215.962 110.541 215.301 112.529 215.622 112.926C217.046 114.688 222.16 113.004 223.755 112.495C225.697 111.877 232.306 110.689 230.927 108.138Z" fill="#F5F5F5"/>
<path d="M243.861 103.315C243.861 103.315 243.25 117.624 219.824 117.624C196.398 117.624 195.787 103.315 195.787 103.315H243.861Z" fill="#F0F0F0"/>
<path d="M153.384 228.609C219.082 228.609 272.341 225.499 272.341 221.662C272.341 217.825 219.082 214.715 153.384 214.715C87.685 214.715 34.4258 217.825 34.4258 221.662C34.4258 225.499 87.685 228.609 153.384 228.609Z" fill="#F5F5F5"/>
<g opacity="0.2">
<path d="M221.32 216.524L182.244 144.302L143.167 216.524H221.32Z" fill="#6E53F1"/>
<path d="M221.32 94.3408L182.244 166.563L143.167 94.3408H221.32Z" fill="#6E53F1"/>
</g>
<path d="M189.401 136.98L183.684 147.548C183.065 148.692 181.423 148.692 180.804 147.548L175.085 136.98C172.83 132.811 175.849 127.745 180.589 127.745H183.898C188.638 127.745 191.657 132.81 189.401 136.98Z" fill="#6E53F1"/>
<path d="M182.867 198.293L200.605 205.592C202.263 206.275 201.775 208.744 199.981 208.744H164.506C162.713 208.744 162.224 206.275 163.883 205.592L181.62 198.293C182.02 198.129 182.468 198.129 182.867 198.293Z" fill="#6E53F1"/>
<path d="M182.244 184.397C183.5 184.397 184.518 183.379 184.518 182.123C184.518 180.867 183.5 179.849 182.244 179.849C180.988 179.849 179.97 180.867 179.97 182.123C179.97 183.379 180.988 184.397 182.244 184.397Z" fill="#6E53F1"/>
<path d="M182.244 159.524C182.891 159.524 183.416 158.999 183.416 158.351C183.416 157.704 182.891 157.179 182.244 157.179C181.596 157.179 181.071 157.704 181.071 158.351C181.071 158.999 181.596 159.524 182.244 159.524Z" fill="#6E53F1"/>
<path d="M182.244 171.019C182.98 171.019 183.577 170.422 183.577 169.686C183.577 168.949 182.98 168.353 182.244 168.353C181.508 168.353 180.911 168.949 180.911 169.686C180.911 170.422 181.508 171.019 182.244 171.019Z" fill="#6E53F1"/>
<path d="M221.122 212.965H143.366C141.408 212.965 139.807 214.567 139.807 216.525C139.807 218.482 141.409 220.084 143.366 220.084H221.122C223.079 220.084 224.681 218.482 224.681 216.525C224.681 214.567 223.079 212.965 221.122 212.965Z" fill="#6E53F1"/>
<path d="M221.122 90.7822H143.366C141.408 90.7822 139.807 92.3842 139.807 94.342C139.807 96.2997 141.409 97.9011 143.366 97.9011H221.122C223.079 97.9011 224.681 96.2991 224.681 94.342C224.681 92.3835 223.079 90.7822 221.122 90.7822Z" fill="#6E53F1"/>
<path d="M119.411 215.184L115.084 213.779L117.774 203.578L122.1 204.983L119.411 215.184Z" fill="#FF8B7B"/>
<path d="M115.02 213.205L119.881 214.783C120.057 214.841 120.151 215.006 120.106 215.182L119.093 219.105C118.988 219.511 118.491 219.767 118.087 219.628C116.404 219.049 115.628 218.688 113.491 217.994C112.176 217.567 107.841 216.447 106.026 215.858C104.249 215.282 104.844 213.49 105.667 213.577C109.354 213.968 112.657 213.793 114.189 213.229C114.465 213.128 114.762 213.121 115.02 213.205Z" fill="#263238"/>
<path opacity="0.2" d="M122.101 204.985L117.773 203.58L116.389 208.839L120.717 210.244L122.101 204.985Z" fill="black"/>
<path d="M133.921 101.707C133.921 101.707 126.159 137.629 124.339 150.544C122.345 164.688 114.856 207.157 114.856 207.157L122.886 209.375C122.886 209.375 134.014 168.187 137.265 154.437C140.792 139.515 150.176 101.707 150.176 101.707H133.921Z" fill="#6E53F1"/>
<path opacity="0.3" d="M143.519 113.486C140.457 120.444 138.936 135.598 140.126 142.537C142.298 133.61 144.911 122.996 146.93 114.83C146.25 112.462 145.12 109.848 143.519 113.486Z" fill="black"/>
<path d="M123.089 209.533L114.488 207.163L114.655 203.66L124.338 207.009L123.089 209.533Z" fill="#263238"/>
<path d="M113.242 213.461C113.642 213.59 114.11 213.652 114.445 213.68C114.487 213.684 114.527 213.663 114.547 213.626C114.567 213.59 114.564 213.545 114.539 213.511C114.432 213.37 113.478 212.135 112.883 212.172C112.745 212.18 112.631 212.252 112.555 212.381C112.429 212.593 112.412 212.791 112.504 212.969C112.621 213.195 112.907 213.352 113.242 213.461ZM114.216 213.444C113.392 213.347 112.83 213.138 112.693 212.872C112.637 212.761 112.651 212.636 112.738 212.488C112.779 212.42 112.829 212.386 112.896 212.383C113.216 212.364 113.818 212.962 114.216 213.444Z" fill="#263238"/>
<path d="M114.422 213.676C114.437 213.681 114.454 213.683 114.471 213.68C114.507 213.674 114.538 213.65 114.552 213.616C114.573 213.564 115.074 212.352 114.774 211.789C114.693 211.638 114.565 211.544 114.392 211.51C114.185 211.469 114.02 211.535 113.928 211.696C113.675 212.135 114.027 213.248 114.374 213.645C114.387 213.66 114.403 213.671 114.422 213.676ZM114.4 211.731C114.483 211.758 114.545 211.81 114.587 211.889C114.766 212.225 114.571 212.949 114.425 213.356C114.152 212.916 113.945 212.091 114.112 211.802C114.143 211.747 114.2 211.688 114.352 211.718C114.368 211.721 114.384 211.726 114.4 211.731Z" fill="#263238"/>
<path d="M142.18 67.6018C141.944 68.1503 141.752 68.5663 141.534 69.0351C141.319 69.4891 141.09 69.9321 140.863 70.375C140.406 71.2591 139.93 72.1297 139.434 72.9924C138.428 74.7091 137.344 76.3914 136.12 78.0086C134.905 79.6321 133.57 81.2027 132.037 82.6697C130.516 84.1422 128.774 85.5079 126.714 86.6037L126.56 86.6859C126.312 86.8178 126.04 86.9135 125.778 86.9712C124.3 87.2871 122.8 87.1669 121.562 86.8018C120.312 86.4405 119.266 85.8969 118.345 85.3085C116.513 84.1182 115.143 82.7083 113.901 81.2819C112.679 79.837 111.622 78.3381 110.672 76.7938C109.722 75.2349 108.883 73.6961 108.135 71.9831C107.696 70.9775 108.155 69.8057 109.161 69.3664C109.993 69.0026 110.94 69.2547 111.49 69.9235L111.55 69.9977C112.564 71.2309 113.662 72.5335 114.767 73.7243C115.876 74.9256 117.016 76.0748 118.193 77.0871C119.352 78.1062 120.585 78.9854 121.714 79.5413C122.276 79.8149 122.809 79.9873 123.227 80.0413C123.651 80.0922 123.915 80.0523 124.111 79.9664L123.175 80.3333C124.361 79.5646 125.519 78.5179 126.618 77.327C127.71 76.13 128.741 74.7919 129.715 73.385C130.683 71.9739 131.601 70.4928 132.47 68.9756C132.908 68.2185 133.331 67.4497 133.734 66.6742L134.327 65.5103C134.517 65.1391 134.729 64.7115 134.873 64.4059L134.911 64.325C135.853 62.334 138.23 61.4831 140.221 62.4248C142.165 63.3439 143.019 65.6404 142.18 67.6018Z" fill="#263238"/>
<path opacity="0.3" d="M132.15 75.9311C134.077 70.8142 138.169 70.7283 139.942 72.0842C139.813 72.3235 139.678 72.5627 139.543 72.802C138.586 74.4647 137.537 76.0844 136.384 77.6551C135.23 79.2196 133.966 80.7473 132.537 82.183C132.095 82.6186 131.641 83.0481 131.169 83.4653C131.071 81.0541 131.255 78.3238 132.15 75.9311Z" fill="black"/>
<path d="M107.968 72.3008L103.982 72.4425L104.979 68.1846C104.979 68.1846 107.351 68.2815 109.045 68.7754C110.071 69.0748 110.49 70.308 109.906 71.2032L109.904 71.2068C109.476 71.8646 108.753 72.2726 107.968 72.3008Z" fill="#FF8B7B"/>
<path d="M110.215 68.6932C109.886 68.4306 109.455 68.1815 108.899 68.0146C108.563 69.7552 106.467 72.699 106.467 72.699H108.128C108.563 72.699 108.976 72.5057 109.255 72.172L110.418 70.7786C110.944 70.1479 110.857 69.2055 110.215 68.6932Z" fill="#6E53F1"/>
<path d="M100.937 70.4838L102.059 67.4756L104.979 68.1842L103.982 72.4422L100.937 70.4838Z" fill="#FF8B7B"/>
<path d="M151.083 217.174H146.535L146.378 206.641H150.926L151.083 217.174Z" fill="#FF8B7B"/>
<path d="M146.296 216.646H151.406C151.592 216.646 151.733 216.776 151.744 216.957L151.992 221C152.017 221.42 151.624 221.816 151.195 221.809C149.416 221.778 148.566 221.674 146.319 221.674C144.937 221.674 140.315 221.817 138.406 221.817C136.539 221.817 136.551 219.93 137.36 219.758C140.988 218.992 144.229 217.934 145.513 216.926C145.744 216.745 146.024 216.646 146.296 216.646Z" fill="#263238"/>
<path opacity="0.2" d="M150.927 206.644H146.376L146.46 212.073H151.011L150.927 206.644Z" fill="black"/>
<path d="M142.794 101.707C142.794 101.707 141.057 141.225 141.795 154.248C142.603 168.509 144.299 210.762 144.299 210.762H152.63C152.63 210.762 154.731 169.66 155.232 155.541C155.777 140.217 158.247 101.707 158.247 101.707H142.794Z" fill="#6E53F1"/>
<path d="M152.965 210.762H143.963L143.277 207.414L153.213 207.908L152.965 210.762Z" fill="#263238"/>
<path d="M144.684 217.44C145.104 217.44 145.569 217.353 145.896 217.277C145.937 217.268 145.969 217.236 145.976 217.195C145.984 217.153 145.967 217.112 145.933 217.088C145.787 216.987 144.5 216.107 143.944 216.325C143.815 216.375 143.73 216.479 143.697 216.625C143.643 216.865 143.688 217.059 143.83 217.2C144.011 217.379 144.332 217.44 144.684 217.44ZM145.605 217.123C144.791 217.285 144.192 217.26 143.98 217.049C143.891 216.962 143.867 216.838 143.904 216.671C143.921 216.593 143.959 216.546 144.021 216.522C144.32 216.404 145.077 216.788 145.605 217.123Z" fill="#263238"/>
<path d="M145.872 217.28C145.889 217.28 145.906 217.276 145.921 217.268C145.953 217.251 145.975 217.219 145.978 217.183C145.982 217.128 146.085 215.819 145.626 215.377C145.502 215.258 145.351 215.208 145.177 215.229C144.967 215.254 144.831 215.368 144.793 215.55C144.688 216.046 145.366 216.996 145.819 217.266C145.835 217.275 145.853 217.28 145.872 217.28ZM145.25 215.436C145.339 215.436 145.414 215.467 145.478 215.529C145.752 215.793 145.789 216.542 145.777 216.974C145.381 216.64 144.93 215.919 144.999 215.594C145.012 215.532 145.047 215.458 145.201 215.439C145.218 215.437 145.235 215.436 145.25 215.436Z" fill="#263238"/>
<path d="M160.528 65.0263C160.815 63.4176 159.715 61.8924 158.098 61.6555L158.045 61.6476C156.579 61.4328 154.738 61.2119 152.934 61.126C149.83 60.9788 145.333 60.8806 142.596 61.126C141.007 61.2733 139.455 61.5371 138.216 61.7764C138.2 61.7795 138.184 61.7825 138.168 61.7862C136.589 62.1059 135.317 63.2734 134.859 64.8183C133.376 69.8205 131.607 80.0291 133.921 101.706H158.248C158.419 99.534 157.935 92.4667 158.291 83.4655C158.561 76.6074 159.781 69.2167 160.528 65.0263Z" fill="#263238"/>
<path opacity="0.3" d="M160.293 66.3659C159.788 69.2753 159.166 73.2284 158.737 77.3894C158.737 77.3894 156.518 73.0345 156.114 69.3085C155.71 65.5831 158.883 65.3211 160.293 66.3659Z" fill="black"/>
<g opacity="0.2">
<path d="M143.977 66.9401C143.894 66.9401 143.813 66.8947 143.773 66.8162C143.714 66.7033 143.758 66.564 143.871 66.5057L151.454 62.5736C151.568 62.5153 151.706 62.5595 151.765 62.6717C151.823 62.7846 151.779 62.9239 151.666 62.9822L144.083 66.9143C144.049 66.9321 144.013 66.9401 143.977 66.9401Z" fill="white"/>
<path d="M147.451 67.3001C147.392 67.3001 147.334 67.278 147.288 67.2332L143.134 63.0992C143.044 63.0096 143.044 62.8642 143.133 62.774C143.223 62.6838 143.368 62.6832 143.458 62.7734L147.613 66.9074C147.702 66.997 147.704 67.1424 147.613 67.2326C147.569 67.2774 147.51 67.3001 147.451 67.3001Z" fill="white"/>
<path d="M152.931 61.126C149.826 60.9788 145.329 60.8806 142.599 61.126C142.544 61.1322 142.482 61.1383 142.427 61.1444C142.329 61.5494 142.237 62.304 142.691 63.028C143.268 63.9483 144.476 64.4637 146.292 64.5618C146.526 64.5741 146.753 64.5803 146.973 64.5803C151.912 64.5803 153.778 61.5985 153.857 61.4696L154.029 61.1935C153.661 61.169 153.299 61.1445 152.931 61.126Z" fill="white"/>
</g>
<path d="M143.087 61.0903C146.093 60.3786 146.621 58.5195 146.419 56.4765C146.376 55.9795 146.29 55.4641 146.179 54.9549L149.946 51.8259L152.714 49.5312C151.947 52.8627 151.082 58.9306 153.333 61.1516C153.333 61.1516 151.469 64.2242 146.324 63.9463C141.978 63.7113 143.087 61.0903 143.087 61.0903Z" fill="#FF8B7B"/>
<path opacity="0.2" d="M146.179 54.9552C146.29 55.4644 146.376 55.9798 146.418 56.4768C147.823 56.1945 149.701 54.6975 149.897 53.2618C149.971 52.7219 149.983 52.2004 149.946 51.8262L146.179 54.9552Z" fill="black"/>
<path d="M144.164 38.9893C142.119 40.1906 142.445 43.2858 141.889 45.4823C143.193 45.6099 145.242 43.2981 145.242 43.2981L146.466 39.7819L144.164 38.9893Z" fill="#263238"/>
<path d="M155.049 45.161C153.742 49.495 153.198 52.0897 150.435 53.8959C146.279 56.6133 141.299 53.5143 141.278 48.9238C141.26 44.7923 143.401 38.3992 148.138 37.517C152.805 36.6476 156.356 40.827 155.049 45.161Z" fill="#FF8B7B"/>
<path d="M150.965 48.8371C154.029 45.278 150.197 43.5227 153.333 41.0513C149.805 41.2176 143.997 40.9661 142.96 38.5463C141.923 36.1259 145.114 32.8539 147.769 32.5471C150.858 32.19 150.172 35.9897 150.172 35.9897C150.172 35.9897 161.915 35.2571 158.187 40.2507C161.012 40.0801 160.234 44.6479 155.323 48.499C154.092 48.942 150.965 48.8371 150.965 48.8371Z" fill="#263238"/>
<path d="M157.483 40.3442C157.483 40.3442 159.901 39.6282 159.817 37.7109C160.692 38.3122 160.781 40.1399 157.483 40.3442Z" fill="#263238"/>
<path d="M155.764 49.6824C154.984 50.6413 153.901 51.2138 152.975 51.3819C151.583 51.6353 151.255 50.3462 151.95 49.0903C152.576 47.9602 154.055 46.4662 155.304 46.7822C156.535 47.0945 156.657 48.586 155.764 49.6824Z" fill="#FF8B7B"/>
<path d="M148.057 45.049C147.973 45.4061 147.714 45.6577 147.479 45.611C147.244 45.5638 147.121 45.2362 147.206 44.8791C147.29 44.522 147.549 44.2705 147.784 44.3171C148.019 44.3643 148.141 44.692 148.057 45.049Z" fill="#263238"/>
<path d="M143.991 44.2365C143.907 44.5936 143.647 44.8452 143.412 44.7985C143.177 44.7513 143.054 44.4237 143.139 44.0666C143.223 43.7095 143.483 43.458 143.718 43.5046C143.953 43.5518 144.075 43.8795 143.991 44.2365Z" fill="#263238"/>
<path d="M145.242 44.6729C145.242 44.6729 143.937 46.5705 142.802 47.3853C143.299 48.1025 144.445 48.0491 144.445 48.0491L145.242 44.6729Z" fill="#FF5652"/>
<path d="M145.687 49.3044C147.128 49.4179 148.004 48.5835 148.044 48.5442C148.087 48.5025 148.088 48.4344 148.046 48.392C148.005 48.3491 147.936 48.3485 147.894 48.3902C147.884 48.3994 146.887 49.3516 145.305 49.0338C145.246 49.0215 145.19 49.0596 145.179 49.1185C145.167 49.1768 145.205 49.2338 145.264 49.2449C145.41 49.2749 145.551 49.2939 145.687 49.3044Z" fill="#263238"/>
<path d="M149.627 44.0597C149.662 44.0628 149.698 44.0567 149.733 44.0407C149.841 43.991 149.89 43.8634 149.84 43.7554C149.351 42.6842 148.361 42.5461 148.32 42.5412C148.21 42.5161 148.094 42.6093 148.078 42.7278C148.063 42.8456 148.147 42.9535 148.264 42.9689C148.305 42.975 149.064 43.0934 149.448 43.9352C149.482 44.0082 149.552 44.0536 149.627 44.0597Z" fill="#263238"/>
<path d="M142.983 41.794C143.049 41.8149 143.123 41.8045 143.182 41.7591C143.956 41.1578 144.723 41.3897 144.731 41.3922C144.844 41.4284 144.966 41.3652 145.001 41.2517C145.037 41.1388 144.974 41.0179 144.862 40.9817L144.861 40.9811C144.82 40.9682 143.868 40.6799 142.918 41.4186C142.824 41.4916 142.807 41.6272 142.88 41.721C142.907 41.7566 142.943 41.7812 142.983 41.794Z" fill="#263238"/>
<path d="M160.764 63.2757L161.277 63.9733L161.736 64.6255C162.039 65.0587 162.317 65.4961 162.603 65.9323C163.165 66.8048 163.689 67.695 164.202 68.5896C165.216 70.3848 166.15 72.2211 166.974 74.1126C167.403 75.0495 167.775 76.0152 168.167 76.9692C168.511 77.9466 168.888 78.9068 169.191 79.9013C169.861 81.8616 170.343 83.8954 170.786 85.9305L170.836 86.1618C171.025 87.0251 170.839 87.8908 170.396 88.5798C169.625 89.7707 168.684 90.891 167.605 91.8886C166.535 92.8929 165.271 93.7261 163.937 94.3593C162.595 94.9863 161.158 95.3765 159.727 95.5256C159.01 95.6005 158.294 95.6091 157.583 95.5649C157.227 95.5379 156.872 95.4962 156.516 95.4403C156.337 95.4109 156.159 95.3747 155.976 95.3348L155.358 95.1851C155.206 95.1483 155.113 94.9949 155.15 94.8434L155.998 91.2867C156.005 91.2585 156.16 91.2493 156.256 91.226L156.595 91.1573C156.824 91.1106 157.056 91.0548 157.285 90.9904C157.744 90.8695 158.191 90.7075 158.619 90.5296C159.475 90.1652 160.259 89.7154 160.942 89.159C162.326 88.0749 163.356 86.6312 164.172 84.9581L163.782 87.6073C163.256 85.8729 162.7 84.1488 162.02 82.4549C161.358 80.7584 160.615 79.0859 159.808 77.4404C159 75.7968 158.146 74.1697 157.221 72.5886C156.765 71.7941 156.284 71.0161 155.808 70.2418L155.078 69.1037L154.715 68.5497L154.381 68.0583L154.258 67.8779C153.02 66.0581 153.492 63.5794 155.312 62.3413C157.089 61.1314 159.499 61.5597 160.764 63.2757Z" fill="#263238"/>
<path d="M152.638 94.8073L151.313 96.97L157.042 96.7387C157.042 96.7387 158.542 92.8863 156.491 92.2783L155.7 92.498C154.424 92.8526 153.33 93.6778 152.638 94.8073Z" fill="#FF8B7B"/>
<path d="M154.991 91.7831C154.641 92.0181 154.274 92.3531 153.946 92.8329C155.504 93.6783 157.679 96.565 157.679 96.565L158.18 94.9815C158.311 94.5667 158.251 94.1146 158.017 93.7477L157.039 92.2181C156.597 91.5267 155.672 91.3254 154.991 91.7831Z" fill="#6E53F1"/>
<path d="M151.817 100.295L156.538 99.8763L157.043 96.7393L151.313 96.9712L151.817 100.295Z" fill="#FF8B7B"/>
<path d="M93.9062 25.391L93.5933 24.8633C94.4909 24.3314 95.4351 23.8626 96.4008 23.4688L96.6321 24.0369C95.6946 24.4185 94.7774 24.8744 93.9062 25.391Z" fill="#6E53F1"/>
<path d="M84.947 36.1967L84.3696 35.9881C85.8213 31.9731 88.422 28.5134 91.891 25.9844L92.253 26.4801C88.8828 28.9367 86.3563 32.2964 84.947 36.1967Z" fill="#6E53F1"/>
<path d="M104.422 62.0998C114.851 62.0998 123.306 53.6454 123.306 43.2164C123.306 32.7874 114.851 24.333 104.422 24.333C93.9935 24.333 85.5391 32.7874 85.5391 43.2164C85.5391 53.6454 93.9935 62.0998 104.422 62.0998Z" fill="#6E53F1"/>
<path opacity="0.6" d="M120.198 43.2146C120.198 51.9317 113.138 58.9916 104.421 58.9916C100.292 58.9916 96.5318 57.4057 93.7206 54.8067C90.5977 51.9249 88.6436 47.7965 88.6436 43.2146C88.6436 34.5048 95.7109 27.4375 104.421 27.4375C109.037 27.4375 113.187 29.4205 116.077 32.5783C116.084 32.5783 116.098 32.5857 116.105 32.6065C118.647 35.411 120.198 39.1284 120.198 43.2146Z" fill="white"/>
<path d="M120.198 43.215C120.198 51.9321 113.138 58.9921 104.421 58.9921C100.292 58.9921 96.5318 57.4061 93.7206 54.8071C91.1217 51.9959 89.5283 48.2288 89.5283 44.1003C89.5283 35.3906 96.5956 28.3232 105.305 28.3232C109.476 28.3232 113.251 29.9307 116.076 32.5793C116.083 32.5793 116.097 32.5867 116.104 32.6076C118.647 35.4114 120.198 39.1288 120.198 43.215Z" fill="white"/>
<path d="M104.422 44.1366C104.187 44.1366 103.951 44.047 103.771 43.8672L96.0778 36.1735C95.7182 35.8146 95.7182 35.2317 96.0778 34.8722C96.4373 34.5127 97.0195 34.5127 97.3791 34.8722L104.422 41.915L108.49 37.8466C108.85 37.4871 109.432 37.4871 109.792 37.8466C110.151 38.2055 110.151 38.789 109.792 39.1479L105.073 43.8666C104.894 44.0464 104.658 44.1366 104.422 44.1366Z" fill="#263238"/>
</svg>
