<svg width="27" height="27" viewBox="0 0 27 27" fill="none" xmlns="http://www.w3.org/2000/svg">
<path fill-rule="evenodd" clip-rule="evenodd" d="M8.14532 17.6069C6.99605 17.6069 5.89385 18.0635 5.08119 18.8761C4.26853 19.6888 3.81198 20.791 3.81198 21.9402C3.81198 22.3233 3.96417 22.6907 4.23505 22.9616C4.50594 23.2325 4.87334 23.3847 5.25643 23.3847H22.5898C22.9729 23.3847 23.3403 23.2325 23.6111 22.9616C23.882 22.6907 24.0342 22.3233 24.0342 21.9402C24.0342 20.791 23.5777 19.6888 22.765 18.8761C21.9523 18.0635 20.8501 17.6069 19.7009 17.6069H8.14532ZM3.03844 16.8334C4.39286 15.4789 6.22987 14.718 8.14532 14.718H19.7009C21.6163 14.718 23.4533 15.4789 24.8078 16.8334C26.1622 18.1878 26.9231 20.0248 26.9231 21.9402C26.9231 23.0895 26.4665 24.1917 25.6539 25.0044C24.8412 25.817 23.739 26.2736 22.5898 26.2736H5.25643C4.10716 26.2736 3.00496 25.817 2.1923 25.0044C1.37964 24.1917 0.923096 23.0895 0.923096 21.9402C0.923096 20.0248 1.68401 18.1878 3.03844 16.8334Z" fill="#999999"/>
<path fill-rule="evenodd" clip-rule="evenodd" d="M13.9233 3.16257C12.3278 3.16257 11.0344 4.45597 11.0344 6.05146C11.0344 7.64695 12.3278 8.94035 13.9233 8.94035C15.5188 8.94035 16.8122 7.64695 16.8122 6.05146C16.8122 4.45597 15.5188 3.16257 13.9233 3.16257ZM8.14551 6.05146C8.14551 2.86048 10.7323 0.273682 13.9233 0.273682C17.1143 0.273682 19.7011 2.86048 19.7011 6.05146C19.7011 9.24244 17.1143 11.8292 13.9233 11.8292C10.7323 11.8292 8.14551 9.24244 8.14551 6.05146Z" fill="#999999"/>
</svg>
