<svg width="26" height="27" viewBox="0 0 26 27" fill="none" xmlns="http://www.w3.org/2000/svg">
<path d="M22.9705 6.92891L14.5709 1.7132C14.1114 1.42598 13.5805 1.27368 13.0386 1.27368C12.4968 1.27368 11.9658 1.42598 11.5064 1.7132L3.10803 6.95875C2.63026 7.25964 2.25108 7.69386 2.01728 8.2078C1.78349 8.72173 1.70532 9.29289 1.79242 9.85074L3.95915 22.8602C4.07317 23.5414 4.42739 24.1594 4.95765 24.602C5.48791 25.0447 6.15915 25.2829 6.84984 25.2734H19.2819C19.9727 25.2829 20.6442 25.0448 21.1746 24.6022C21.7051 24.1595 22.0596 23.5415 22.1739 22.8602L24.3406 9.85074C24.4281 9.28263 24.3443 8.70132 24.0997 8.1811C23.8552 7.66088 23.4612 7.22537 22.9679 6.93021" stroke="#999999" stroke-width="2.5" stroke-linecap="round" stroke-linejoin="round"/>
<rect x="12.0139" y="15.573" width="2.23409" height="8.43557" rx="1.11705" fill="#999999"/>
</svg>
