<svg width="24" height="25" viewBox="0 0 24 25" fill="none" xmlns="http://www.w3.org/2000/svg">
<path d="M21.8697 13.0656C21.6773 12.8466 21.5712 12.5651 21.5712 12.2737C21.5712 11.9822 21.6773 11.7007 21.8697 11.4818L23.4054 9.75402C23.5747 9.56525 23.6798 9.32773 23.7056 9.07553C23.7315 8.82332 23.6768 8.56941 23.5494 8.35021L21.1498 4.19878C21.0237 3.97984 20.8317 3.80629 20.6011 3.70287C20.3706 3.59946 20.1133 3.57145 19.8659 3.62286L17.6102 4.0788C17.3232 4.1381 17.0244 4.0903 16.7702 3.94441C16.516 3.79853 16.324 3.56465 16.2304 3.2869L15.4985 1.0912C15.418 0.85289 15.2647 0.645901 15.0601 0.499493C14.8556 0.353086 14.6102 0.274664 14.3587 0.275313H9.55933C9.29769 0.261657 9.03876 0.334017 8.82211 0.481342C8.60545 0.628667 8.44298 0.842859 8.35949 1.0912L7.68758 3.2869C7.594 3.56465 7.40199 3.79853 7.14779 3.94441C6.8936 4.0903 6.59479 4.1381 6.30777 4.0788L3.99209 3.62286C3.75758 3.58972 3.51851 3.62672 3.305 3.72921C3.09148 3.8317 2.91308 3.99508 2.79225 4.19878L0.392577 8.35021C0.261987 8.56697 0.203269 8.81945 0.224819 9.07159C0.246368 9.32372 0.347082 9.56258 0.51256 9.75402L2.03635 11.4818C2.22871 11.7007 2.33479 11.9822 2.33479 12.2737C2.33479 12.5651 2.22871 12.8466 2.03635 13.0656L0.51256 14.7933C0.347082 14.9848 0.246368 15.2236 0.224819 15.4758C0.203269 15.7279 0.261987 15.9804 0.392577 16.1971L2.79225 20.3486C2.91835 20.5675 3.11035 20.7411 3.34088 20.8445C3.57141 20.9479 3.8287 20.9759 4.07608 20.9245L6.33177 20.4686C6.61879 20.4093 6.91759 20.4571 7.17179 20.6029C7.42599 20.7488 7.618 20.9827 7.71158 21.2605L8.44348 23.4562C8.52697 23.7045 8.68944 23.9187 8.9061 24.066C9.12275 24.2133 9.38167 24.2857 9.64332 24.2721H14.4427C14.6942 24.2727 14.9396 24.1943 15.1441 24.0479C15.3487 23.9015 15.502 23.6945 15.5825 23.4562L16.3144 21.2605C16.408 20.9827 16.6 20.7488 16.8542 20.6029C17.1084 20.4571 17.4072 20.4093 17.6942 20.4686L19.9499 20.9245C20.1973 20.9759 20.4546 20.9479 20.6851 20.8445C20.9156 20.7411 21.1076 20.5675 21.2337 20.3486L23.6334 16.1971C23.7608 15.978 23.8155 15.724 23.7896 15.4718C23.7638 15.2196 23.6587 14.9821 23.4894 14.7933L21.8697 13.0656ZM20.0819 14.6734L21.0418 15.7532L19.506 18.4168L18.0902 18.1289C17.226 17.9522 16.3271 18.099 15.564 18.5414C14.801 18.9837 14.2269 19.6909 13.9507 20.5286L13.4948 21.8724H10.4232L9.99127 20.5046C9.71513 19.6669 9.14104 18.9598 8.37798 18.5174C7.61491 18.075 6.71598 17.9282 5.85183 18.1049L4.43603 18.3929L2.87624 15.7412L3.83611 14.6614C4.42637 14.0014 4.7527 13.1471 4.7527 12.2617C4.7527 11.3763 4.42637 10.5219 3.83611 9.86201L2.87624 8.78216L4.41203 6.14252L5.82784 6.43048C6.69198 6.60712 7.59091 6.46033 8.35398 6.01797C9.11705 5.57561 9.69114 4.86848 9.96727 4.0308L10.4232 2.67499H13.4948L13.9507 4.0428C14.2269 4.88048 14.801 5.58761 15.564 6.02997C16.3271 6.47233 17.226 6.61912 18.0902 6.44247L19.506 6.15451L21.0418 8.81815L20.0819 9.89801C19.4983 10.5564 19.176 11.4058 19.176 12.2857C19.176 13.1655 19.4983 14.0149 20.0819 14.6734ZM11.959 7.47433C11.0098 7.47433 10.0819 7.75581 9.29263 8.28317C8.50338 8.81053 7.88824 9.56008 7.52498 10.4371C7.16173 11.314 7.06669 12.279 7.25187 13.21C7.43706 14.141 7.89415 14.9961 8.56535 15.6673C9.23655 16.3385 10.0917 16.7956 11.0227 16.9808C11.9537 17.166 12.9187 17.071 13.7956 16.7077C14.6726 16.3444 15.4222 15.7293 15.9495 14.9401C16.4769 14.1508 16.7584 13.2229 16.7584 12.2737C16.7584 11.0008 16.2527 9.78008 15.3527 8.88003C14.4526 7.97998 13.2319 7.47433 11.959 7.47433ZM11.959 14.6734C11.4844 14.6734 11.0204 14.5326 10.6258 14.2689C10.2312 14.0053 9.92362 13.6305 9.74199 13.192C9.56037 12.7535 9.51285 12.271 9.60544 11.8055C9.69803 11.34 9.92658 10.9125 10.2622 10.5769C10.5978 10.2413 11.0254 10.0127 11.4908 9.92012C11.9563 9.82753 12.4388 9.87505 12.8773 10.0567C13.3158 10.2383 13.6906 10.5459 13.9543 10.9405C14.2179 11.3351 14.3587 11.7991 14.3587 12.2737C14.3587 12.9101 14.1059 13.5205 13.6558 13.9705C13.2058 14.4205 12.5954 14.6734 11.959 14.6734Z" fill="#999999"/>
</svg>
