<svg width="22" height="22" viewBox="0 0 22 22" fill="none" xmlns="http://www.w3.org/2000/svg">
<g id="vuesax/outline/setting-4">
<g id="setting-4">
<path id="Vector" d="M20.1667 6.646H14.6667C14.2909 6.646 13.9792 6.33433 13.9792 5.9585C13.9792 5.58266 14.2909 5.271 14.6667 5.271H20.1667C20.5426 5.271 20.8542 5.58266 20.8542 5.9585C20.8542 6.33433 20.5426 6.646 20.1667 6.646Z" fill="#808080"/>
<path id="Vector_2" d="M5.49992 6.646H1.83325C1.45742 6.646 1.14575 6.33433 1.14575 5.9585C1.14575 5.58266 1.45742 5.271 1.83325 5.271H5.49992C5.87575 5.271 6.18742 5.58266 6.18742 5.9585C6.18742 6.33433 5.87575 6.646 5.49992 6.646Z" fill="#808080"/>
<path id="Vector_3" d="M9.16659 9.85417C7.02159 9.85417 5.27075 8.10333 5.27075 5.95833C5.27075 3.81333 7.02159 2.0625 9.16659 2.0625C11.3116 2.0625 13.0624 3.81333 13.0624 5.95833C13.0624 8.10333 11.3116 9.85417 9.16659 9.85417ZM9.16659 3.4375C7.77325 3.4375 6.64575 4.565 6.64575 5.95833C6.64575 7.35167 7.77325 8.47917 9.16659 8.47917C10.5599 8.47917 11.6874 7.35167 11.6874 5.95833C11.6874 4.565 10.5599 3.4375 9.16659 3.4375Z" fill="#808080"/>
<path id="Vector_4" d="M20.1667 16.729H16.5C16.1242 16.729 15.8125 16.4173 15.8125 16.0415C15.8125 15.6657 16.1242 15.354 16.5 15.354H20.1667C20.5425 15.354 20.8542 15.6657 20.8542 16.0415C20.8542 16.4173 20.5425 16.729 20.1667 16.729Z" fill="#808080"/>
<path id="Vector_5" d="M7.33325 16.729H1.83325C1.45742 16.729 1.14575 16.4173 1.14575 16.0415C1.14575 15.6657 1.45742 15.354 1.83325 15.354H7.33325C7.70908 15.354 8.02075 15.6657 8.02075 16.0415C8.02075 16.4173 7.70908 16.729 7.33325 16.729Z" fill="#808080"/>
<path id="Vector_6" d="M12.8333 19.9377C10.6883 19.9377 8.9375 18.1868 8.9375 16.0418C8.9375 13.8968 10.6883 12.146 12.8333 12.146C14.9783 12.146 16.7292 13.8968 16.7292 16.0418C16.7292 18.1868 14.9783 19.9377 12.8333 19.9377ZM12.8333 13.521C11.44 13.521 10.3125 14.6485 10.3125 16.0418C10.3125 17.4352 11.44 18.5627 12.8333 18.5627C14.2267 18.5627 15.3542 17.4352 15.3542 16.0418C15.3542 14.6485 14.2267 13.521 12.8333 13.521Z" fill="#808080"/>
</g>
</g>
</svg>
