<svg width="14" height="21" viewBox="0 0 14 21" fill="none" xmlns="http://www.w3.org/2000/svg">
<path d="M3.25024 4.66821C3.25024 3.67365 3.64533 2.71982 4.34859 2.01656C5.05186 1.3133 6.00568 0.918213 7.00024 0.918213C7.99481 0.918213 8.94863 1.3133 9.6519 2.01656C10.3552 2.71982 10.7502 3.67365 10.7502 4.66821V10.9182C10.7502 11.9128 10.3552 12.8666 9.6519 13.5699C8.94863 14.2731 7.99481 14.6682 7.00024 14.6682C6.00568 14.6682 5.05186 14.2731 4.34859 13.5699C3.64533 12.8666 3.25024 11.9128 3.25024 10.9182V4.66821Z" fill="#6E53F1"/>
<path d="M1.37524 9.04321C1.541 9.04321 1.69998 9.10906 1.81719 9.22627C1.9344 9.34348 2.00024 9.50245 2.00024 9.66821V10.9182C2.00024 12.2443 2.52703 13.5161 3.46471 14.4537C4.40239 15.3914 5.67416 15.9182 7.00024 15.9182C8.32633 15.9182 9.5981 15.3914 10.5358 14.4537C11.4735 13.5161 12.0002 12.2443 12.0002 10.9182V9.66821C12.0002 9.50245 12.0661 9.34348 12.1833 9.22627C12.3005 9.10906 12.4595 9.04321 12.6252 9.04321C12.791 9.04321 12.95 9.10906 13.0672 9.22627C13.1844 9.34348 13.2502 9.50245 13.2502 9.66821V10.9182C13.2503 12.4676 12.6748 13.9618 11.6354 15.1109C10.596 16.26 9.16689 16.982 7.62524 17.137V19.6682H11.3752C11.541 19.6682 11.7 19.7341 11.8172 19.8513C11.9344 19.9685 12.0002 20.1275 12.0002 20.2932C12.0002 20.459 11.9344 20.6179 11.8172 20.7352C11.7 20.8524 11.541 20.9182 11.3752 20.9182H2.62524C2.45948 20.9182 2.30051 20.8524 2.1833 20.7352C2.06609 20.6179 2.00024 20.459 2.00024 20.2932C2.00024 20.1275 2.06609 19.9685 2.1833 19.8513C2.30051 19.7341 2.45948 19.6682 2.62524 19.6682H6.37524V17.137C4.8336 16.982 3.40446 16.26 2.36509 15.1109C1.32572 13.9618 0.750225 12.4676 0.750244 10.9182V9.66821C0.750244 9.50245 0.816092 9.34348 0.933303 9.22627C1.05051 9.10906 1.20948 9.04321 1.37524 9.04321Z" fill="#6E53F1"/>
</svg>
