<svg width="261" height="234" viewBox="0 0 261 234" fill="none" xmlns="http://www.w3.org/2000/svg">
<path d="M166.401 166.405C167.468 167.677 158.04 184.687 159.175 185.9L219.51 195.188C221.126 196.001 223.085 195.756 224.423 194.54C224.432 194.533 224.44 194.525 224.448 194.518C226.922 192.256 228.039 188.389 226.551 185.385C225.821 183.911 224.57 182.767 223.667 181.393C222.765 180.018 222.243 178.154 223.114 176.758C223.837 175.599 225.286 175.133 226.636 174.932C228.484 174.656 230.34 174.712 232.198 174.925C232.41 174.948 232.62 174.973 232.831 175.001L232.832 175.002C237.998 175.682 243.184 177.406 248.276 176.393C250.854 175.881 253.252 174.685 255.461 173.262C258.005 171.623 260.53 169.331 260.828 166.331L260.828 166.33C260.832 166.295 260.835 166.261 260.838 166.226C260.84 166.192 260.843 166.158 260.844 166.123C260.966 164.228 260.154 162.37 259.039 160.828C256.353 157.107 251.998 154.91 247.567 153.719C243.135 152.53 238.522 152.214 233.996 151.458C232.334 151.18 230.46 150.611 229.227 149.567L229.226 149.566C228.497 148.948 227.992 148.164 227.884 147.174C227.722 145.68 228.588 144.303 229 142.849C229.015 142.8 229.027 142.751 229.039 142.703C229.069 142.59 229.095 142.477 229.118 142.364C229.741 139.243 227.492 136.216 224.845 134.45C224.228 134.038 223.583 133.676 222.916 133.361L222.915 133.36C222.841 133.325 222.768 133.292 222.694 133.259L222.693 133.258C222.632 133.231 222.57 133.204 222.508 133.176C220.789 132.424 218.936 131.984 217.057 131.851C217.046 131.85 217.036 131.849 217.025 131.849C216.991 131.846 216.957 131.843 216.922 131.843C214.831 131.708 212.71 131.951 210.708 132.559C209.298 132.987 207.946 133.595 206.705 134.381C206.637 134.424 206.57 134.467 206.504 134.511C205.82 134.957 205.171 135.459 204.566 136.014L192.935 145.277L192.932 145.281L190.146 147.497L189.569 147.955L182.357 153.699L174.47 159.979L166.401 166.405Z" fill="#C8E69A"/>
<path d="M188.501 160.852C206.303 153.828 225.931 156.497 243.897 161.394C249.506 162.923 255.052 164.668 260.593 166.422C260.879 166.513 260.969 166.055 260.685 165.965C242.091 160.079 222.691 154.136 202.962 156.698C197.964 157.347 193.046 158.558 188.355 160.408C188.076 160.518 188.221 160.962 188.501 160.852Z" fill="white"/>
<path d="M232.549 175.407C232.724 175.65 233.116 175.397 232.94 175.153C227.369 167.403 220.055 161.018 211.623 156.547C211.357 156.406 211.147 156.823 211.413 156.964C219.773 161.397 227.026 167.724 232.549 175.407Z" fill="white"/>
<path d="M221.186 133.106C214.181 139.404 208.7 147.271 205.217 156.023C205.107 156.3 205.523 156.513 205.634 156.233C209.103 147.515 214.554 139.693 221.532 133.419C221.755 133.218 221.407 132.907 221.186 133.106Z" fill="#E7F4E3"/>
<path d="M183.379 173.873C183.379 173.873 211.284 203.963 224.448 194.517L209.696 172.128L183.379 173.873Z" fill="#C8E69A"/>
<g opacity="0.4">
<path d="M217.678 125.538C217.726 125.509 217.772 125.481 217.819 125.455C218.963 124.78 220.241 124.121 221.662 123.475C226.417 121.313 231.338 120.337 235.835 120.197C235.884 120.194 235.931 120.193 235.979 120.193C244.431 119.959 251.364 122.669 252.863 125.964C252.915 126.08 252.962 126.203 253.002 126.333L253.039 126.454C254.134 130.415 249.905 140.033 241.301 146.793L241.138 146.921C239.079 148.522 236.77 149.957 234.227 151.113C221.797 156.764 215.766 153.415 212.16 147.091C212.127 147.032 212.093 146.974 212.06 146.916C212.04 146.878 212.019 146.841 211.999 146.803C211.919 146.658 211.84 146.511 211.761 146.363C211.524 145.909 211.297 145.441 211.079 144.963C210.509 143.71 210.042 142.46 209.717 141.216C208.465 136.407 209.364 131.7 214.885 127.425C215.711 126.785 216.639 126.156 217.678 125.538Z" fill="#C8E69A"/>
<path d="M220.233 141.057C224.444 138.24 228.76 135.584 233.25 133.283C233.288 133.263 233.326 133.245 233.364 133.224C236.814 131.462 240.368 129.91 244.055 128.656C246.978 127.662 249.965 126.876 253.002 126.332L253.038 126.453C242.609 128.334 233.043 133.078 224.111 138.706C224.075 138.728 224.038 138.752 224.003 138.774C222.007 140.034 220.043 141.338 218.108 142.662C216.345 143.871 214.596 145.102 212.857 146.346C212.591 146.534 212.325 146.725 212.06 146.914C212.04 146.877 212.019 146.84 211.999 146.802C212.445 146.481 212.892 146.161 213.339 145.842C215.579 144.243 217.838 142.661 220.13 141.126C220.164 141.104 220.198 141.079 220.233 141.057Z" fill="white"/>
<path d="M233.389 133.31C233.414 133.389 233.292 133.427 233.269 133.349C233.262 133.326 233.254 133.306 233.25 133.284C232.484 130.808 233.094 128.065 233.752 125.633C234.262 123.753 234.963 121.934 235.834 120.197C235.883 120.193 235.93 120.193 235.978 120.192C235.14 121.852 234.46 123.587 233.953 125.382C233.254 127.861 232.588 130.691 233.363 133.225C233.371 133.254 233.379 133.281 233.389 133.31Z" fill="white"/>
<path d="M224.058 138.644C224.075 138.665 224.093 138.685 224.11 138.707C228.281 143.673 234.781 146.851 241.301 146.793L241.137 146.921C234.631 146.926 228.156 143.734 224.003 138.775C223.993 138.763 223.982 138.749 223.972 138.738C223.92 138.675 224.005 138.581 224.058 138.644Z" fill="white"/>
<path d="M220.269 141.128C220.305 141.2 220.199 141.269 220.163 141.195C220.152 141.172 220.14 141.15 220.13 141.127C217.726 136.372 216.884 130.82 217.678 125.538C217.726 125.509 217.772 125.481 217.819 125.455C217.004 130.737 217.832 136.299 220.233 141.058C220.246 141.082 220.256 141.105 220.269 141.128Z" fill="white"/>
</g>
<g opacity="0.7">
<path d="M92.6719 182.264C91.2832 183.222 89.8691 184.144 88.4311 185.024L32.9032 196.123C31.102 196.483 29.2498 195.714 28.267 194.163C28.2611 194.153 28.255 194.144 28.2491 194.134C26.4366 191.253 26.3858 187.165 28.6531 184.625C29.766 183.379 31.2991 182.595 32.554 181.493C33.8085 180.39 34.8225 178.706 34.3454 177.105C33.9507 175.774 32.6578 174.927 31.3894 174.366C29.6546 173.598 27.8226 173.151 25.9454 172.859C25.7318 172.824 25.5196 172.792 25.3046 172.763L25.3036 172.763C20.0616 172.035 14.5189 172.325 9.80543 169.959C7.41972 168.762 5.39391 166.945 3.61505 164.955C1.56573 162.665 -0.28826 159.739 0.229766 156.721L0.229526 156.72C0.234979 156.685 0.241642 156.651 0.248186 156.615C0.254971 156.581 0.261636 156.547 0.269512 156.513C0.661879 154.625 1.95822 153.024 3.46516 151.815C7.09885 148.896 11.9561 147.92 16.6164 147.949C21.2769 147.979 25.8787 148.914 30.5151 149.395C32.2175 149.571 34.2055 149.52 35.6952 148.83L35.6963 148.83C36.5764 148.421 37.2821 147.789 37.6547 146.849C38.2166 145.43 37.7399 143.848 37.7293 142.313C37.7279 142.261 37.729 142.21 37.7301 142.159C37.7315 142.041 37.7361 141.923 37.7443 141.806C37.976 138.582 40.9951 136.225 44.0631 135.209C44.7788 134.972 45.5078 134.791 46.2462 134.663L46.2473 134.663C46.3292 134.649 46.4092 134.636 46.4915 134.623L46.4926 134.623C46.5596 134.613 46.6276 134.603 46.6957 134.592C48.5818 134.319 50.5148 134.389 52.3907 134.765C52.4011 134.767 52.4118 134.769 52.4224 134.771C52.4566 134.778 52.4906 134.785 52.5253 134.794C54.6087 135.225 56.6199 136.036 58.4167 137.171C59.6819 137.97 60.8412 138.93 61.8443 140.035C61.8993 140.095 61.9533 140.156 62.0061 140.216C62.5563 140.838 63.0558 141.504 63.499 142.211L72.3893 154.418L72.3904 154.424L74.5215 157.345L74.9622 157.949L80.4752 165.519L86.5037 173.796L92.6719 182.264Z" fill="#C8E69A"/>
<path d="M72.5312 170.865C56.995 159.186 37.0554 156.504 18.1419 156.454C12.2375 156.438 6.33589 156.651 0.436693 156.874C0.132784 156.885 0.168289 156.412 0.470744 156.401C20.2654 155.654 40.864 155.067 59.4915 162.897C64.2111 164.881 68.6998 167.393 72.7942 170.471C73.0373 170.654 72.7757 171.049 72.5312 170.865Z" fill="white"/>
<path d="M25.472 173.235C25.2349 173.426 24.9195 173.072 25.1572 172.881C32.7032 166.795 41.5866 162.516 51.05 160.413C51.3479 160.347 51.4407 160.811 51.143 160.877C41.7615 162.963 32.9529 167.202 25.472 173.235Z" fill="white"/>
<path d="M48.0103 134.88C53.1704 142.937 56.4154 152.118 57.4648 161.628C57.498 161.929 57.0335 162.025 57 161.721C55.9547 152.248 52.727 143.119 47.5868 135.093C47.4222 134.836 47.8473 134.625 48.0103 134.88Z" fill="#E7F4E3"/>
<path d="M74.0332 184.998C74.0332 184.998 38.5929 206.935 28.2502 194.135L48.7351 176.19L74.0332 184.998Z" fill="#C8E69A"/>
</g>
<path d="M150.848 58.637C150.719 58.637 150.589 58.6107 150.467 58.5581C150.229 58.4562 150.045 58.2677 149.949 58.0272L147.871 52.8349C146.432 52.9976 144.974 52.9931 143.534 52.8213L141.348 57.9227C141.246 58.1607 141.058 58.3446 140.817 58.4408C140.577 58.537 140.314 58.5338 140.075 58.4319L132.622 55.2379C132.131 55.0274 131.903 54.4564 132.113 53.9653L134.225 49.0381C133.017 48.1136 131.925 47.0456 130.977 45.8612L126.106 47.8098C125.866 47.9059 125.602 47.9029 125.364 47.8009C125.126 47.699 124.942 47.5104 124.846 47.27L121.834 39.7414C121.738 39.5011 121.741 39.2376 121.843 38.9996C121.945 38.7617 122.134 38.5777 122.374 38.4815L126.997 36.6321C126.772 35.0299 126.755 33.4036 126.947 31.7957L122.479 29.8809C122.241 29.7789 122.057 29.5903 121.961 29.3501C121.865 29.1098 121.868 28.8463 121.97 28.6083L125.164 21.1552C125.266 20.9172 125.454 20.7333 125.695 20.637C125.935 20.5408 126.199 20.544 126.436 20.646L130.731 22.4865C131.759 21.1437 132.962 19.9466 134.307 18.9268L132.592 14.6386C132.394 14.1424 132.636 13.5772 133.132 13.3787L140.661 10.3672C141.157 10.1688 141.722 10.4108 141.92 10.907L143.636 15.1953C145.314 15.0054 147.01 15.0427 148.681 15.3064L150.521 11.0118C150.623 10.7738 150.811 10.5899 151.052 10.4937C151.292 10.3977 151.556 10.4009 151.794 10.5026L159.247 13.6966C159.485 13.7985 159.669 13.987 159.765 14.2275C159.861 14.4677 159.858 14.7312 159.756 14.9692L157.841 19.4375C159.089 20.4695 160.198 21.6586 161.14 22.9739L165.763 21.1247C166.259 20.9262 166.824 21.1684 167.023 21.6646L170.035 29.1933C170.233 29.6894 169.991 30.2546 169.495 30.4531L164.623 32.4017C164.754 33.9135 164.7 35.44 164.463 36.942L169.39 39.0536C169.628 39.1556 169.812 39.344 169.908 39.5844C170.004 39.8247 170.001 40.0882 169.899 40.3261L166.705 47.7793C166.603 48.0173 166.415 48.2014 166.174 48.2974C165.934 48.3935 165.67 48.3904 165.432 48.2885L160.331 46.1022C159.407 47.2195 158.354 48.2286 157.2 49.1034L159.277 54.2958C159.373 54.5362 159.37 54.7996 159.268 55.0375C159.166 55.2755 158.977 55.4594 158.737 55.5556L151.208 58.5673C151.092 58.6137 150.97 58.637 150.848 58.637ZM148.012 52.5979L150.152 57.9459C150.226 58.1319 150.369 58.278 150.553 58.3568C150.737 58.4359 150.941 58.4383 151.127 58.3639L158.656 55.3522C158.842 55.2778 158.988 55.1353 159.067 54.9512C159.146 54.767 159.148 54.5631 159.074 54.3771L156.934 49.0291L157.001 48.9788C158.19 48.0865 159.271 47.0506 160.214 45.8999L160.266 45.8363L165.519 48.0872C165.703 48.1662 165.907 48.1686 166.093 48.0942C166.279 48.0198 166.425 47.8773 166.504 47.6931L169.698 40.24C169.861 39.8597 169.684 39.4178 169.304 39.255L164.219 37.076L164.233 36.9914C164.482 35.4536 164.538 33.8886 164.398 32.3401L164.391 32.2589L169.413 30.2497C169.797 30.096 169.985 29.6586 169.831 29.2744L166.819 21.7458C166.666 21.3618 166.228 21.1741 165.844 21.3279L161.061 23.2412L161.011 23.1708C160.054 21.821 158.919 20.6042 157.638 19.5545L157.574 19.5024L159.554 14.8829C159.633 14.6987 159.636 14.4948 159.561 14.3088C159.487 14.1228 159.344 13.9767 159.16 13.8979L151.707 10.7039C151.327 10.5411 150.885 10.7177 150.722 11.0979L148.814 15.5497L148.729 15.536C147.024 15.2589 145.291 15.2207 143.577 15.4224L143.494 15.4322L141.717 10.9883C141.563 10.6042 141.126 10.4166 140.741 10.5705L133.213 13.5821C132.829 13.7357 132.641 14.1733 132.795 14.5573L134.573 19.001L134.505 19.0513C133.126 20.087 131.897 21.3102 130.853 22.687L130.801 22.7552L126.35 20.8474C126.165 20.7684 125.961 20.7661 125.775 20.8404C125.589 20.9148 125.443 21.0573 125.365 21.2413L122.17 28.6945C122.007 29.0747 122.184 29.5167 122.564 29.6795L127.184 31.6592L127.174 31.7409C126.97 33.3846 126.988 35.0483 127.225 36.6859L127.238 36.7712L122.455 38.6847C122.269 38.7591 122.123 38.9016 122.044 39.0857C121.965 39.2699 121.963 39.4738 122.037 39.6598L125.049 47.1884C125.123 47.3745 125.266 47.5205 125.45 47.5994C125.634 47.6784 125.838 47.6808 126.024 47.6064L131.047 45.5972L131.097 45.661C132.064 46.8788 133.183 47.9737 134.425 48.9152L134.493 48.9669L132.314 54.0514C132.151 54.4316 132.328 54.8735 132.708 55.0364L140.161 58.2303C140.542 58.3932 140.984 58.2165 141.146 57.8364L143.397 52.5839L143.479 52.594C144.955 52.7767 146.452 52.7813 147.929 52.6077L148.012 52.5979ZM145.751 45.9763C144.154 45.9763 142.557 45.6517 141.044 45.0034C138.109 43.7456 135.84 41.42 134.654 38.4551C132.205 32.3346 135.193 25.3634 141.313 22.915C144.278 21.7291 147.528 21.7686 150.463 23.0264C153.398 24.2842 155.667 26.6098 156.853 29.5747C159.302 35.6952 156.314 42.6664 150.194 45.1148C148.757 45.6894 147.253 45.9763 145.751 45.9763ZM134.857 38.3738C136.021 41.2843 138.249 43.5672 141.131 44.802C144.012 46.0367 147.202 46.0757 150.113 44.9113C156.121 42.5078 159.054 35.6643 156.65 29.6559C155.486 26.7454 153.258 24.4624 150.376 23.2277C147.495 21.9929 144.305 21.9539 141.395 23.1184C135.386 25.5219 132.454 32.3654 134.857 38.3738Z" fill="#403672"/>
<path d="M133.221 208.58C194.664 208.58 244.475 203.42 244.475 197.056C244.475 190.692 194.664 185.532 133.221 185.532C71.7767 185.532 21.9666 190.692 21.9666 197.056C21.9666 203.42 71.7767 208.58 133.221 208.58Z" fill="#ECE7FF"/>
<g opacity="0.6">
<path d="M34.7637 70.6373L25.5567 83.7851C24.9597 84.6377 23.7847 84.8448 22.9322 84.2478L9.78438 75.0409C8.93191 74.4438 8.7247 73.2688 9.32173 72.4163L18.5287 59.2685C19.1257 58.416 20.3007 58.2088 21.1532 58.8059L34.301 68.0128C35.1535 68.6097 35.3607 69.7849 34.7637 70.6373Z" fill="#C1B2FF"/>
<path d="M98.5639 115.315L89.357 128.463C88.76 129.315 87.5849 129.523 86.7325 128.926L73.5847 119.719C72.7322 119.122 72.525 117.947 73.122 117.094L82.3289 103.946C82.926 103.094 84.101 102.887 84.9535 103.484L98.1013 112.691C98.9539 113.287 99.161 114.463 98.5639 115.315Z" fill="#C1B2FF"/>
<path d="M56.8064 63.8779L40.9992 66.6644C39.9743 66.8451 38.9969 66.1607 38.8162 65.1357L36.0297 49.3285C35.849 48.3036 36.5334 47.3262 37.5584 47.1456L53.3655 44.359C54.3904 44.1783 55.3678 44.8627 55.5485 45.8878L58.3351 61.6949C58.5157 62.7198 57.8313 63.6972 56.8064 63.8779Z" fill="#C1B2FF"/>
<path d="M70.3276 140.585L54.5204 143.371C53.4955 143.552 52.5181 142.868 52.3375 141.843L49.5509 126.036C49.3702 125.011 50.0546 124.033 51.0796 123.853L66.8868 121.066C67.9117 120.885 68.8891 121.57 69.0698 122.595L71.8563 138.402C72.037 139.427 71.3525 140.404 70.3276 140.585Z" fill="#C1B2FF"/>
<path d="M83.9563 96.8765L81.1174 80.7723C80.9512 79.8293 81.5809 78.9302 82.5238 78.764L98.6279 75.9251C99.5709 75.7588 100.47 76.3886 100.636 77.3314L103.475 93.4355C103.641 94.3785 103.012 95.2777 102.069 95.4439L85.9647 98.2828C85.0217 98.4491 84.1226 97.8194 83.9563 96.8765Z" fill="#C1B2FF"/>
<path d="M7.22295 110.251L4.4364 94.4438C4.25573 93.4189 4.94013 92.4415 5.96515 92.2608L21.7723 89.4742C22.7972 89.2936 23.7746 89.978 23.9553 91.003L26.7418 106.81C26.9225 107.835 26.2381 108.812 25.2131 108.993L9.40594 111.78C8.38103 111.96 7.40363 111.276 7.22295 110.251Z" fill="#C1B2FF"/>
<path d="M77.2948 74.7724L63.9 65.3926C63.1157 64.8433 62.9252 63.7623 63.4743 62.9779L72.8542 49.5831C73.4035 48.7988 74.4845 48.6083 75.2689 49.1575L88.6636 58.5374C89.448 59.0867 89.6385 60.1677 89.0893 60.9521L79.7095 74.3468C79.1602 75.1311 78.0792 75.3216 77.2948 74.7724Z" fill="#C1B2FF"/>
<path d="M32.4935 138.487L19.3457 129.28C18.4932 128.683 18.286 127.508 18.883 126.656L28.0899 113.508C28.687 112.655 29.862 112.448 30.7145 113.045L43.8623 122.252C44.7148 122.849 44.922 124.024 44.3249 124.877L35.118 138.024C34.5211 138.877 33.3461 139.084 32.4935 138.487Z" fill="#C1B2FF"/>
<path d="M90.884 97.4177L90.885 97.4144C91.6073 90.7278 90.541 83.9612 87.8104 77.8328L87.8097 77.8314C86.5386 74.9728 84.9076 72.2555 82.9275 69.7523L82.9264 69.752C80.6898 66.9281 78.0137 64.3774 74.9147 62.2036C72.3964 60.4416 69.7388 59.0278 66.9979 57.9491L66.9946 57.9481C63.828 56.7057 60.5503 55.9119 57.2523 55.5565C50.569 54.8351 43.7958 55.8994 37.6683 58.6268C34.5062 60.0366 31.5138 61.8846 28.7975 64.1572C28.7975 64.1572 28.7971 64.1583 28.796 64.1579C26.2872 66.2582 24.0098 68.719 22.0415 71.5268C20.0765 74.3358 18.5418 77.317 17.4269 80.3924C16.2221 83.7235 15.5067 87.1673 15.268 90.6198L15.2676 90.6208C14.799 97.311 16.1099 104.043 19.0776 110.074C20.538 113.054 22.4021 115.861 24.6549 118.413C26.6053 120.619 28.8444 122.632 31.3613 124.399C34.4648 126.57 37.7765 128.211 41.1936 129.346L41.1947 129.347C44.2263 130.354 47.3342 130.957 50.4553 131.173L50.4586 131.174C57.1484 131.643 63.8763 130.331 69.9114 127.364C72.5924 126.048 75.1399 124.404 77.4782 122.445C79.9916 120.346 82.2689 117.886 84.2343 115.076C86.2026 112.268 87.7339 109.285 88.8485 106.211L88.8489 106.21C89.8872 103.339 90.5627 100.388 90.884 97.4177ZM33.5709 79.6003C41.1377 68.7912 56.0328 66.1676 66.8423 73.7333C77.6493 81.3032 80.2736 96.1997 72.7049 107.003C65.1384 117.811 50.2429 120.436 39.4338 112.869C28.6298 105.302 26.001 90.4073 33.5709 79.6003Z" fill="#C1B2FF"/>
<path d="M75.7605 116.576C70.8242 121.393 64.7452 124.319 58.4207 125.365L75.7605 116.576Z" fill="#C1B2FF"/>
</g>
<path d="M192.158 52.0522L183.511 62.8931C183.005 63.5278 182.08 63.632 181.445 63.1257L170.604 54.4791C169.969 53.9728 169.865 53.0478 170.371 52.4129L179.018 41.5721C179.524 40.9372 180.449 40.8332 181.084 41.3394L191.925 49.986C192.56 50.4924 192.664 51.4175 192.158 52.0522Z" fill="#6E53F1"/>
<path d="M243.716 93.3365L235.228 103.978C234.678 104.668 233.673 104.781 232.983 104.23L222.342 95.7433C221.652 95.193 221.538 94.1875 222.089 93.4976L230.576 82.8565C231.126 82.1665 232.132 82.0534 232.822 82.6036L243.463 91.0908C244.153 91.641 244.266 92.6464 243.716 93.3365Z" fill="#6E53F1"/>
<path d="M211.091 47.5966L197.565 49.1196C196.688 49.2184 195.897 48.5874 195.798 47.7105L194.275 34.1849C194.177 33.3078 194.808 32.5168 195.684 32.418L209.21 30.8949C210.087 30.7962 210.878 31.4271 210.977 32.3041L212.5 45.8297C212.599 46.7068 211.968 47.4978 211.091 47.5966Z" fill="#6E53F1"/>
<path d="M218.482 113.231L204.957 114.754C204.08 114.853 203.289 114.222 203.19 113.345L201.667 99.8195C201.568 98.9424 202.199 98.1514 203.076 98.0526L216.602 96.5297C217.479 96.431 218.27 97.0619 218.369 97.9389L219.892 111.464C219.99 112.342 219.36 113.133 218.482 113.231Z" fill="#6E53F1"/>
<path d="M232.311 76.8324L230.788 63.3068C230.689 62.4297 231.32 61.6387 232.197 61.5401L245.723 60.017C246.6 59.9183 247.391 60.5492 247.489 61.4262L249.012 74.9518C249.111 75.8289 248.48 76.6199 247.603 76.7187L234.078 78.2417C233.2 78.3405 232.409 77.7095 232.311 76.8324Z" fill="#6E53F1"/>
<path d="M166.676 84.2232L165.153 70.6976C165.054 69.8205 165.685 69.0295 166.562 68.9307L180.088 67.4076C180.965 67.3089 181.756 67.9398 181.855 68.8168L183.378 82.3424C183.477 83.2195 182.846 84.0105 181.969 84.1093L168.443 85.6323C167.566 85.7312 166.775 85.1003 166.676 84.2232Z" fill="#6E53F1"/>
<path d="M227.857 57.9001L217.016 49.2535C216.381 48.7473 216.277 47.8222 216.783 47.1874L225.43 36.3465C225.936 35.7117 226.861 35.6076 227.496 36.1138L238.337 44.7605C238.972 45.2667 239.076 46.1918 238.569 46.8266L229.923 57.6675C229.417 58.3023 228.492 58.4065 227.857 57.9001Z" fill="#6E53F1"/>
<path d="M186.672 109.537L175.831 100.89C175.196 100.384 175.092 99.4588 175.598 98.8241L184.245 87.9832C184.751 87.3484 185.676 87.2443 186.311 87.7506L197.152 96.3972C197.787 96.9034 197.891 97.8285 197.384 98.4633L188.738 109.304C188.232 109.939 187.306 110.043 186.672 109.537Z" fill="#6E53F1"/>
<path d="M220.028 43.1175C217.413 41.8963 214.682 41.0524 211.909 40.5776C206.291 39.6117 200.503 40.1573 195.172 42.1425C192.42 43.1653 189.791 44.5727 187.371 46.353C185.136 47.9966 183.078 49.9588 181.265 52.2319C179.452 54.5051 177.996 56.9477 176.891 59.4927C175.693 62.2484 174.906 65.1247 174.52 68.0347C173.77 73.6735 174.526 79.438 176.717 84.7006C177.796 87.299 179.226 89.7741 180.998 92.0515C182.531 94.0232 184.32 95.8467 186.359 97.4727C188.868 99.4744 191.585 101.04 194.418 102.18C196.93 103.192 199.531 103.869 202.161 104.217C207.8 104.967 213.565 104.212 218.827 102.021C221.167 101.048 223.407 99.7914 225.493 98.2575C227.729 96.6138 229.786 94.6516 231.599 92.3785C233.412 90.1054 234.868 87.6627 235.973 85.1178C237.005 82.7431 237.732 80.2795 238.16 77.7818C239.125 72.1639 238.58 66.3757 236.595 61.0444C235.67 58.5579 234.432 56.1721 232.887 53.9486C231.146 51.44 229.015 49.1394 226.505 47.1377C224.467 45.5119 222.291 44.1736 220.028 43.1175ZM193.801 88.1422C185.054 81.1661 183.619 68.4206 190.595 59.6742C197.571 50.9277 210.317 49.4925 219.063 56.4686C227.81 63.4447 229.245 76.1902 222.269 84.9366C215.293 93.6831 202.547 95.1183 193.801 88.1422Z" fill="#6E53F1"/>
<path d="M102.063 26.0919L83.9087 34.1221L91.9389 52.2768L110.094 44.2466L102.063 26.0919Z" fill="#403672"/>
<path d="M104.78 25.1365L80.7075 35.7833C79.7503 36.2065 78.621 35.7698 78.1977 34.8127L77.3009 32.785C76.8776 31.828 77.3143 30.6985 78.2715 30.2752L102.344 19.6285C103.302 19.2052 104.431 19.642 104.854 20.5991L105.751 22.6268C106.174 23.5838 105.738 24.7133 104.78 25.1365Z" fill="#6E53F1"/>
<path d="M189.391 174.947C221.523 142.815 221.523 90.7197 189.391 58.588C157.26 26.4563 105.164 26.4563 73.0321 58.588C40.9004 90.7197 40.9004 142.815 73.0321 174.947C105.164 207.079 157.26 207.079 189.391 174.947Z" fill="#403672"/>
<path d="M186.706 172.261C217.355 141.612 217.355 91.9208 186.706 61.2719C156.057 30.6231 106.365 30.6231 75.7164 61.2719C45.0675 91.9208 45.0675 141.612 75.7164 172.261C106.365 202.91 156.057 202.91 186.706 172.261Z" fill="white"/>
<g opacity="0.2">
<path d="M184.581 169.905C214.056 140.43 214.056 92.6408 184.581 63.1656C155.106 33.6904 107.317 33.6904 77.8417 63.1656C48.3665 92.6408 48.3665 140.43 77.8417 169.905C107.317 199.38 155.106 199.38 184.581 169.905Z" fill="#6E53F1"/>
</g>
<path d="M107.802 63.1772C107.383 63.3623 106.89 63.1714 106.705 62.753L102.433 53.0955C102.248 52.6772 102.439 52.1835 102.858 51.9984C103.276 51.8134 103.77 52.0044 103.955 52.4227L108.226 62.0801C108.411 62.4985 108.22 62.9922 107.802 63.1772Z" fill="#403672"/>
<path d="M160.136 181.289C159.673 181.494 159.126 181.282 158.921 180.818L154.189 170.119C153.984 169.656 154.195 169.109 154.659 168.904C155.122 168.698 155.669 168.91 155.874 169.374L160.606 180.073C160.811 180.537 160.6 181.084 160.136 181.289Z" fill="#403672"/>
<path d="M188.268 91.5348C188.142 91.25 188.272 90.914 188.557 90.7881L195.13 87.8811C195.414 87.7552 195.75 87.8851 195.876 88.1699C196.002 88.4546 195.872 88.7907 195.587 88.9166L189.015 91.8236C188.73 91.9496 188.394 91.8196 188.268 91.5348Z" fill="#403672"/>
<path d="M66.5501 145.367C66.4242 145.082 66.5541 144.746 66.8388 144.62L73.4117 141.713C73.6965 141.587 74.0325 141.717 74.1584 142.002C74.2843 142.287 74.1544 142.623 73.8697 142.749L67.2967 145.656C67.012 145.782 66.676 145.652 66.5501 145.367Z" fill="#403672"/>
<path d="M193.529 119.72C193.544 119.409 193.81 119.167 194.121 119.181L201.3 119.521C201.611 119.536 201.854 119.803 201.839 120.113C201.824 120.425 201.558 120.667 201.247 120.652L194.068 120.312C193.757 120.298 193.514 120.031 193.529 119.72Z" fill="#403672"/>
<path d="M60.5866 113.425C60.6012 113.114 60.8678 112.872 61.1788 112.886L68.3578 113.226C68.6689 113.241 68.9112 113.508 68.8966 113.818C68.8818 114.13 68.6153 114.372 68.3043 114.357L61.1252 114.017C60.8143 114.003 60.5718 113.736 60.5866 113.425Z" fill="#403672"/>
<path d="M183.675 150.529C183.844 150.267 184.196 150.191 184.458 150.359L190.502 154.248C190.763 154.417 190.84 154.769 190.671 155.031C190.503 155.293 190.151 155.369 189.889 155.2L183.845 151.311C183.583 151.143 183.507 150.791 183.675 150.529Z" fill="#403672"/>
<path d="M71.755 78.5083C71.9235 78.2464 72.2756 78.1701 72.5375 78.3385L78.5813 82.2278C78.8432 82.3962 78.9195 82.7484 78.7511 83.0102C78.5827 83.2721 78.2305 83.3484 77.9687 83.18L71.9248 79.2907C71.6629 79.1222 71.5866 78.7702 71.755 78.5083Z" fill="#403672"/>
<path d="M118.104 177.785C118.409 177.851 118.604 178.153 118.539 178.458L117.027 185.484C116.962 185.788 116.659 185.984 116.355 185.918C116.05 185.853 115.855 185.55 115.92 185.246L117.432 178.22C117.497 177.915 117.8 177.72 118.104 177.785Z" fill="#403672"/>
<path d="M146.095 47.6709C146.4 47.7363 146.595 48.039 146.53 48.3434L145.018 55.3698C144.953 55.6742 144.65 55.8696 144.345 55.8042C144.041 55.7387 143.846 55.436 143.911 55.1317L145.423 48.1053C145.488 47.8008 145.791 47.6053 146.095 47.6709Z" fill="#403672"/>
<path d="M90.3671 163.953C90.6024 164.157 90.6282 164.516 90.4244 164.751L85.7195 170.185C85.5157 170.42 85.1564 170.446 84.921 170.242C84.6856 170.038 84.6597 169.679 84.8635 169.443L89.5684 164.01C89.7723 163.775 90.1316 163.749 90.3671 163.953Z" fill="#403672"/>
<path d="M177.491 63.3416C177.727 63.5454 177.752 63.9047 177.549 64.1401L172.844 69.5733C172.64 69.8086 172.281 69.8344 172.045 69.6306C171.81 69.4268 171.784 69.0675 171.988 68.8321L176.693 63.3989C176.896 63.1636 177.256 63.1378 177.491 63.3416Z" fill="#403672"/>
<path d="M100.977 100.547L131.839 127.995C133.184 129.192 135.575 128.513 137.052 126.515C138.363 124.742 138.317 122.538 136.952 121.708L101.342 100.052C101.104 99.9077 100.769 100.361 100.977 100.547Z" fill="#403672"/>
<path d="M145.019 68.2729L129.931 123.243C129.274 125.639 130.778 128.092 133.212 128.592C135.371 129.035 137.456 127.561 137.757 125.378L145.621 68.3965C145.673 68.0156 145.121 67.9021 145.019 68.2729Z" fill="#824BF8"/>
<path d="M85.9727 87.1027C85.6286 87.6547 129.624 114.01 129.624 114.01L142.901 62.2449C142.901 62.2449 106.305 54.4809 85.9727 87.1027Z" fill="#8D76FB"/>
<path d="M174.791 120.559C174.791 120.559 177.989 124.501 180.041 123.643C182.094 122.785 181.937 121.925 181.818 121.188C181.105 116.761 176.56 115.438 176.56 115.438L174.791 120.559Z" fill="#FBC7B1"/>
<path d="M174.381 125.898C173.343 125.734 172.949 124.635 173.5 123.442L179.41 110.666C179.962 109.473 181.251 108.639 182.289 108.803C183.327 108.966 183.721 110.066 183.169 111.259L177.26 124.035C176.708 125.227 175.419 126.062 174.381 125.898Z" fill="#353659"/>
<path d="M207.866 100.376C207.866 100.376 210.719 101.912 209.603 105.419C208.605 108.552 203.748 110.638 202.202 109.64C200.656 108.642 207.256 100.352 207.866 100.376Z" fill="#824BF8"/>
<path d="M229.213 139.967C229.188 139.914 229.163 139.873 229.139 139.841C228.667 139 227.602 138.577 226.584 138.887L226.107 139.032C225.208 139.305 224.683 140.217 224.939 141.059C224.994 141.239 224.979 141.431 224.904 141.603C224.778 141.891 224.776 142.461 225.003 143.488C225.342 145.026 225.914 147.362 226.466 147.241C226.74 147.18 226.727 146.365 226.603 145.391C226.635 145.383 226.623 145.386 226.656 145.378C227.099 146.748 227.799 148.703 228.322 148.535C228.778 148.388 228.256 146.312 227.819 144.938L227.873 144.9C228.351 146.319 228.998 147.976 229.462 147.827C229.895 147.688 229.392 145.639 228.931 144.151L228.983 144.114C229.478 145.281 230.059 146.444 230.4 146.31C230.717 146.186 230.29 144.719 229.829 143.44C229.853 143.402 229.874 143.364 229.893 143.325C230.135 143.707 230.368 143.975 230.521 143.9C230.778 143.774 229.591 140.737 229.213 139.967Z" fill="#FBC7B1"/>
<path d="M207.322 115.107C207.322 115.107 210.365 114.298 214.398 116.194C217.131 117.479 225.625 127.654 226.255 129.051C226.885 130.447 229.524 139.637 229.524 139.637C229.524 139.637 227.405 141.756 224.138 141.724C224.138 141.724 220.381 132.297 220.085 131.674C219.79 131.052 213.367 126.243 213.367 126.243L206.963 119.394L207.322 115.107Z" fill="#8A80EE"/>
<path d="M181.609 120.292C181.609 120.292 185.479 126.516 187.789 129.75C188.628 130.925 188.958 116.549 195.86 114.937C199.32 114.128 199.534 128.358 199.534 128.358C199.534 128.358 197.274 139.172 187.677 138.482C180.671 137.978 179.229 123.765 179.229 123.765C179.229 123.765 179.989 123.606 180.6 122.812C181.262 121.951 181.609 120.292 181.609 120.292Z" fill="#8A80EE"/>
<path d="M202.297 198.37C202.312 198.998 202.33 199.61 202.328 200.178C202.326 200.517 202.086 200.81 201.753 200.876C200.912 201.043 200.034 201.031 199.17 201.016C196.368 200.968 193.564 200.919 190.761 200.871C190.472 200.866 190.149 200.848 189.99 200.56C189.889 200.376 189.903 200.153 190 199.967C190.195 199.592 190.589 199.435 190.963 199.296C192.783 198.62 194.759 197.941 196.124 196.636C196.168 196.595 196.21 196.552 196.252 196.51C196.54 196.218 196.798 195.895 197.019 195.535C197.189 195.257 197.334 194.957 197.417 194.643C197.446 194.535 197.468 194.426 197.481 194.314C197.486 194.271 197.491 194.228 197.493 194.184L198.483 194.14L198.768 194.127L202.593 193.958C202.332 194.926 202.276 196.063 202.279 197.204C202.28 197.595 202.288 197.985 202.297 198.37Z" fill="#2A2C4B"/>
<path d="M222.041 200.875C221.2 201.043 220.322 201.03 219.459 201.015C216.656 200.967 213.852 200.918 211.049 200.87C210.76 200.865 210.438 200.848 210.278 200.559C210.177 200.376 210.191 200.152 210.288 199.966C210.483 199.592 210.877 199.435 211.252 199.295C213.071 198.62 215.047 197.941 216.412 196.635C216.456 196.594 216.498 196.552 216.54 196.509C216.828 196.217 217.086 195.895 217.307 195.535C217.478 195.257 217.622 194.957 217.705 194.643C217.734 194.535 217.756 194.425 217.769 194.313C217.775 194.27 217.779 194.227 217.781 194.183L218.771 194.139L219.056 194.127L221.252 189.491C220.991 190.459 221.893 194.6 222.084 195.94C222.619 199.685 222.374 200.809 222.041 200.875Z" fill="#2A2C4B"/>
<path d="M219.817 195.941C222.398 195.391 222.398 194.573 222.398 194.573C222.398 194.573 219.138 178.953 218.242 173.71C217.083 166.929 212.851 144.04 212.851 144.04L194.133 144.31C194.133 144.31 193.037 165.756 193.51 172.165C193.943 178.042 196.012 195.614 196.012 195.614C196.012 195.614 196.101 196.208 198.516 196.151C202.298 196.06 202.595 195.179 202.595 195.179C202.595 195.179 202.229 181.441 202.33 177.024C202.428 172.692 203.39 160.184 203.39 160.184C203.39 160.184 206.787 171.216 208.078 174.84C209.978 180.173 216.37 195.911 216.37 195.911C216.37 195.911 216.986 196.544 219.817 195.941Z" fill="#6E53F1"/>
<path d="M203.353 160.339C203.189 159.38 202.946 158.437 202.621 157.52C202.454 157.05 202.266 156.588 202.057 156.135C201.863 155.715 201.671 155.185 201.235 154.963C201.181 154.935 201.229 154.853 201.283 154.881C201.658 155.071 201.836 155.452 202.01 155.814C202.231 156.27 202.431 156.737 202.609 157.211C202.987 158.216 203.264 159.256 203.444 160.314C203.455 160.374 203.363 160.4 203.353 160.339Z" fill="white"/>
<path d="M213.268 153.75C213.563 155.346 213.868 156.94 214.169 158.534C214.759 161.652 215.35 164.77 215.943 167.887C216.641 171.552 217.34 175.216 218.043 178.88C218.664 182.112 219.286 185.344 219.92 188.574C220.277 190.396 220.613 192.224 221.023 194.035C221.041 194.114 221.06 194.194 221.079 194.272C221.094 194.332 221.002 194.357 220.988 194.298C220.593 192.727 220.323 191.118 220.011 189.53C219.397 186.417 218.796 183.302 218.197 180.186C217.493 176.523 216.793 172.859 216.095 169.194C215.48 165.96 214.866 162.726 214.253 159.492C213.908 157.667 213.562 155.842 213.221 154.016C213.206 153.936 213.191 153.856 213.176 153.776C213.165 153.716 213.257 153.69 213.268 153.75Z" fill="white"/>
<path d="M194.901 121.937C194.763 123.179 193.425 128.942 193.617 130.746C193.91 133.513 192.995 144.534 192.995 144.536C193.116 145.619 193.096 148.39 193.183 149.285C193.183 149.285 193.984 151.127 205.761 151.356C214.187 151.52 214.154 149.894 214.154 149.894C213.876 148.334 213.656 146.83 213.484 145.388C213.481 145.371 213.48 145.355 213.478 145.338C213.473 145.3 213.469 145.262 213.464 145.224C213.265 143.518 213.133 141.899 213.055 140.372C212.957 138.463 212.941 136.701 212.981 135.102C212.983 135.026 212.985 134.95 212.987 134.875C212.988 134.835 212.989 134.795 212.99 134.756C213.004 134.319 213.021 133.896 213.041 133.485V133.484C213.052 133.249 213.065 133.019 213.079 132.793C213.083 132.725 213.088 132.657 213.092 132.589C213.413 127.583 208.224 117.998 208.224 117.998C208.224 117.998 208.817 113.514 204.226 113.514C197.308 113.514 195.654 115.164 194.901 121.937Z" fill="#C1B2FF"/>
<path d="M199.967 111.821C200.018 111.539 200.063 111.26 200.102 111.005C200.142 110.738 200.175 110.499 200.2 110.312C200.233 110.061 200.251 109.906 200.251 109.906L202.636 109.161L202.898 108.088L204.243 108.659C204.215 108.26 204.16 110.968 204.509 114.604C204.598 115.528 202.996 117.425 200.218 116.523C198.49 115.962 199.188 114.274 199.468 113.716C199.574 113.504 199.674 113.176 199.765 112.798C199.84 112.493 199.908 112.154 199.967 111.821Z" fill="#FBC7B1"/>
<path d="M202.823 109.602C202.818 109.627 202.814 109.653 202.808 109.677C202.746 109.977 202.653 110.248 202.536 110.497C202.509 110.554 202.482 110.611 202.452 110.666C202.45 110.67 202.448 110.674 202.446 110.678C202.417 110.733 202.386 110.785 202.356 110.836C201.635 112.026 200.375 112.587 199.765 112.799C199.84 112.495 199.908 112.156 199.968 111.823C199.98 111.753 199.992 111.682 200.005 111.614C200.008 111.595 200.011 111.578 200.014 111.559C200.016 111.542 200.019 111.524 200.022 111.508C200.025 111.491 200.028 111.473 200.031 111.456C200.056 111.3 200.079 111.149 200.102 111.006C200.737 110.759 201.961 110.085 202.526 109.77C202.709 109.666 202.823 109.602 202.823 109.602Z" fill="#FC9171"/>
<path d="M199.965 117.842C199.965 117.842 197.825 137.297 198.484 143.876C198.515 144.177 198.65 144.457 198.864 144.67L200.816 146.613C201.064 146.861 201.471 146.846 201.7 146.58L203.743 144.483C203.98 144.239 204.097 143.903 204.061 143.564C203.689 140.03 201.621 120.052 202.131 117.783L199.965 117.842Z" fill="#353659"/>
<path d="M207.149 130.339C207.149 130.339 207.208 144.577 210.706 152.718C210.706 152.718 219.061 152.947 221.083 149.78C221.083 149.78 216.255 137.497 213.915 117.047C213.636 114.607 207.131 114.913 207.131 114.913L206.631 121.937L207.149 130.339Z" fill="#8A80EE"/>
<path d="M196.905 129.514C196.905 129.514 196.624 141.08 195.816 151.982C195.816 151.982 191.56 152.164 189.538 148.997C189.538 148.997 191.958 136.828 191.594 127.113C191.438 122.961 193.334 118.997 196.632 116.469L197.694 115.655C197.694 115.655 197.643 115.005 197.028 122.297C196.908 123.721 196.905 129.514 196.905 129.514Z" fill="#8A80EE"/>
<path d="M205.778 113.513C205.778 113.513 206.154 122.17 207.15 130.338C207.15 130.338 208.354 126.539 208.132 122.778C208.132 122.778 207.001 122.407 206.89 122.129C206.89 122.129 207.891 121.758 208.224 121.814C208.224 121.814 211.805 120.862 210.365 115.014C210.365 115.014 208.574 113.654 205.778 113.513Z" fill="#6F69D9"/>
<path d="M199.469 113.716C199.469 113.716 197.142 115.088 196.906 129.513C196.906 129.513 194.49 125.688 194.735 122.658C194.735 122.658 196.198 122.13 196.421 121.722C196.421 121.722 195.365 121.046 194.512 121.046C194.512 121.046 193.395 118.174 195.861 114.937C195.861 114.936 198.44 113.549 199.469 113.716Z" fill="#6F69D9"/>
<path d="M199.68 116.72C199.68 116.72 199.722 116.094 200.457 116.2C201.191 116.306 201.894 116.046 202.144 116.188C202.394 116.331 202.622 116.747 202.452 117.241C202.283 117.735 201.491 118.633 200.81 118.552C200.129 118.471 199.537 117.22 199.68 116.72Z" fill="#484B73"/>
<path d="M204.284 111.459C204.284 111.459 205.259 111.579 205.873 112.71C206.245 113.397 207.18 113.575 207.207 113.872C207.234 114.169 205.961 118.185 203.019 118.758C203.019 118.758 202.492 118.272 202.465 117.409C202.438 116.545 201.763 116.151 201.763 116.151C201.763 116.151 201.619 115.607 202.217 115.307C202.815 115.007 203.644 113.529 203.974 113.01C204.346 112.426 204.284 111.459 204.284 111.459Z" fill="#D5CDFF"/>
<path d="M199.951 111.914C199.951 111.914 198.042 112.715 197.695 114.097C197.516 114.805 198.399 116.92 198.555 117.676C198.71 118.432 198.905 118.891 199.118 118.243C199.331 117.595 199.95 116.207 200.334 116.189C200.73 116.17 200.274 115.612 200.176 115.118C199.794 113.179 199.951 111.914 199.951 111.914Z" fill="#D5CDFF"/>
<path d="M204.788 107.133C204.788 107.133 202.367 112.291 198.112 110.536C193.759 108.74 195.88 105.821 198.354 101.463C199.847 98.8322 208.562 98.9675 204.788 107.133Z" fill="#FBC7B1"/>
<path d="M203.512 109.264C202.515 110.134 201.323 110.735 200.029 111.014C199.97 111.027 199.94 110.936 200 110.923C201.275 110.648 202.457 110.059 203.441 109.201C203.486 109.161 203.558 109.224 203.512 109.264Z" fill="#FC9171"/>
<path d="M199.861 104.411C199.875 104.842 199.607 105.2 199.354 105.526C199.184 105.744 199 105.953 198.836 106.177C198.748 106.297 198.549 106.475 198.687 106.63C198.742 106.692 198.875 106.732 198.946 106.787C199 106.829 198.936 106.913 198.883 106.871C198.771 106.785 198.574 106.739 198.529 106.585C198.481 106.422 198.668 106.228 198.752 106.113C199.106 105.63 199.777 105.074 199.756 104.426C199.755 104.358 199.859 104.343 199.861 104.411Z" fill="#D26C51"/>
<path d="M200.818 104.107C200.666 104.34 201.014 104.639 201.483 104.944C201.953 105.25 202.366 105.447 202.518 105.214C202.67 104.98 202.465 104.463 201.996 104.157C201.527 103.852 200.971 103.873 200.818 104.107Z" fill="#E8775A"/>
<path d="M197.887 102.932C197.782 103.19 198.21 103.43 198.767 103.657C199.323 103.884 199.796 104.013 199.902 103.755C200.007 103.497 199.678 103.014 199.122 102.787C198.565 102.56 197.993 102.674 197.887 102.932Z" fill="#E8775A"/>
<path d="M200.493 105.773C200.385 105.992 200.421 106.232 200.575 106.307C200.729 106.383 200.941 106.267 201.049 106.047C201.158 105.828 201.121 105.588 200.967 105.512C200.814 105.437 200.602 105.553 200.493 105.773Z" fill="#262F36"/>
<path d="M198.475 104.606C198.367 104.825 198.403 105.065 198.557 105.14C198.711 105.216 198.923 105.1 199.031 104.88C199.14 104.661 199.103 104.421 198.949 104.345C198.796 104.27 198.583 104.386 198.475 104.606Z" fill="#262F36"/>
<path d="M205.717 107.179C205.541 107.153 205.361 107.182 205.186 107.15C204.662 107.053 204.173 106.76 203.853 106.333C203.454 105.799 203.333 105.039 203.642 104.447C203.796 104.151 204.017 103.894 204.25 103.656C204.254 103.652 204.258 103.648 204.262 103.644C204.635 103.256 204.462 102.6 203.945 102.449C203.709 102.38 203.465 102.342 203.262 102.332C202.482 102.295 201.699 102.302 200.92 102.353C200.406 102.386 199.889 102.356 199.385 102.249C196.883 101.722 197.295 99.9888 198.496 99.056C200.183 97.7459 206.696 97.9568 207.867 100.376C207.867 100.376 209.396 101.539 209.16 103.1C208.924 104.661 207.193 107.4 205.717 107.179Z" fill="#824BF8"/>
<path d="M206.013 107.019C205.841 106.363 205.034 106.006 204.209 106.222C203.384 106.438 202.854 107.144 203.025 107.799C203.196 108.454 204.004 108.811 204.829 108.596C205.654 108.38 206.184 107.674 206.013 107.019Z" fill="#FBC7B1"/>
<path d="M206.002 107.709C205.787 108.127 205.483 108.494 205.01 108.612C204.486 108.743 203.872 108.715 203.379 108.493C203.323 108.467 203.358 108.379 203.414 108.404C203.86 108.605 204.366 108.624 204.845 108.547C205.357 108.463 205.683 108.121 205.914 107.674C205.942 107.619 206.03 107.654 206.002 107.709Z" fill="#FC9171"/>
<path d="M204.36 107.104C204.23 107.162 204.103 107.241 204.105 107.399C204.106 107.448 204.131 107.499 204.132 107.55C204.135 107.689 204.08 107.813 203.989 107.915C203.943 107.965 203.859 107.901 203.904 107.851C204.007 107.737 204.044 107.61 204.012 107.459C203.999 107.397 203.971 107.341 203.988 107.276C204.024 107.143 204.206 107.057 204.319 107.007C204.382 106.979 204.422 107.077 204.36 107.104Z" fill="#FC9171"/>
<path d="M204.432 106.24C204.294 106.25 204.161 106.289 204.04 106.359C203.983 106.393 203.917 106.309 203.976 106.275C204.113 106.196 204.26 106.147 204.418 106.135C204.486 106.13 204.5 106.234 204.432 106.24Z" fill="#FC9171"/>
<path d="M173.726 120.927C172.601 120.203 172.759 119.791 173.047 119.344C173.335 118.896 173.644 118.582 174.769 119.306C175.895 120.031 177.114 121.009 176.68 121.682C176.279 122.306 174.852 121.652 173.726 120.927Z" fill="#FBC7B1"/>
<path d="M174.554 119.365C173.236 118.517 173.381 118.097 173.669 117.65C173.957 117.202 174.279 116.896 175.597 117.745C176.916 118.593 178.358 119.715 177.925 120.389C177.523 121.012 175.873 120.214 174.554 119.365Z" fill="#FBC7B1"/>
<path d="M175.268 118.112C173.949 117.264 174.095 116.844 174.383 116.397C174.671 115.949 174.993 115.643 176.311 116.492C177.63 117.34 179.072 118.462 178.638 119.136C178.237 119.759 176.587 118.961 175.268 118.112Z" fill="#FBC7B1"/>
<path d="M176.372 116.903C175.308 116.219 175.426 115.88 175.658 115.519C175.89 115.158 176.15 114.911 177.213 115.596C178.277 116.281 179.44 117.185 179.09 117.728C178.767 118.231 177.435 117.588 176.372 116.903Z" fill="#FBC7B1"/>
<path d="M176.312 121.823C176.387 121.512 176.462 121.201 176.537 120.89C176.464 120.753 176.375 120.628 176.269 120.516C176.164 120.393 176.044 120.282 175.926 120.17C175.866 120.113 175.954 120.033 176.017 120.068C176.292 120.22 176.68 120.462 177.005 120.519C178.213 120.728 177.944 119.652 177.45 119.23C177.381 119.171 177.448 119.077 177.527 119.116C177.994 119.471 178.323 119.27 178.513 118.512C178.477 118.459 178.438 118.408 178.394 118.361C178.317 118.248 178.19 118.15 178.091 118.056C177.767 117.75 177.419 117.467 177.071 117.19C176.51 116.745 175.932 116.274 175.295 115.941C175.217 115.9 175.295 115.786 175.373 115.827C176.435 116.384 177.477 117.243 178.323 118.089C178.587 118.353 178.927 118.76 178.72 119.159C178.461 119.66 177.819 119.415 177.449 119.229C177.475 119.192 177.501 119.154 177.527 119.116C178.236 119.722 178.295 121.026 177.076 120.689C176.845 120.625 176.17 120.458 176.171 120.214C176.17 120.346 176.669 120.797 176.733 121.003C176.855 121.388 176.769 121.786 176.373 121.946C176.291 121.979 176.23 121.856 176.312 121.823Z" fill="#E79480"/>
<path d="M174.331 117.082C175.581 117.583 176.59 118.408 177.649 119.219C177.719 119.273 177.642 119.387 177.572 119.333C176.522 118.528 175.528 117.709 174.287 117.212C174.205 117.179 174.249 117.048 174.331 117.082Z" fill="#E79480"/>
<path d="M173.926 118.808C174.71 119.189 175.433 119.668 176.148 120.166C176.22 120.217 176.143 120.33 176.07 120.28C175.367 119.789 174.654 119.314 173.882 118.938C173.803 118.9 173.847 118.769 173.926 118.808Z" fill="#E79480"/>
<path d="M185.446 113.819L178.053 112.053L178.646 98.9609L188.47 101.308C191.111 101.94 192.755 104.617 192.124 107.258L191.435 110.14C190.8 112.799 188.105 114.455 185.446 113.819Z" fill="#353659"/>
<path d="M181.041 99.5453L178.053 112.049C169.233 109.945 156.869 112.782 156.869 112.782L157.238 111.264L163 87.6582C163 87.6582 169.182 96.2214 180.933 99.5142C180.968 99.5245 181.005 99.5351 181.041 99.5453Z" fill="#6E53F1"/>
<path d="M163.036 100.922C164.73 93.8346 164.373 87.6759 162.239 87.166C160.105 86.6562 157.002 91.9882 155.309 99.0755C153.615 106.163 153.972 112.322 156.106 112.831C158.24 113.341 161.343 108.009 163.036 100.922Z" fill="#FFA051"/>
<path d="M181.947 106.365C181.724 107.297 181.434 108.163 181.102 108.924C180.211 110.986 179.02 112.28 178.053 112.049C177.309 111.871 176.855 110.826 176.746 109.331C176.663 108.167 176.789 106.731 177.15 105.219C177.954 101.857 179.624 99.359 180.933 99.5147C180.97 99.5183 181.008 99.5257 181.044 99.5343C182.368 99.8507 182.772 102.909 181.947 106.365Z" fill="#6E53F1"/>
<path d="M162.308 98.6268C162.308 98.6268 158.746 97.7585 157.847 99.0274C156.742 100.586 159.503 102.322 161.331 102.714C161.331 102.714 162.557 100.989 162.308 98.6268Z" fill="white"/>
<g opacity="0.5">
<path d="M181.102 108.924C180.211 110.986 179.02 112.28 178.053 112.049C169.233 109.945 156.869 112.782 156.869 112.782L157.238 111.264L162.268 103.727C162.268 103.727 163.858 107.43 168.823 108.801C171.106 109.431 174.137 109.471 176.746 109.331C177.448 109.294 178.12 109.242 178.737 109.186C179.675 109.103 180.489 109.005 181.102 108.924Z" fill="#FFA051"/>
</g>
<path d="M187.323 128.941C188.283 130.592 188.735 132.417 188.658 134.326C188.653 134.461 188.862 134.461 188.868 134.326C188.946 132.384 188.481 130.515 187.504 128.835C187.437 128.718 187.255 128.824 187.323 128.941Z" fill="white"/>
<path d="M191.524 128.181C191.458 131.877 191.365 135.527 190.902 139.2C190.885 139.334 191.095 139.332 191.112 139.2C191.574 135.527 191.668 131.877 191.734 128.181C191.736 128.046 191.526 128.046 191.524 128.181Z" fill="white"/>
<path d="M211.323 126.117C212.997 126.808 214.617 127.607 216.185 128.51C216.303 128.578 216.408 128.397 216.291 128.329C214.707 127.416 213.069 126.612 211.379 125.915C211.254 125.863 211.2 126.066 211.323 126.117Z" fill="white"/>
<path d="M197.529 106.856C197.529 106.856 198.48 107.65 199.918 107.528C199.918 107.528 199.202 108.563 198.195 108.208C197.247 107.874 197.529 106.856 197.529 106.856Z" fill="white"/>
<path d="M73.2624 100.204C72.4289 100.47 71.5871 100.771 70.7115 100.721C66.9617 100.506 64.1574 103.796 64.7909 106.086C64.9288 106.584 64.6235 107.131 64.2301 107.515C63.9332 107.805 63.5445 108.008 63.2334 108.286C62.4508 108.985 62.2803 110.163 62.8399 111.004C63.0757 111.358 63.4395 111.715 63.3432 112.12C63.2941 112.327 63.1314 112.495 62.9906 112.666C62.3133 113.486 62.0838 114.675 62.7223 115.507C63.1157 116.02 63.7667 116.324 64.4156 116.552C66.7637 117.38 69.3925 117.469 71.8949 117.084C74.3973 116.699 76.7905 115.858 79.0844 114.873C80.6449 114.204 82.1815 113.458 83.507 112.462C84.0808 112.031 84.6248 111.538 84.9212 110.925C85.2176 110.311 85.2245 109.554 84.7777 109.026C84.3675 108.54 83.6378 108.3 83.3263 107.759C83.026 107.238 83.2051 106.6 83.0852 106.022C82.9792 105.511 82.6239 105.048 82.1294 104.775C81.4668 104.41 80.5414 104.345 80.1353 103.752C79.7261 103.155 80.0533 102.274 79.5327 101.751C78.7607 100.975 77.0595 101.814 76.2335 101.084C76.0259 100.9 75.9171 100.645 75.7281 100.446C75.161 99.8495 74.0958 99.9381 73.2624 100.204Z" fill="#262F36"/>
<path d="M63.3948 156.14C63.3948 156.14 57.5856 156.872 57.3222 158.263C57.0554 159.673 58.0858 162.483 64.5358 162.204C71.531 161.903 77.5895 163.019 85.4389 166.141L80.8781 157.348L63.3948 156.14Z" fill="#FFA051"/>
<path d="M83.9253 160.901C83.4274 165.205 82.6282 170.609 81.3824 175.731C78.7179 186.685 79.2161 198.56 79.2161 198.56H73.7691C73.7691 198.56 71.0373 180.378 72.7201 173.241C73.6953 169.105 73.3524 164.064 74.0304 158.589C74.5222 154.617 84.4923 156 83.9253 160.901Z" fill="#E29171"/>
<path d="M76.1721 154.043C76.1721 154.043 71.4573 173.066 66.3486 176.45L61.1255 168.42C61.1255 168.42 63.1074 155.042 63.9406 153.509C64.7737 151.975 76.1359 151.158 76.1721 154.043Z" fill="#E29171"/>
<path d="M86.174 163.546C86.1694 163.588 86.1648 163.631 86.1602 163.673C86.0498 164.664 85.8197 165.502 85.4388 166.142C85.2525 166.456 84.3666 167.02 83.0377 167.381C80.7552 168.004 77.1623 168.03 73.5463 165.179C73.3415 165.018 73.1367 164.847 72.9319 164.666C72.2807 164.093 71.632 163.423 70.9911 162.64C70.9082 162.539 70.8242 162.439 70.7402 162.341C68.2656 159.453 65.3929 158.06 62.9446 157.516C60.1651 156.897 57.9332 157.372 57.4465 157.995C57.4476 157.992 57.4499 157.99 57.4511 157.988C57.6823 157.66 59.3183 155.311 60.6471 152.759L60.7449 152.571C61.2948 151.497 61.785 150.392 62.0864 149.396C63.6361 144.272 64.8797 142.124 65.9853 140.193L65.9865 140.192C65.9945 140.176 66.0049 140.159 66.0141 140.142C66.0141 140.14 66.0152 140.14 66.0164 140.14C66.6687 138.998 67.2751 137.926 67.8698 136.343C68.131 135.647 68.3898 134.852 68.6498 133.909C70.0017 129 81.2521 127.672 81.6835 134.813C81.7226 135.452 81.7848 136.123 81.8688 136.82V136.821C82.2358 139.887 82.994 143.455 83.7785 147.053C83.7877 147.094 83.7969 147.135 83.8061 147.177C85.1547 153.365 86.5663 159.624 86.174 163.546Z" fill="#6E53F1"/>
<path d="M80.5082 196.115C81.9921 197.638 84.1869 198.481 86.2069 199.314C86.623 199.486 87.0598 199.678 87.2644 200.108C87.3651 200.321 87.3721 200.573 87.2509 200.775C87.0603 201.093 86.6968 201.1 86.372 201.094C83.2164 201.036 80.4206 201.423 76.9059 200.919C75.9435 200.782 74.946 200.881 74.0061 200.658C73.6348 200.571 73.3768 200.232 73.3881 199.851C73.4077 199.211 73.4529 198.524 73.4948 197.818C73.5206 197.385 73.545 196.946 73.5615 196.507C73.6113 195.223 73.3362 192.756 73.092 191.19L77.635 193.187L77.9552 193.213L78.9641 189.66C78.9647 189.71 79.071 193.4 79.0756 193.448C79.0854 193.575 79.1056 193.699 79.134 193.822C79.2153 194.178 79.3655 194.521 79.5461 194.841C79.7798 195.255 80.0573 195.628 80.3694 195.968C80.4154 196.017 80.4613 196.067 80.5082 196.115Z" fill="#E29171"/>
<path d="M87.2411 200.544C87.4852 200.482 87.628 200.85 87.3825 200.913C85.1354 201.485 82.8312 201.533 80.5273 201.411C78.1589 201.286 75.7992 201.078 73.4263 201.038C73.1746 201.034 73.1344 200.641 73.3881 200.645C75.6493 200.683 77.8997 200.862 80.1559 200.997C82.5285 201.139 84.9232 201.134 87.2411 200.544Z" fill="#353659"/>
<path d="M73.5996 196.965C77.4055 198.838 77.8546 201.017 77.8546 201.017L73.7643 200.848C72.7143 199.662 73.5996 196.965 73.5996 196.965Z" fill="#353659"/>
<path d="M84.0699 198.338C84.7941 198.575 85.4424 199.013 86.7305 199.481C87.7398 199.849 88.3604 200.714 85.8885 201.042C83.4156 201.369 80.7754 201.151 80.7754 201.151C80.7754 201.151 82.8313 197.933 84.0699 198.338Z" fill="#353659"/>
<path d="M44.4332 155.923C48.3895 157.428 59.634 161.894 63.6987 165.52C68.6671 169.952 68.8702 180.247 62.4908 175.181C60.9647 173.969 59.4279 172.683 57.9625 171.357C53.271 167.113 47.7767 163.681 44.2632 161.678C43.9514 161.488 43.2673 161.328 41.8908 161.125C39.5822 160.783 36.8831 160.812 35.1669 161.129C34.765 161.204 37.8092 157.465 41.1348 155.878C41.9314 155.497 43.9503 155.338 44.5346 154.684C44.7651 154.425 44.2021 155.783 44.4332 155.923Z" fill="#E29171"/>
<path d="M34.3877 161.099C34.2379 161.272 33.9404 161.071 34.0909 160.897C35.4688 159.305 37.1615 158.075 38.9415 156.97C40.7713 155.834 42.6378 154.765 44.4272 153.564C44.617 153.437 44.851 153.709 44.6596 153.837C42.9547 154.982 41.1845 156.016 39.4331 157.086C37.5912 158.211 35.809 159.457 34.3877 161.099Z" fill="#353659"/>
<path d="M46.4078 156.69C42.5998 157.269 41.135 155.878 41.135 155.878L44.2707 153.882C45.6683 154.221 46.4078 156.69 46.4078 156.69Z" fill="#353659"/>
<path d="M37.8927 161.099C37.23 161.298 36.5199 161.308 35.3168 161.627C34.374 161.877 33.4625 161.554 35.1349 160.028C36.8079 158.501 38.8888 157.294 38.8888 157.294C38.8888 157.294 39.0262 160.759 37.8927 161.099Z" fill="#353659"/>
<path d="M61.4211 163.851C62.9008 165.699 63.9972 167.81 64.664 170.081C64.7096 170.236 64.9526 170.17 64.9068 170.014C64.2272 167.699 63.1069 165.556 61.5991 163.673C61.4978 163.547 61.3208 163.726 61.4211 163.851Z" fill="#9B5846"/>
<path d="M67.0563 117.064C62.0753 119.568 56.9888 124.087 53.5758 127.266C52.0066 128.727 46.7129 136.593 46.7129 136.593L50.1689 140.536C50.1689 140.536 55.7267 134.092 59.1316 131.545C61.9857 129.41 65.6608 127.72 69.6014 126.243C73.7432 124.691 74.835 117.413 74.835 117.413C74.835 117.413 68.7955 116.19 67.0563 117.064Z" fill="#824BF8"/>
<path d="M50.1695 140.535C50.096 140.669 49.9169 140.668 49.6713 140.556C49.6009 140.524 49.5243 140.483 49.4427 140.432C49.0592 140.196 48.5739 139.768 48.0847 139.207C47.668 138.731 47.3166 138.239 47.0689 137.807C46.9652 137.625 46.8796 137.454 46.8151 137.299C46.7769 137.206 46.7457 137.119 46.7226 137.039C46.6934 136.933 46.6772 136.84 46.6772 136.761C46.6772 136.724 46.6812 136.69 46.6883 136.66C46.6943 136.634 46.7023 136.611 46.7135 136.592C46.7829 136.467 46.944 136.461 47.1645 136.552C47.3155 136.615 47.4968 136.725 47.695 136.874C47.6971 136.875 47.7001 136.877 47.702 136.879C48.0313 137.129 48.4118 137.488 48.7943 137.927C48.9987 138.162 49.1879 138.399 49.3571 138.631C49.5966 138.96 49.7969 139.279 49.941 139.562C50.0447 139.763 50.1202 139.947 50.1635 140.103C50.2168 140.293 50.2219 140.442 50.1695 140.535Z" fill="#262F36"/>
<path d="M77.7546 114.874C77.7546 114.874 84.4181 112.837 87.6457 108.092C88.8517 106.318 90.6884 96.5249 90.6884 96.5249L95.9037 95.9805C95.9037 95.9805 95.9433 107.958 92.9006 111.877C88.3968 117.676 82.7493 124.859 82.7493 124.859L77.7546 114.874Z" fill="#824BF8"/>
<path d="M95.5321 95.7297C95.3224 95.6555 95.0381 95.6004 94.705 95.5684C94.2091 95.5212 93.6047 95.524 92.9755 95.5887C92.0778 95.6807 91.3422 95.88 90.9579 96.1055C90.7247 96.2415 90.6207 96.3871 90.6868 96.5248C90.7333 96.6209 90.8579 96.7033 91.044 96.7695C91.4104 96.901 92.014 96.9704 92.7116 96.9609C92.9985 96.9566 93.3016 96.9398 93.6108 96.9078C94.19 96.8487 94.7028 96.7458 95.097 96.6209C95.3372 96.5443 95.5336 96.4592 95.6746 96.3709C95.8766 96.2435 95.9637 96.1088 95.9021 95.9804C95.8924 95.96 95.8786 95.9397 95.8618 95.9207C95.8615 95.9203 95.8615 95.9203 95.8615 95.9203C95.7972 95.8474 95.6844 95.7835 95.5321 95.7297Z" fill="#262F36"/>
<path d="M94.1394 89.3339C94.097 89.3348 94.0594 89.358 94.0255 89.3832C93.715 89.6131 93.5834 90.0175 93.5477 90.4021C93.5182 90.7198 93.5399 91.0403 93.5185 91.3585C93.5184 91.3686 93.5179 91.378 93.5171 91.3883C93.2409 91.6863 92.8994 91.9239 92.5213 92.0737C92.2797 92.17 92.024 92.2316 91.7887 92.3432C91.3808 92.5351 91.055 92.8847 90.8702 93.295C90.7546 93.5517 90.6936 93.8324 90.7016 94.1143C90.7073 94.3101 90.7469 94.5086 90.8272 94.6861C91.5388 95.865 92.4078 95.7325 93.3131 95.3634C93.3369 95.3537 93.3613 95.3437 93.3849 95.3333C93.6424 95.2255 93.9031 95.1007 94.1631 94.9833C94.7113 94.7227 95.2502 94.443 95.779 94.1456C96.2949 93.8547 96.8091 93.5409 97.2094 93.1048C97.3388 92.9643 97.453 92.8143 97.554 92.6563C98.175 91.6881 98.2938 90.4286 98.2087 89.2601C98.2023 89.1708 98.1763 89.0602 98.0887 89.041C98.0512 89.0328 98.0123 89.0459 97.9768 89.0618C97.6495 89.2031 97.4465 89.5374 97.3328 89.8759C97.2197 90.2137 97.1741 90.5722 97.0461 90.9052C96.9924 91.0447 96.9246 91.1771 96.8493 91.3054C96.9365 90.5279 96.8569 89.7121 96.6993 88.9445C96.6797 88.8491 96.6368 88.7334 96.54 88.725C96.4979 88.7215 96.4576 88.7415 96.4213 88.7627C96.0893 88.9607 95.9186 89.3497 95.8443 89.7286C95.8134 89.8853 95.7955 90.0444 95.7789 90.2029C95.7105 89.813 95.6124 89.4275 95.4965 89.0556C95.4675 88.9634 95.4129 88.8522 95.316 88.8541C95.2742 88.8547 95.236 88.8781 95.2021 88.9034C94.8916 89.1333 94.7606 89.5374 94.7243 89.9222C94.6889 90.3073 94.7291 90.698 94.6769 91.0807C94.674 91.0997 94.6701 91.1183 94.6672 91.1374C94.6067 90.5939 94.4811 90.0514 94.3193 89.5357C94.2908 89.4432 94.2363 89.3322 94.1394 89.3339Z" fill="#E29171"/>
<path d="M91.0442 96.7696C91.4107 96.9011 92.0142 96.9705 92.7118 96.9609C92.9988 96.9567 93.3018 96.9398 93.6111 96.9078C94.1903 96.8487 94.7031 96.7458 95.0973 96.6209L94.7054 95.5686L94.4381 94.8506L90.7014 94.1143L90.9584 96.1055L91.0442 96.7696Z" fill="#E29171"/>
<path d="M92.6622 95.2208C92.6028 95.228 92.625 95.3183 92.6838 95.3113C93.3149 95.2345 93.9355 95.1453 94.52 94.8828C94.5746 94.8583 94.5294 94.777 94.4751 94.8014C93.8989 95.0601 93.2837 95.1452 92.6622 95.2208Z" fill="#9B5846"/>
<path d="M93.4894 91.0765C93.4569 91.3573 93.511 91.6293 93.6464 91.8773C93.6751 91.9298 93.7565 91.8851 93.7278 91.8325C93.5996 91.5977 93.5516 91.3445 93.5824 91.0789C93.5894 91.0193 93.4964 91.0175 93.4894 91.0765Z" fill="#9B5846"/>
<path d="M94.6489 91.0004C94.6719 91.2873 94.7244 91.5676 94.8086 91.843C94.826 91.9001 94.9165 91.8787 94.899 91.8215C94.8172 91.5539 94.7642 91.2819 94.7418 91.0028C94.7371 90.9437 94.644 90.9408 94.6489 91.0004Z" fill="#9B5846"/>
<path d="M95.7391 90.0749C95.7603 90.5814 95.8522 91.0732 96.0178 91.5526C96.0372 91.6087 96.1278 91.5876 96.1083 91.531C95.9453 91.0587 95.853 90.5769 95.8321 90.0773C95.8295 90.0177 95.7365 90.015 95.7391 90.0749Z" fill="#9B5846"/>
<path d="M49.9415 139.562C49.5881 139.872 49.5428 140.117 49.4432 140.432C49.3757 140.644 49.2841 140.889 49.0556 141.206C48.5512 141.908 46.2277 144.24 46.0335 144.027C45.8916 143.872 46.0496 143.281 46.3445 142.718C46.424 142.549 46.4502 142.433 46.4361 142.356C45.2613 143.256 43.4986 144.466 43.2499 144.144C43.0244 143.853 43.9898 142.958 44.9815 142.149L44.9352 142.108C43.6235 142.975 41.7752 144.046 41.5175 143.665C41.2376 143.25 42.7205 142.121 43.9749 141.251L43.9266 141.208C43.9195 141.213 43.9114 141.218 43.9044 141.223C42.7004 142.037 40.7856 143.168 40.5107 142.762C40.4886 142.73 40.4785 142.693 40.4785 142.652C40.4785 142.173 41.8657 141.126 42.9721 140.356C43.3114 140.007 43.1885 139.948 43.0314 139.958C42.9529 139.975 42.8754 139.99 42.7999 140.004C42.7989 140.004 42.7989 140.004 42.7989 140.004C42.0408 140.143 41.4267 140.128 41.307 139.908C41.0331 139.408 43.0657 138.887 44.459 138.124C45.1909 137.725 45.8513 137.693 46.8158 137.299C47.0836 137.191 47.3735 137.054 47.6956 136.874C47.6977 136.875 47.7007 136.877 47.7026 136.879C48.0319 137.129 48.4124 137.488 48.7949 137.927C48.9994 138.162 49.1885 138.399 49.3577 138.631C49.5972 138.96 49.7975 139.279 49.9415 139.562Z" fill="#E29171"/>
<path d="M64.7852 125.418C64.7852 125.418 68.4611 133.918 67.8571 135.55C67.253 137.181 69.9514 137.085 72.5955 136.764C75.2397 136.443 81.0787 137.076 81.6826 136.961C82.2867 136.846 82.1021 134.296 82.4041 132.936C82.7061 131.577 84.2483 127.696 83.092 125.638C81.9357 123.579 84.875 121.967 84.875 121.967L79.0842 114.873L66.112 118.255L64.7852 125.418Z" fill="#824BF8"/>
<path d="M75.3362 113.901C75.2382 113.448 75.1544 113.002 75.0901 112.639C75.0647 112.496 75.0427 112.367 75.0236 112.255C74.9775 111.982 74.9518 111.812 74.9518 111.812L72.31 111.087L72.1913 111.054L72.1395 111.04L72.0058 111.004L70.5288 110.599C70.5298 110.607 70.7914 112.653 70.5472 116.652C70.4847 117.669 71.7986 119.147 74.9431 118.54C77.9557 117.958 76.2843 116.559 75.9557 115.958C75.8004 115.674 75.6482 115.19 75.5113 114.651C75.4494 114.408 75.3907 114.154 75.3362 113.901Z" fill="#E29171"/>
<path d="M72.4594 111.215C72.3391 111.143 72.2464 111.088 72.1922 111.055C72.1567 111.034 72.1375 111.022 72.1375 111.022C72.1383 111.029 72.1395 111.035 72.1404 111.041C72.1441 111.064 72.1484 111.085 72.1521 111.107C72.5694 113.419 74.7408 114.38 75.5123 114.652C75.4503 114.409 75.3917 114.154 75.3372 113.902C75.2392 113.449 75.1555 113.003 75.0911 112.64C74.4037 112.356 73.071 111.579 72.4594 111.215Z" fill="#9B5846"/>
<path d="M69.4159 110.572C69.4159 110.572 73.0865 114.434 76.915 113.123C80.7434 111.813 77.6497 105.771 75.1079 104.109C72.5661 102.446 64.6227 102.916 69.4159 110.572Z" fill="#E29171"/>
<path d="M71.8402 112.315C71.7893 112.286 71.7349 112.36 71.7863 112.39C72.9338 113.055 74.2276 113.419 75.554 113.444C75.6129 113.445 75.6233 113.353 75.564 113.352C74.2544 113.327 72.9737 112.972 71.8402 112.315Z" fill="#9B5846"/>
<path d="M75.4518 109.118C75.4099 109.16 75.4766 109.224 75.5185 109.182C75.6433 109.057 75.8661 108.98 75.7811 108.767C75.6946 108.55 75.4052 108.343 75.2412 108.186C75.0075 107.964 74.7521 107.739 74.5824 107.462C74.4515 107.248 74.4334 106.991 74.5345 106.797C74.5442 106.779 74.5338 106.756 74.5138 106.75C74.4849 106.741 74.4538 106.755 74.4403 106.782C74.3478 106.965 74.3413 107.192 74.4456 107.407C74.5898 107.703 74.8523 107.942 75.0864 108.166C75.2071 108.282 75.3301 108.396 75.447 108.516C75.4961 108.567 75.5872 108.635 75.6168 108.701C75.7301 108.955 75.5671 109.003 75.4518 109.118Z" fill="#9B5846"/>
<path d="M72.6567 107.202C72.4065 107.414 72.3457 107.754 72.4689 107.899C72.592 108.044 72.8215 107.903 73.0718 107.691C73.322 107.478 73.4984 107.275 73.3752 107.13C73.2519 106.985 72.907 106.99 72.6567 107.202Z" fill="#9B5846"/>
<path d="M75.1188 105.737C74.8376 105.906 74.7232 106.232 74.8215 106.395C74.9198 106.558 75.1688 106.456 75.4499 106.286C75.7311 106.116 75.9377 105.944 75.8395 105.781C75.7412 105.618 75.3999 105.567 75.1188 105.737Z" fill="#9B5846"/>
<path d="M73.4813 108.141C73.3518 108.227 73.3462 108.446 73.4688 108.631C73.5913 108.816 73.7958 108.897 73.9252 108.811C74.0546 108.725 74.0603 108.506 73.9376 108.321C73.8151 108.136 73.6108 108.055 73.4813 108.141Z" fill="#262F36"/>
<path d="M75.4078 106.842C75.2783 106.928 75.2727 107.147 75.3952 107.332C75.5177 107.517 75.7222 107.598 75.8516 107.512C75.9811 107.427 75.9867 107.207 75.8641 107.022C75.7417 106.837 75.5374 106.756 75.4078 106.842Z" fill="#262F36"/>
<path d="M71.8761 107.706C71.8942 107.534 71.8092 107.369 71.7851 107.198C71.7215 106.748 72.086 106.346 72.4799 106.118C72.8738 105.891 73.3279 105.758 73.6694 105.457C74.3511 104.857 74.3026 103.624 73.5759 103.079L71.6605 103.062C70.2576 102.986 68.804 103.267 67.6406 104.055C66.4772 104.842 65.6467 106.179 65.6618 107.583C65.6679 108.151 65.806 108.708 65.969 109.251C66.1923 109.996 66.4714 110.738 66.9498 111.35C67.4281 111.963 68.1342 112.434 68.9101 112.475C69.6638 112.515 70.6919 112.351 70.6093 111.601C70.4834 110.458 71.248 109.981 70.8822 109.321C70.8189 109.207 70.7433 109.093 70.7305 108.964C70.6716 108.367 71.8132 108.302 71.8761 107.706Z" fill="#262F36"/>
<path d="M69.3136 109.459C69.0952 110.076 69.5488 110.8 70.3265 111.075C71.1043 111.35 71.9117 111.072 72.1301 110.454C72.3484 109.836 71.8949 109.112 71.1171 108.837C70.3394 108.563 69.532 108.841 69.3136 109.459Z" fill="#E29171"/>
<path d="M70.1972 110.993C69.7733 110.855 69.5184 110.493 69.3563 110.097C69.3341 110.042 69.2453 110.068 69.2678 110.123C69.4331 110.527 69.6838 110.896 70.1061 111.058C70.6044 111.248 71.231 111.269 71.7328 111.092C71.7885 111.072 71.7628 110.984 71.7066 111.003C71.2333 111.17 70.6737 111.147 70.1972 110.993Z" fill="#9B5846"/>
<path d="M71.2392 109.865C71.2123 109.741 71.0483 109.644 70.9465 109.589C70.8941 109.561 70.8492 109.641 70.9014 109.669C70.9699 109.706 71.1144 109.78 71.1375 109.859C71.1585 109.931 71.0999 110.037 71.0902 110.112C71.0725 110.247 71.114 110.375 71.1963 110.482C71.2322 110.529 71.3113 110.481 71.2751 110.434C71.1956 110.331 71.1576 110.206 71.1902 110.077C71.2081 110.006 71.2558 109.942 71.2392 109.865Z" fill="#9B5846"/>
<path d="M70.9243 108.741C70.8661 108.731 70.8429 108.821 70.9014 108.83C71.0405 108.853 71.1661 108.904 71.2817 108.985C71.3304 109.019 71.375 108.938 71.3267 108.904C71.2057 108.82 71.07 108.765 70.9243 108.741Z" fill="#9B5846"/>
<path d="M67.4696 109.037C67.8423 108.444 68.4569 108.087 69.0665 107.779C69.5547 107.532 70.1922 107.319 70.5185 106.849C70.8731 106.339 70.4304 105.742 70.7318 105.222C71.1142 104.563 71.9838 104.537 72.6115 104.265C73.0911 104.058 73.5331 103.615 73.4294 103.054C73.4224 103.016 73.365 103.032 73.3719 103.07C73.5354 103.956 72.4891 104.259 71.8498 104.45C71.4065 104.583 70.9259 104.772 70.6799 105.193C70.3585 105.743 70.8481 106.374 70.4091 106.892C70.0103 107.363 69.3166 107.573 68.7873 107.856C67.927 108.316 66.9243 109.148 67.1353 110.254C67.2446 110.827 67.6913 111.241 67.9534 111.741C68.2924 112.389 68.1167 113.09 67.7005 113.655C66.9178 114.719 65.3602 115.246 65.1366 116.685C65.1308 116.723 65.1884 116.738 65.1943 116.701C65.4115 115.303 66.9086 114.767 67.6981 113.758C68.0073 113.363 68.2362 112.863 68.199 112.351C68.1573 111.777 67.7557 111.349 67.466 110.882C67.0923 110.281 67.0917 109.639 67.4696 109.037Z" fill="white"/>
<path d="M67.0579 117.064C67.2201 117.155 72.0983 119.877 76.0097 118.618C78.6885 117.757 78.3066 115.856 77.7548 114.874C76.3536 115.172 74.8857 115.235 73.3968 115.247C70.9991 115.267 68.8534 116.248 67.0579 117.064Z" fill="#E29171"/>
<path d="M75.2934 116.949C74.8254 117.313 74.0845 117.275 73.527 117.215C72.4333 117.097 71.4005 116.625 70.5901 115.883C70.5617 115.857 70.5255 115.905 70.5536 115.93C71.4728 116.772 72.6816 117.269 73.9293 117.301C74.4541 117.315 75.0657 117.287 75.4535 116.884C75.9073 116.412 75.9052 115.719 75.8025 115.116C75.796 115.078 75.7368 115.085 75.7433 115.123C75.8503 115.751 75.8473 116.517 75.2934 116.949Z" fill="white"/>
<path d="M74.8573 117.193C74.8007 117.22 74.7911 117.318 74.8355 117.412C74.8801 117.507 74.962 117.561 75.0185 117.535C75.0751 117.508 75.0848 117.41 75.0402 117.316C74.9958 117.221 74.9138 117.167 74.8573 117.193Z" fill="white"/>
<path d="M76.8481 109.657C76.8448 109.835 76.8232 110.06 76.7518 110.22C76.6519 110.444 76.4678 110.655 76.137 110.768C75.7697 110.894 75.4645 110.852 75.225 110.746C75.082 110.684 74.9319 110.557 74.8134 110.44C74.7681 110.395 74.7554 110.335 74.7687 110.282C74.7844 110.22 74.8335 110.168 74.9056 110.157C74.9235 110.154 74.9414 110.152 74.9605 110.148C74.9685 110.147 74.9771 110.146 74.9858 110.144C75.013 110.141 75.0413 110.136 75.0703 110.13C75.0814 110.128 75.0931 110.127 75.1048 110.125C75.1979 110.108 75.3009 110.086 75.4101 110.058C75.4452 110.049 75.4809 110.04 75.5173 110.03C75.5352 110.025 75.5531 110.02 75.5716 110.014C75.5901 110.009 75.6085 110.003 75.6277 109.998C75.6462 109.992 75.6653 109.986 75.6838 109.98C75.7028 109.974 75.7214 109.968 75.7405 109.961C75.7677 109.953 75.7948 109.943 75.8218 109.934C75.8434 109.926 75.865 109.918 75.8871 109.909C75.9364 109.89 75.987 109.871 76.0368 109.849C76.0546 109.842 76.0731 109.833 76.0909 109.825C76.1575 109.796 76.224 109.764 76.2904 109.73C76.3188 109.715 76.3476 109.7 76.376 109.684C76.3993 109.671 76.4227 109.657 76.4461 109.644C76.4559 109.638 76.4651 109.632 76.4745 109.627C76.496 109.614 76.5169 109.601 76.5379 109.588C76.5656 109.571 76.5932 109.552 76.6209 109.533C76.6737 109.497 76.7361 109.502 76.7826 109.532C76.8222 109.558 76.8496 109.602 76.8481 109.657Z" fill="#262F36"/>
<path d="M76.7815 109.532C76.5584 109.828 76.1871 110.209 75.7257 110.279C75.3587 110.336 75.0208 110.317 74.7676 110.282C74.7833 110.22 74.8324 110.168 74.9045 110.157C74.9224 110.154 74.9403 110.152 74.9594 110.148C74.9674 110.147 74.976 110.146 74.9847 110.144C75.0119 110.141 75.0402 110.136 75.0692 110.13C75.0803 110.128 75.092 110.127 75.1037 110.125C75.1968 110.107 75.2998 110.086 75.409 110.058C75.4441 110.049 75.4798 110.04 75.5162 110.03C75.5341 110.025 75.5519 110.02 75.5705 110.014C75.589 110.009 75.6081 110.004 75.6266 109.998C75.6451 109.992 75.6642 109.986 75.6827 109.98C75.7017 109.974 75.7203 109.968 75.7394 109.961C75.7665 109.953 75.7937 109.943 75.8207 109.934C75.8423 109.925 75.8639 109.918 75.886 109.909C75.9353 109.89 75.9859 109.871 76.0357 109.849C76.0535 109.842 76.072 109.833 76.0898 109.825C76.1564 109.796 76.2229 109.764 76.2893 109.73C76.3177 109.715 76.3465 109.7 76.3748 109.684C76.3982 109.67 76.4216 109.657 76.445 109.644C76.4548 109.638 76.464 109.632 76.4734 109.627C76.4949 109.614 76.5158 109.601 76.5367 109.588C76.5645 109.571 76.5921 109.552 76.6197 109.533C76.6727 109.497 76.7351 109.502 76.7815 109.532Z" fill="white"/>
<path d="M76.7519 110.22C76.6519 110.444 76.4679 110.655 76.1371 110.768C75.7698 110.893 75.4645 110.851 75.2251 110.746C75.3626 110.619 75.6375 110.412 76.0101 110.357C76.0101 110.357 76.4468 109.984 76.7519 110.22Z" fill="#E55A4D"/>
<path d="M65.3642 128.162C66.3275 127.532 67.4109 127.2 68.562 127.184C68.643 127.183 68.6432 127.058 68.562 127.059C67.39 127.074 66.2815 127.412 65.3007 128.054C65.2331 128.098 65.2961 128.207 65.3642 128.162Z" fill="white"/>
<path d="M82.9047 121.46C82.4813 122.645 82.4604 123.748 82.8364 124.948C82.8605 125.025 82.982 124.992 82.9577 124.915C82.5899 123.741 82.6125 122.65 83.026 121.493C83.0534 121.417 82.9318 121.384 82.9047 121.46Z" fill="white"/>
<path d="M71.2182 129.257C72.6477 130.486 75.1042 129.966 76.6225 129.197C76.6948 129.161 76.6311 129.052 76.559 129.088C75.0974 129.829 72.6865 130.354 71.3072 129.168C71.2461 129.116 71.1567 129.204 71.2182 129.257Z" fill="white"/>
</svg>
