<svg width="17" height="14" viewBox="0 0 17 14" fill="none" xmlns="http://www.w3.org/2000/svg">
<path d="M16.4266 3.89751C16.0164 3.67715 15.5934 3.70163 15.2089 3.96484C14.818 4.23417 14.677 4.61369 14.7667 5.06665C14.7859 5.15236 14.7667 5.18299 14.6898 5.22577C13.8439 5.69718 12.9979 6.1685 12.1519 6.64595C12.0814 6.68261 12.0558 6.68261 12.0109 6.60921C11.0688 5.1095 10.1203 3.61594 9.17814 2.11625C9.1397 2.05504 9.15254 2.03055 9.20383 1.98771C9.5435 1.71838 9.69088 1.36947 9.62038 0.953224C9.53704 0.475776 9.12686 0.114628 8.62696 0.0656585C8.13352 0.016689 7.65284 0.286021 7.46055 0.720624C7.26189 1.17359 7.39651 1.68777 7.80023 1.98771C7.85789 2.03055 7.87073 2.06116 7.83229 2.12237C6.88377 3.61594 5.94166 5.11562 4.99315 6.61533C4.94828 6.68261 4.92265 6.68261 4.85856 6.64595C4.00618 6.1685 3.1538 5.69105 2.30141 5.21361C2.24374 5.18299 2.2181 5.15236 2.23732 5.0789C2.41037 4.33824 1.79511 3.68327 1.00682 3.75672C0.410789 3.82406 -0.018608 4.30763 0.000620943 4.89526C0.0198498 5.43396 0.494109 5.89304 1.0645 5.91753C1.14782 5.91753 1.18626 5.94203 1.21191 6.02767C1.69257 7.69261 2.17324 9.35143 2.64749 11.0165C2.67954 11.1205 2.71799 11.1511 2.82695 11.1511C4.71757 11.1511 6.6146 11.1511 8.50526 11.1511C10.3958 11.1511 12.2993 11.1511 14.1963 11.1511C14.2925 11.1511 14.3309 11.1205 14.3565 11.0348C14.8372 9.36981 15.3179 7.70486 15.7986 6.03991C15.8242 5.95419 15.8562 5.92978 15.9459 5.92366C16.4971 5.90528 16.965 5.47061 17.0034 4.94423C17.0355 4.49127 16.8432 4.13012 16.4266 3.90976V3.89751ZM8.51164 9.12496L7.51821 7.86407L8.51164 6.60309L9.48575 7.86407L8.51164 9.12496Z" fill="#6E53F1"/>
<path d="M8.53768 11.8485C10.3706 11.8485 12.2036 11.8485 14.0365 11.8485C14.2031 11.8485 14.2031 11.8485 14.1839 12.0077C14.1134 12.528 14.0429 13.0544 13.9788 13.5747C13.966 13.6604 13.9339 13.6666 13.8571 13.6666C12.8124 13.6666 11.7614 13.6666 10.7166 13.6666C8.19801 13.6666 5.67929 13.6666 3.16701 13.6666C3.07728 13.6666 3.04524 13.6543 3.03884 13.5563C2.98756 13.0177 2.93629 12.4791 2.87861 11.9404C2.86579 11.8485 2.89142 11.8424 2.97474 11.8424C3.82713 11.8424 4.6731 11.8424 5.52548 11.8424C6.53168 11.8424 7.53788 11.8424 8.54406 11.8424L8.53768 11.8485Z" fill="#6E53F1"/>
</svg>
