<svg width="20" height="20" viewBox="0 0 20 20" fill="none" xmlns="http://www.w3.org/2000/svg">
<path d="M5.16553 13.2533H5.85198L5.50875 12.3423L5.16553 13.2533Z" fill="#6E53F1"/>
<path d="M7.62723 9.43957V7.74463H0.847471C0.622707 7.74463 0.40715 7.83392 0.248218 7.99285C0.0892868 8.15178 0 8.36734 0 8.5921V17.0668C0 17.2916 0.0892868 17.5071 0.248218 17.6661C0.40715 17.825 0.622707 17.9143 0.847471 17.9143H2.11868V19.6092L4.66109 17.9143H10.1696C10.3944 17.9143 10.61 17.825 10.7689 17.6661C10.9278 17.5071 11.0171 17.2916 11.0171 17.0668V11.1345H9.32218C8.87265 11.1345 8.44153 10.9559 8.12367 10.6381C7.80581 10.3202 7.62723 9.8891 7.62723 9.43957ZM6.38145 14.6727L6.16959 14.1007H4.84753L4.63566 14.6727C4.61619 14.725 4.5866 14.773 4.54859 14.8138C4.51058 14.8547 4.46489 14.8877 4.41413 14.9109C4.36337 14.9341 4.30854 14.9471 4.25276 14.9491C4.19698 14.9512 4.14135 14.9422 4.08905 14.9227C4.03674 14.9032 3.98878 14.8736 3.94791 14.8356C3.90704 14.7976 3.87405 14.7519 3.85084 14.7012C3.82762 14.6504 3.81463 14.5956 3.81261 14.5398C3.81058 14.484 3.81957 14.4284 3.83904 14.3761L5.11025 10.9862C5.13994 10.9044 5.19409 10.8337 5.26536 10.7838C5.33662 10.7338 5.42153 10.707 5.50856 10.707C5.59558 10.707 5.6805 10.7338 5.75176 10.7838C5.82302 10.8337 5.87718 10.9044 5.90687 10.9862L7.17808 14.3761C7.21741 14.4817 7.21317 14.5987 7.16628 14.7012C7.1194 14.8037 7.03371 14.8834 6.92807 14.9227C6.82243 14.962 6.7055 14.9578 6.60298 14.9109C6.50047 14.864 6.42079 14.7783 6.38145 14.6727Z" fill="#6E53F1"/>
<path d="M18.6443 0.117432H9.32208C9.09732 0.117432 8.88176 0.206718 8.72283 0.36565C8.5639 0.524582 8.47461 0.740139 8.47461 0.964902V9.43961C8.47461 9.66437 8.5639 9.87993 8.72283 10.0389C8.88176 10.1978 9.09732 10.2871 9.32208 10.2871H14.8306L17.373 11.982V10.2871H18.6443C18.869 10.2871 19.0846 10.1978 19.2435 10.0389C19.4024 9.87993 19.4917 9.66437 19.4917 9.43961V0.964902C19.4917 0.740139 19.4024 0.524582 19.2435 0.36565C19.0846 0.206718 18.869 0.117432 18.6443 0.117432ZM15.6781 3.93105C15.5383 3.93105 15.7374 4.74886 14.6103 5.97345C14.8769 6.17912 15.1604 6.36197 15.4578 6.52007C15.5494 6.57523 15.6169 6.66303 15.6465 6.76584C15.6761 6.86865 15.6657 6.97886 15.6174 7.07434C15.5692 7.16982 15.4866 7.24351 15.3862 7.2806C15.2858 7.31769 15.1752 7.31545 15.0764 7.27432C14.6884 7.07381 14.322 6.83384 13.9832 6.55821C13.648 6.83262 13.286 7.07254 12.9026 7.27432C12.8039 7.31545 12.6932 7.31769 12.5928 7.2806C12.4925 7.24351 12.4099 7.16982 12.3616 7.07434C12.3133 6.97886 12.303 6.86865 12.3326 6.76584C12.3622 6.66303 12.4296 6.57523 12.5213 6.52007C12.8188 6.36062 13.1023 6.17634 13.3688 5.96922C13.2153 5.80428 13.0737 5.62869 12.945 5.44378C12.8878 5.35154 12.8681 5.24083 12.8901 5.13451C12.9121 5.02819 12.974 4.93437 13.0632 4.8724C13.1523 4.81043 13.2619 4.78505 13.3692 4.80148C13.4765 4.81792 13.5734 4.87492 13.6399 4.96073C13.7486 5.11003 13.8676 5.25162 13.9959 5.38446C14.387 4.98151 14.6597 4.47867 14.784 3.93105H12.2882C12.1758 3.93105 12.0681 3.88641 11.9886 3.80694C11.9091 3.72747 11.8645 3.61969 11.8645 3.50731C11.8645 3.39493 11.9091 3.28715 11.9886 3.20769C12.0681 3.12822 12.1758 3.08358 12.2882 3.08358H13.5594V2.65984C13.5594 2.54746 13.6041 2.43968 13.6835 2.36022C13.763 2.28075 13.8708 2.23611 13.9832 2.23611C14.0955 2.23611 14.2033 2.28075 14.2828 2.36022C14.3623 2.43968 14.4069 2.54746 14.4069 2.65984V3.08358H15.6781C15.7905 3.08358 15.8983 3.12822 15.9777 3.20769C16.0572 3.28715 16.1018 3.39493 16.1018 3.50731C16.1018 3.61969 16.0572 3.72747 15.9777 3.80694C15.8983 3.88641 15.7905 3.93105 15.6781 3.93105Z" fill="#6E53F1"/>
</svg>
