<svg width="26" height="22" viewBox="0 0 26 22" fill="none" xmlns="http://www.w3.org/2000/svg">
<path d="M12.5247 10.8717L10.5064 12.8902L9.36222 11.7454C9.45814 11.667 9.56097 11.598 9.64968 11.5096L11.1441 10.0143C11.2331 9.92527 11.3014 9.82276 11.3804 9.72714L12.5247 10.8717ZM24.9479 16.8687L23.4876 15.4097C22.8212 14.7433 21.7374 14.7429 21.0691 15.4113L21.0076 15.473C20.6851 15.7956 20.5067 16.2251 20.5067 16.6819C20.5067 17.1192 20.6697 17.5298 20.9663 17.8477C20.9804 17.8709 20.9973 17.8922 21.0167 17.9114L22.5001 19.3945C22.8898 19.7841 22.8898 20.4174 22.5001 20.8073L22.4365 20.871C22.0468 21.2606 21.413 21.2606 21.0233 20.871L20.1311 19.9791C20.2687 19.639 20.2004 19.2343 19.9249 18.9593L19.9017 18.9355L20.2455 18.5916L18.137 16.4834L16.1182 18.501L18.2267 20.6092L18.5706 20.2666L18.5944 20.2898C18.7718 20.4675 19.0085 20.5647 19.2603 20.5647C19.3913 20.5647 19.5167 20.5349 19.633 20.4854L20.5214 21.3729C20.8547 21.7071 21.2923 21.8735 21.7299 21.8735C22.1672 21.8735 22.6052 21.7074 22.9381 21.3729L23.0017 21.3092C23.6685 20.6437 23.6685 19.559 23.0017 18.8926L21.5578 17.4486C21.5443 17.4267 21.5277 17.4063 21.5098 17.3878C21.3205 17.1997 21.2164 16.9489 21.2164 16.6819C21.2164 16.4144 21.3205 16.164 21.5111 15.9743L21.5725 15.9116C21.9622 15.5226 22.5954 15.522 23.002 15.927L24.446 17.3706C24.5845 17.5085 24.8093 17.5085 24.9479 17.3706C25.087 17.2317 25.087 17.0069 24.9479 16.8687ZM19.2117 14.9069C19.5349 14.5837 19.5349 14.0577 19.2117 13.7351L15.2733 9.79736C15.1178 9.64156 14.91 9.55567 14.6874 9.55567C14.4652 9.55567 14.2573 9.64125 14.1015 9.79705L9.4315 14.4671C9.27569 14.6232 9.19011 14.831 9.19011 15.0533C9.19011 15.2756 9.27632 15.4834 9.43181 15.6392L13.3692 19.5772C13.6802 19.8882 14.2297 19.8882 14.541 19.5772L19.2117 14.9069ZM11.9005 7.33179C11.9005 6.41327 11.5425 5.5493 10.8933 4.90038L7.36373 1.3702C6.71419 0.720343 5.85053 0.363281 4.93201 0.363281C4.01287 0.363281 3.14953 0.720657 2.49998 1.3702L1.00559 2.8646C-0.335196 4.20569 -0.335196 6.38819 1.00559 7.72866L4.53514 11.2585C5.18437 11.9078 6.04834 12.2654 6.96686 12.2654C7.88569 12.2654 8.74966 11.9078 9.39858 11.2585L10.8933 9.76351C11.5425 9.11427 11.9005 8.2503 11.9005 7.33179ZM3.66208 3.55145C3.16583 4.02857 2.48086 3.21194 2.97303 2.73889C3.49875 2.23449 4.20943 1.67554 4.99346 1.76676C5.73172 1.8514 6.27687 2.29781 6.79319 2.80002C7.2863 3.28059 6.4681 3.96337 5.98063 3.48906C5.701 3.21727 5.31635 2.83043 4.89283 2.82698C4.39658 2.82227 3.99343 3.23263 3.66208 3.55145Z" fill="#6E53F1"/>
</svg>
