<svg width="25" height="26" viewBox="0 0 25 26" fill="none" xmlns="http://www.w3.org/2000/svg">
<path d="M13.9039 22.9828H11.2152C10.7225 22.9828 10.3174 23.3833 10.3174 23.8806V24.3271C10.3174 24.8198 10.7179 25.2249 11.2152 25.2249H13.9039C14.3965 25.2249 14.8017 24.8244 14.8017 24.3271V23.8806C14.7971 23.3833 14.3965 22.9828 13.9039 22.9828Z" fill="#6E53F1"/>
<path d="M4.48425 12.6698H2.04416C0.916197 12.6698 0 13.586 0 14.714V16.9009C0 18.0288 0.916197 18.945 2.04416 18.945H4.48425V12.6698Z" fill="#6E53F1"/>
<path d="M12.2926 15.3446C12.2926 15.5898 11.9243 15.5898 11.9243 15.3446C11.9243 15.0995 12.2926 15.0995 12.2926 15.3446Z" fill="#6E53F1"/>
<path d="M22.1681 12.6698H19.728V18.9495H22.1681C23.2961 18.9495 24.2123 18.0333 24.2123 16.9053V14.7184C24.2169 13.5858 23.3007 12.6698 22.1681 12.6698Z" fill="#6E53F1"/>
<path d="M20.4552 11.772H21.9837V10.2389C21.9837 4.79252 17.5547 0.363281 12.108 0.363281C6.66137 0.363281 2.23242 4.79223 2.23242 10.2389V11.772H3.76094V10.2389C3.76094 5.63494 7.50393 1.89195 12.1079 1.89195C14.3362 1.89195 16.4311 2.76209 18.0057 4.34126C19.5849 5.91583 20.4504 8.01059 20.4504 10.2391V11.7722L20.4552 11.772Z" fill="#6E53F1"/>
<path d="M9.44247 23.6549H8.48484C6.11842 23.6549 4.11571 22.0803 3.53554 19.8427H2.61475C3.21787 22.5912 5.62582 24.5524 8.48484 24.5524H9.44247C9.42866 24.4787 9.41945 24.4051 9.41945 24.3268V23.8802C9.41945 23.802 9.42866 23.7286 9.44247 23.6549Z" fill="#6E53F1"/>
<path d="M12.1086 7.65161C9.34158 7.65161 7.09473 9.90295 7.09473 12.6654C7.09473 15.4324 9.34606 17.6793 12.1086 17.6793C14.8711 17.6793 17.1224 15.4279 17.1224 12.6654C17.1224 9.90295 14.8757 7.65161 12.1086 7.65161ZM12.1086 16.0631C11.7126 16.0631 11.3949 15.7408 11.3949 15.3495C11.3949 14.9535 11.7172 14.6359 12.1086 14.6359C12.4999 14.6359 12.8222 14.9581 12.8222 15.3495C12.8222 15.7408 12.5045 16.0631 12.1086 16.0631ZM13.1537 11.9518C12.7762 12.3017 12.5598 12.7805 12.5598 13.2731V14.0788C12.5598 14.3275 12.3572 14.5254 12.1132 14.5254C11.8692 14.5254 11.6666 14.3228 11.6666 14.0788V13.2731C11.6666 12.5319 11.9889 11.8137 12.5506 11.2934C12.7255 11.1323 12.7946 10.8975 12.7393 10.6627C12.6887 10.4325 12.4999 10.2437 12.2697 10.1931C12.0671 10.147 11.8692 10.1885 11.7126 10.3174C11.5561 10.4417 11.4686 10.6258 11.4686 10.8238C11.4686 11.0724 11.2661 11.2704 11.0221 11.2704C10.7734 11.2704 10.5755 11.0678 10.5755 10.8238C10.5755 10.3542 10.7873 9.91222 11.1556 9.61757C11.5239 9.32291 12.0027 9.21242 12.4723 9.32291C13.0386 9.45182 13.4852 9.90303 13.6141 10.4647C13.7338 11.0126 13.5634 11.5743 13.1537 11.9518Z" fill="#6E53F1"/>
</svg>
