<svg width="62" height="41" viewBox="0 0 62 41" fill="none" xmlns="http://www.w3.org/2000/svg">
<path opacity="0.2" d="M49.2244 20.2799L45.3638 20.0023L44.6068 16.2174C43.9902 13.0694 42.2993 10.2335 39.823 8.19449C37.3467 6.15548 34.239 5.04009 31.0313 5.03906C25.8333 5.03906 21.1399 7.91564 18.7175 12.5081L17.4559 14.9052L14.7559 15.1828C12.2869 15.4567 10.0063 16.6338 8.35265 18.4877C6.69906 20.3416 5.78924 22.7414 5.79816 25.2256C5.79816 30.8021 10.3149 35.3188 15.8914 35.3188H48.6945C52.858 35.3188 56.2645 31.9124 56.2645 27.7489C56.2645 23.8378 53.186 20.5322 49.2244 20.2799ZM34.6901 22.7023V30.2722H27.3473V22.7023H20.9381L31.0313 12.609L41.1246 22.7023H34.6901Z" fill="#6E53F1"/>
<path d="M49.5776 15.2335C48.73 10.9381 46.4174 7.07022 43.0348 4.2905C39.6522 1.51079 35.4095 -0.00831397 31.0312 -0.00732373C23.7389 -0.00732373 17.4053 4.13091 14.2512 10.1869C10.5425 10.5877 7.11276 12.3448 4.62094 15.1208C2.12912 17.8967 0.751032 21.4956 0.751465 25.2258C0.751465 33.578 7.53918 40.3657 15.8914 40.3657H48.6945C55.6588 40.3657 61.311 34.7135 61.311 27.7491C61.311 21.0876 56.1382 15.6877 49.5776 15.2335ZM48.6945 35.3191H15.8914C10.3148 35.3191 5.7981 30.8024 5.7981 25.2258C5.7981 20.053 9.65877 15.7382 14.7811 15.2083L17.481 14.9307L18.7427 12.5336C19.9031 10.2746 21.6644 8.37971 23.8325 7.05744C26.0007 5.73517 28.4917 5.03683 31.0312 5.03931C37.6423 5.03931 43.345 9.73267 44.6319 16.2176L45.3889 20.0026L49.2496 20.2801C51.1465 20.4077 52.9246 21.2491 54.2261 22.6349C55.5276 24.0207 56.2559 25.848 56.2644 27.7491C56.2644 31.9126 52.8579 35.3191 48.6945 35.3191ZM20.938 22.7025H27.3724V30.2725H34.6901V22.7025H41.1245L31.0312 12.6093L20.938 22.7025Z" fill="#6E53F1"/>
</svg>
