<svg width="20" height="21" viewBox="0 0 20 21" fill="none" xmlns="http://www.w3.org/2000/svg">
<g id="ph:question-fill">
<path id="Vector" d="M10 2.375C8.39303 2.375 6.82214 2.85152 5.486 3.74431C4.14985 4.6371 3.10844 5.90605 2.49348 7.3907C1.87852 8.87535 1.71762 10.509 2.03112 12.0851C2.34463 13.6612 3.11846 15.1089 4.25476 16.2452C5.39106 17.3815 6.8388 18.1554 8.4149 18.4689C9.99099 18.7824 11.6247 18.6215 13.1093 18.0065C14.594 17.3916 15.8629 16.3502 16.7557 15.014C17.6485 13.6779 18.125 12.107 18.125 10.5C18.1227 8.34581 17.266 6.28051 15.7427 4.75727C14.2195 3.23403 12.1542 2.37727 10 2.375ZM10 15.5C9.81458 15.5 9.63333 15.445 9.47916 15.342C9.32499 15.239 9.20482 15.0926 9.13387 14.9213C9.06291 14.75 9.04434 14.5615 9.08052 14.3796C9.11669 14.1977 9.20598 14.0307 9.33709 13.8996C9.4682 13.7685 9.63525 13.6792 9.81711 13.643C9.99896 13.6068 10.1875 13.6254 10.3588 13.6964C10.5301 13.7673 10.6765 13.8875 10.7795 14.0417C10.8825 14.1958 10.9375 14.3771 10.9375 14.5625C10.9375 14.8111 10.8387 15.0496 10.6629 15.2254C10.4871 15.4012 10.2486 15.5 10 15.5ZM10.625 11.6938V11.75C10.625 11.9158 10.5592 12.0747 10.4419 12.1919C10.3247 12.3092 10.1658 12.375 10 12.375C9.83424 12.375 9.67527 12.3092 9.55806 12.1919C9.44085 12.0747 9.375 11.9158 9.375 11.75V11.125C9.375 10.9592 9.44085 10.8003 9.55806 10.6831C9.67527 10.5658 9.83424 10.5 10 10.5C11.0336 10.5 11.875 9.79688 11.875 8.9375C11.875 8.07812 11.0336 7.375 10 7.375C8.96641 7.375 8.125 8.07812 8.125 8.9375V9.25C8.125 9.41576 8.05916 9.57473 7.94195 9.69194C7.82474 9.80915 7.66576 9.875 7.5 9.875C7.33424 9.875 7.17527 9.80915 7.05806 9.69194C6.94085 9.57473 6.875 9.41576 6.875 9.25V8.9375C6.875 7.38672 8.27657 6.125 10 6.125C11.7234 6.125 13.125 7.38672 13.125 8.9375C13.125 10.2953 12.05 11.432 10.625 11.6938Z" fill="#616161"/>
</g>
</svg>
