<svg width="30" height="29" viewBox="0 0 30 29" fill="none" xmlns="http://www.w3.org/2000/svg">
<g id="fluent:video-20-filled">
<path id="Vector" d="M19.2457 9.84282C19.2457 8.90445 18.8729 8.00451 18.2094 7.34098C17.5459 6.67745 16.646 6.30469 15.7076 6.30469H7.21605C6.27768 6.30469 5.37774 6.67745 4.71421 7.34098C4.05068 8.00451 3.67792 8.90445 3.67792 9.84282V19.7496C3.67792 20.688 4.05068 21.5879 4.71421 22.2514C5.37774 22.915 6.27768 23.2877 7.21605 23.2877H15.7076C16.646 23.2877 17.5459 22.915 18.2094 22.2514C18.8729 21.5879 19.2457 20.688 19.2457 19.7496V9.84282ZM20.661 11.8666V17.7428L24.5727 21.0686C24.7272 21.2 24.916 21.2844 25.1169 21.3119C25.3178 21.3393 25.5223 21.3086 25.7063 21.2235C25.8904 21.1383 26.0461 21.0022 26.1552 20.8313C26.2643 20.6604 26.3222 20.4619 26.322 20.2591V9.40834C26.3216 9.20677 26.2639 9.00947 26.1555 8.83951C26.0472 8.66955 25.8927 8.53395 25.7101 8.44859C25.5275 8.36323 25.3243 8.33163 25.1244 8.35748C24.9245 8.38333 24.7361 8.46556 24.5812 8.59457L20.661 11.8666Z" fill="white"/>
</g>
</svg>
