<svg width="29" height="29" viewBox="0 0 29 29" fill="none" xmlns="http://www.w3.org/2000/svg">
<g id="solar:gallery-bold">
<path id="Vector" d="M21.483 10.0795C21.483 10.705 21.2345 11.305 20.7922 11.7474C20.3498 12.1897 19.7498 12.4382 19.1243 12.4382C18.4987 12.4382 17.8987 12.1897 17.4564 11.7474C17.014 11.305 16.7655 10.705 16.7655 10.0795C16.7655 9.45388 17.014 8.85392 17.4564 8.41157C17.8987 7.96921 18.4987 7.7207 19.1243 7.7207C19.7498 7.7207 20.3498 7.96921 20.7922 8.41157C21.2345 8.85392 21.483 9.45388 21.483 10.0795Z" fill="white"/>
<path id="Vector_2" fill-rule="evenodd" clip-rule="evenodd" d="M14.3395 2.11914H14.474C17.1972 2.11914 19.3307 2.11914 20.996 2.34322C22.699 2.57202 24.0435 3.05085 25.099 4.10521C26.1546 5.16076 26.6322 6.50525 26.861 8.20945C27.0851 9.87355 27.0851 12.007 27.0851 14.7302V14.834C27.0851 17.0855 27.0851 18.9276 26.9624 20.4278C26.8398 21.9374 26.5886 23.1958 26.0248 24.2431C25.7772 24.7042 25.4705 25.1182 25.099 25.4897C24.0435 26.5452 22.699 27.0229 20.9948 27.2517C19.3307 27.4758 17.1972 27.4758 14.474 27.4758H14.3395C11.6164 27.4758 9.48287 27.4758 7.81759 27.2517C6.11456 27.0229 4.77007 26.5441 3.71453 25.4897C2.77928 24.5545 2.29574 23.3904 2.03981 21.9445C1.78624 20.5257 1.74025 18.7602 1.73081 16.5689C1.72845 16.011 1.72845 15.4214 1.72845 14.7986V14.7302C1.72845 12.007 1.72845 9.87355 1.95254 8.20827C2.18134 6.50525 2.66016 5.16076 3.71453 4.10521C4.77007 3.04967 6.11456 2.57202 7.81877 2.34322C9.48287 2.11914 11.6164 2.11914 14.3395 2.11914ZM8.05346 4.09578C6.54622 4.29863 5.63691 4.68547 4.96585 5.35653C4.2936 6.02878 3.90795 6.9369 3.70509 8.44533C3.49988 9.97852 3.49752 11.9929 3.49752 14.7975V15.7929L4.67808 14.7597C5.19591 14.3064 5.86668 14.0669 6.55451 14.0897C7.24234 14.1125 7.89579 14.3958 8.38251 14.8824L13.442 19.9419C13.8347 20.3345 14.3532 20.5759 14.9063 20.6238C15.4594 20.6717 16.0117 20.5229 16.466 20.2037L16.8174 19.9561C17.4728 19.4956 18.265 19.271 19.0645 19.3192C19.8641 19.3674 20.6236 19.6855 21.2189 20.2214L24.5565 23.2253C24.8938 22.52 25.0931 21.593 25.1993 20.2851C25.3148 18.864 25.316 17.0925 25.316 14.7975C25.316 11.9929 25.3137 9.97852 25.1085 8.44533C24.9056 6.9369 24.5188 6.0276 23.8477 5.35536C23.1755 4.68429 22.2673 4.29863 20.7589 4.09578C19.2257 3.89057 17.2113 3.88821 14.4068 3.88821C11.6022 3.88821 9.58665 3.89057 8.05346 4.09578Z" fill="white"/>
</g>
</svg>
