<svg width="17" height="30" viewBox="0 0 17 30" fill="none" xmlns="http://www.w3.org/2000/svg">
<path id="Icon_11_" d="M5.29345 16.9375C5.1764 16.9375 2.72103 16.9382 1.58858 16.9371C1.00558 16.9367 0.797581 16.726 0.797581 16.1357C0.796835 14.6196 0.796462 13.1035 0.797581 11.5873C0.797954 11.0046 1.01788 10.7822 1.59343 10.7818C2.72587 10.7811 5.16783 10.7815 5.29345 10.7815C5.29345 10.6776 5.29308 8.48872 5.29345 7.48073C5.2942 5.99048 5.55848 4.56398 6.31109 3.25785C7.08158 1.92098 8.20285 1.00523 9.63984 0.475731C10.5602 0.136356 11.5156 0.000981392 12.4922 0.000231393C13.7141 -0.000518607 14.936 0.000606381 16.1583 0.00285638C16.6835 0.00360638 16.9165 0.237231 16.9176 0.769356C16.9199 2.19548 16.9199 3.6216 16.9176 5.04735C16.9169 5.5851 16.6936 5.8011 16.1564 5.8071C15.1548 5.81798 14.1525 5.81123 13.152 5.85173C12.1414 5.85173 11.6099 6.34823 11.6099 7.40048C11.5857 8.51347 11.5998 9.6276 11.5998 10.7811C11.6945 10.7811 14.5703 10.7807 15.9145 10.7811C16.5251 10.7811 16.7339 10.9922 16.7339 11.6098C16.7339 13.1177 16.7335 14.626 16.7324 16.1338C16.732 16.7425 16.5359 16.9367 15.9216 16.9371C14.5774 16.9378 11.7128 16.9375 11.5875 16.9375V29.1418C11.5875 29.7925 11.384 29.9998 10.7458 29.9998C9.18992 29.9998 7.63364 30.0002 6.07774 29.9998C5.51375 29.9998 5.29382 29.7793 5.29382 29.212C5.29345 25.2373 5.29345 17.077 5.29345 16.9375Z" fill="#3D6AD6"/>
</svg>
