<svg width="31" height="30" viewBox="0 0 31 30" fill="none" xmlns="http://www.w3.org/2000/svg">
<g id="Group 18333">
<path id="Vector" d="M7.44487 18.1293L6.40685 22.0277L2.6129 22.1084C1.47907 19.9927 0.835938 17.5722 0.835938 14.9999C0.835938 12.5126 1.43725 10.1669 2.50311 8.10156H2.50393L5.88161 8.72453L7.36124 12.1021C7.05155 13.0104 6.88276 13.9854 6.88276 14.9999C6.88288 16.101 7.08114 17.156 7.44487 18.1293Z" fill="#FBBB00"/>
<path id="Vector_2" d="M30.4002 12.1982C30.5715 13.1056 30.6608 14.0427 30.6608 15.0004C30.6608 16.0743 30.5485 17.1219 30.3347 18.1323C29.6089 21.5708 27.7123 24.5732 25.085 26.698L25.0841 26.6971L20.8298 26.4788L20.2277 22.6974C21.971 21.6689 23.3335 20.0592 24.0511 18.1323H16.0781V12.1982H24.1674H30.4002Z" fill="#518EF8"/>
<path id="Vector_3" d="M25.0805 26.6972L25.0813 26.698C22.5261 28.7642 19.2802 30.0004 15.7468 30.0004C10.0685 30.0004 5.13169 26.8076 2.61328 22.109L7.44525 18.1299C8.70443 21.5106 11.9462 23.9172 15.7468 23.9172C17.3803 23.9172 18.9107 23.473 20.224 22.6974L25.0805 26.6972Z" fill="#28B446"/>
<path id="Vector_4" d="M25.2645 3.45328L20.4341 7.43156C19.075 6.57691 17.4684 6.0832 15.7472 6.0832C11.8606 6.0832 8.55819 8.60021 7.36209 12.1022L2.50472 8.10164H2.50391C4.98545 3.28846 9.98452 0 15.7472 0C19.365 0 22.6822 1.29644 25.2645 3.45328Z" fill="#F14336"/>
</g>
</svg>
