<svg width="25" height="24" viewBox="0 0 25 24" fill="none" xmlns="http://www.w3.org/2000/svg">
<path d="M24.7762 6.97324C24.7762 15.9248 12.4998 20.5285 12.4998 20.5285C12.4998 20.5285 0.223389 15.9248 0.223389 6.97324C0.223389 3.15732 3.18937 0.067749 6.85266 0.067749C9.2392 0.067749 11.3311 1.38238 12.4998 3.35169C13.6685 1.38238 15.7604 0.067749 18.147 0.067749C21.8103 0.067749 24.7762 3.15732 24.7762 6.97324Z" fill="#F7263F"/>
<path d="M24.7767 6.97295C24.7767 15.9248 12.5002 20.5285 12.5002 20.5285C12.5002 20.5285 7.57855 18.6829 3.96753 15.0561C16.1048 18.6402 20.5091 11.4907 20.5091 6.1475C20.5091 2.01093 17.5645 0.751137 16.1568 0.385182C16.7853 0.178821 17.4541 0.067749 18.1474 0.067749C21.8104 0.067749 24.7767 3.15732 24.7767 6.97295Z" fill="#CC1F3C"/>
<path d="M7.76959 1.72409C5.6498 1.5141 1.24455 1.77331 1.86346 7.71212C1.88749 7.94262 2.20901 7.97758 2.28302 7.75795C2.81085 6.19113 4.2566 3.21258 7.81261 2.14552C8.03873 2.07765 8.00453 1.74735 7.76959 1.72409Z" fill="#FF7683"/>
<path d="M12.5022 23.6896C16.7801 23.6896 20.248 23.2185 20.248 22.6374C20.248 22.0562 16.7801 21.5851 12.5022 21.5851C8.22428 21.5851 4.75635 22.0562 4.75635 22.6374C4.75635 23.2185 8.22428 23.6896 12.5022 23.6896Z" fill="#DBDBDB"/>
</svg>
